<svg id="Layer_1" data-name="Layer 1" xmlns="http://www.w3.org/2000/svg" viewBox="0 0 596.45 192.32"><defs><style>.cls-1{fill:#d8aa74;}</style></defs><polygon class="cls-1" points="37.32 50.51 28.82 50.51 28.82 32.18 271.6 32.18 278.11 40.17 37.32 40.17 37.32 50.51"/><polygon class="cls-1" points="280.28 162.51 274.47 168.7 57.84 168.7 57.84 154.49 65.43 154.49 65.43 162.51 280.28 162.51"/><polygon class="cls-1" points="39.62 50.51 39.62 43.06 280.22 43.06 286.31 50.51 39.62 50.51"/><polygon class="cls-1" points="282.59 160.04 67.61 160.04 67.61 154.26 288.06 154.26 282.59 160.04"/><polygon class="cls-1" points="529.21 154.26 529.21 160.04 314.53 160.04 309.09 154.26 529.21 154.26"/><polygon class="cls-1" points="531.47 154.49 539.07 154.49 539.07 168.7 322.44 168.7 316.64 162.51 531.47 162.51 531.47 154.49"/><polygon class="cls-1" points="316.01 43.06 556.97 43.06 556.97 50.51 309.9 50.51 316.01 43.06"/><polygon class="cls-1" points="318.86 40.17 325.38 32.18 568.16 32.18 568.16 50.51 559.65 50.51 559.65 40.17 318.86 40.17"/><path class="cls-1" d="M88.8,172.78a29.08,29.08,0,0,0-1.73-6.23,10.85,10.85,0,0,0-3.52-4.79A8.91,8.91,0,0,0,78,160a7,7,0,0,0-5.53,2.49,13.89,13.89,0,0,0-3.07,6.13,39,39,0,0,0-.25,14.81,33.28,33.28,0,0,0,1.84,6.29,12,12,0,0,0,3.55,5,8.23,8.23,0,0,0,5.42,1.91c3.14,0,5.5-1.65,7.07-4.92a28.09,28.09,0,0,0,2.35-12.13A40.88,40.88,0,0,0,88.8,172.78Zm0,0a29.08,29.08,0,0,0-1.73-6.23,10.85,10.85,0,0,0-3.52-4.79A8.91,8.91,0,0,0,78,160a7,7,0,0,0-5.53,2.49,13.89,13.89,0,0,0-3.07,6.13,39,39,0,0,0-.25,14.81,33.28,33.28,0,0,0,1.84,6.29,12,12,0,0,0,3.55,5,8.23,8.23,0,0,0,5.42,1.91c3.14,0,5.5-1.65,7.07-4.92a28.09,28.09,0,0,0,2.35-12.13A40.88,40.88,0,0,0,88.8,172.78Zm0,0a29.08,29.08,0,0,0-1.73-6.23,10.85,10.85,0,0,0-3.52-4.79A8.91,8.91,0,0,0,78,160a7,7,0,0,0-5.53,2.49,13.89,13.89,0,0,0-3.07,6.13,39,39,0,0,0-.25,14.81,33.28,33.28,0,0,0,1.84,6.29,12,12,0,0,0,3.55,5,8.23,8.23,0,0,0,5.42,1.91c3.14,0,5.5-1.65,7.07-4.92a28.09,28.09,0,0,0,2.35-12.13A40.88,40.88,0,0,0,88.8,172.78Zm0,0a29.08,29.08,0,0,0-1.73-6.23,10.85,10.85,0,0,0-3.52-4.79A8.91,8.91,0,0,0,78,160a7,7,0,0,0-5.53,2.49,13.89,13.89,0,0,0-3.07,6.13,39,39,0,0,0-.25,14.81,33.28,33.28,0,0,0,1.84,6.29,12,12,0,0,0,3.55,5,8.23,8.23,0,0,0,5.42,1.91c3.14,0,5.5-1.65,7.07-4.92a28.09,28.09,0,0,0,2.35-12.13A40.88,40.88,0,0,0,88.8,172.78Zm0,0a29.08,29.08,0,0,0-1.73-6.23,10.85,10.85,0,0,0-3.52-4.79A8.91,8.91,0,0,0,78,160a7,7,0,0,0-5.53,2.49,13.89,13.89,0,0,0-3.07,6.13,39,39,0,0,0-.25,14.81,33.28,33.28,0,0,0,1.84,6.29,12,12,0,0,0,3.55,5,8.23,8.23,0,0,0,5.42,1.91c3.14,0,5.5-1.65,7.07-4.92a28.09,28.09,0,0,0,2.35-12.13A40.88,40.88,0,0,0,88.8,172.78Zm0,0a29.08,29.08,0,0,0-1.73-6.23,10.85,10.85,0,0,0-3.52-4.79A8.91,8.91,0,0,0,78,160a7,7,0,0,0-5.53,2.49,13.89,13.89,0,0,0-3.07,6.13,39,39,0,0,0-.25,14.81,33.28,33.28,0,0,0,1.84,6.29,12,12,0,0,0,3.55,5,8.23,8.23,0,0,0,5.42,1.91c3.14,0,5.5-1.65,7.07-4.92a28.09,28.09,0,0,0,2.35-12.13A40.88,40.88,0,0,0,88.8,172.78Zm0,0a29.08,29.08,0,0,0-1.73-6.23,10.85,10.85,0,0,0-3.52-4.79A8.91,8.91,0,0,0,78,160a7,7,0,0,0-5.53,2.49,13.89,13.89,0,0,0-3.07,6.13,39,39,0,0,0-.25,14.81,33.28,33.28,0,0,0,1.84,6.29,12,12,0,0,0,3.55,5,8.23,8.23,0,0,0,5.42,1.91c3.14,0,5.5-1.65,7.07-4.92a28.09,28.09,0,0,0,2.35-12.13A40.88,40.88,0,0,0,88.8,172.78Zm272.38-3-4.91,11.61c0,.17,0,.25.12.25a45.92,45.92,0,0,0,4.65.21c1.69,0,3.18-.06,4.49-.14l.17-.32Zm-272.38,3a29.08,29.08,0,0,0-1.73-6.23,10.85,10.85,0,0,0-3.52-4.79A8.91,8.91,0,0,0,78,160a7,7,0,0,0-5.53,2.49,13.89,13.89,0,0,0-3.07,6.13,39,39,0,0,0-.25,14.81,33.28,33.28,0,0,0,1.84,6.29,12,12,0,0,0,3.55,5,8.23,8.23,0,0,0,5.42,1.91c3.14,0,5.5-1.65,7.07-4.92a28.09,28.09,0,0,0,2.35-12.13A40.88,40.88,0,0,0,88.8,172.78Zm272.38-3-4.91,11.61c0,.17,0,.25.12.25a45.92,45.92,0,0,0,4.65.21c1.69,0,3.18-.06,4.49-.14l.17-.32Zm-272.38,3a29.08,29.08,0,0,0-1.73-6.23,10.85,10.85,0,0,0-3.52-4.79A8.91,8.91,0,0,0,78,160a7,7,0,0,0-5.53,2.49,13.89,13.89,0,0,0-3.07,6.13,39,39,0,0,0-.25,14.81,33.28,33.28,0,0,0,1.84,6.29,12,12,0,0,0,3.55,5,8.23,8.23,0,0,0,5.42,1.91c3.14,0,5.5-1.65,7.07-4.92a28.09,28.09,0,0,0,2.35-12.13A40.88,40.88,0,0,0,88.8,172.78Zm272.38-3-4.91,11.61c0,.17,0,.25.12.25a45.92,45.92,0,0,0,4.65.21c1.69,0,3.18-.06,4.49-.14l.17-.32Zm43.16-9.47a5.39,5.39,0,0,0-2.89.52q-.69.52-.75,6.36v7a4.42,4.42,0,0,0,.21,1.55,1.63,1.63,0,0,0,.65.84,2.27,2.27,0,0,0,.83.33,5,5,0,0,0,.94.07H405a4.24,4.24,0,0,0,3.81-2.2,11.15,11.15,0,0,0,1.35-5.84C410.19,163.22,408.25,160.34,404.34,160.34Zm56.67,5.1a9.49,9.49,0,0,0-8.46-5h-.33q-5.34,0-6.09,1a7.31,7.31,0,0,0-.83,4.08v25.16c0,2.82.2,4.33.58,4.54q1.38.84,7.11.84a9.12,9.12,0,0,0,8.18-4.67q2.9-4.67,2.89-13.93A22.68,22.68,0,0,0,461,165.44ZM88.8,172.78a29.08,29.08,0,0,0-1.73-6.23,10.85,10.85,0,0,0-3.52-4.79A8.91,8.91,0,0,0,78,160a7,7,0,0,0-5.53,2.49,13.89,13.89,0,0,0-3.07,6.13,39,39,0,0,0-.25,14.81,33.28,33.28,0,0,0,1.84,6.29,12,12,0,0,0,3.55,5,8.23,8.23,0,0,0,5.42,1.91c3.14,0,5.5-1.65,7.07-4.92a28.09,28.09,0,0,0,2.35-12.13A40.88,40.88,0,0,0,88.8,172.78Zm272.38-3-4.91,11.61c0,.17,0,.25.12.25a45.92,45.92,0,0,0,4.65.21c1.69,0,3.18-.06,4.49-.14l.17-.32Zm43.16-9.47a5.39,5.39,0,0,0-2.89.52q-.69.52-.75,6.36v7a4.42,4.42,0,0,0,.21,1.55,1.63,1.63,0,0,0,.65.84,2.27,2.27,0,0,0,.83.33,5,5,0,0,0,.94.07H405a4.24,4.24,0,0,0,3.81-2.2,11.15,11.15,0,0,0,1.35-5.84C410.19,163.22,408.25,160.34,404.34,160.34Zm56.67,5.1a9.49,9.49,0,0,0-8.46-5h-.33q-5.34,0-6.09,1a7.31,7.31,0,0,0-.83,4.08v25.16c0,2.82.2,4.33.58,4.54q1.38.84,7.11.84a9.12,9.12,0,0,0,8.18-4.67q2.9-4.67,2.89-13.93A22.68,22.68,0,0,0,461,165.44ZM88.8,172.78a29.08,29.08,0,0,0-1.73-6.23,10.85,10.85,0,0,0-3.52-4.79A8.91,8.91,0,0,0,78,160a7,7,0,0,0-5.53,2.49,13.89,13.89,0,0,0-3.07,6.13,39,39,0,0,0-.25,14.81,33.28,33.28,0,0,0,1.84,6.29,12,12,0,0,0,3.55,5,8.23,8.23,0,0,0,5.42,1.91c3.14,0,5.5-1.65,7.07-4.92a28.09,28.09,0,0,0,2.35-12.13A40.88,40.88,0,0,0,88.8,172.78Zm272.38-3-4.91,11.61c0,.17,0,.25.12.25a45.92,45.92,0,0,0,4.65.21c1.69,0,3.18-.06,4.49-.14l.17-.32Zm43.16-9.47a5.39,5.39,0,0,0-2.89.52q-.69.52-.75,6.36v7a4.42,4.42,0,0,0,.21,1.55,1.63,1.63,0,0,0,.65.84,2.27,2.27,0,0,0,.83.33,5,5,0,0,0,.94.07H405a4.24,4.24,0,0,0,3.81-2.2,11.15,11.15,0,0,0,1.35-5.84C410.19,163.22,408.25,160.34,404.34,160.34Zm56.67,5.1a9.49,9.49,0,0,0-8.46-5h-.33q-5.34,0-6.09,1a7.31,7.31,0,0,0-.83,4.08v25.16c0,2.82.2,4.33.58,4.54q1.38.84,7.11.84a9.12,9.12,0,0,0,8.18-4.67q2.9-4.67,2.89-13.93A22.68,22.68,0,0,0,461,165.44ZM88.8,172.78a29.08,29.08,0,0,0-1.73-6.23,10.85,10.85,0,0,0-3.52-4.79A8.91,8.91,0,0,0,78,160a7,7,0,0,0-5.53,2.49,13.89,13.89,0,0,0-3.07,6.13,39,39,0,0,0-.25,14.81,33.28,33.28,0,0,0,1.84,6.29,12,12,0,0,0,3.55,5,8.23,8.23,0,0,0,5.42,1.91c3.14,0,5.5-1.65,7.07-4.92a28.09,28.09,0,0,0,2.35-12.13A40.88,40.88,0,0,0,88.8,172.78Zm272.38-3-4.91,11.61c0,.17,0,.25.12.25a45.92,45.92,0,0,0,4.65.21c1.69,0,3.18-.06,4.49-.14l.17-.32Zm43.16-9.47a5.39,5.39,0,0,0-2.89.52q-.69.52-.75,6.36v7a4.42,4.42,0,0,0,.21,1.55,1.63,1.63,0,0,0,.65.84,2.27,2.27,0,0,0,.83.33,5,5,0,0,0,.94.07H405a4.24,4.24,0,0,0,3.81-2.2,11.15,11.15,0,0,0,1.35-5.84C410.19,163.22,408.25,160.34,404.34,160.34Zm56.67,5.1a9.49,9.49,0,0,0-8.46-5h-.33q-5.34,0-6.09,1a7.31,7.31,0,0,0-.83,4.08v25.16c0,2.82.2,4.33.58,4.54q1.38.84,7.11.84a9.12,9.12,0,0,0,8.18-4.67q2.9-4.67,2.89-13.93A22.68,22.68,0,0,0,461,165.44ZM88.8,172.78a29.08,29.08,0,0,0-1.73-6.23,10.85,10.85,0,0,0-3.52-4.79A8.91,8.91,0,0,0,78,160a7,7,0,0,0-5.53,2.49,13.89,13.89,0,0,0-3.07,6.13,39,39,0,0,0-.25,14.81,33.28,33.28,0,0,0,1.84,6.29,12,12,0,0,0,3.55,5,8.23,8.23,0,0,0,5.42,1.91c3.14,0,5.5-1.65,7.07-4.92a28.09,28.09,0,0,0,2.35-12.13A40.88,40.88,0,0,0,88.8,172.78Zm113.13,49.33h-3.22v9.75h3.22c3,0,5-1.87,5-4.88S205,222.11,201.93,222.11Zm159.25-52.3-4.91,11.61c0,.17,0,.25.12.25a45.92,45.92,0,0,0,4.65.21c1.69,0,3.18-.06,4.49-.14l.17-.32Zm43.16-9.47a5.39,5.39,0,0,0-2.89.52q-.69.52-.75,6.36v7a4.42,4.42,0,0,0,.21,1.55,1.63,1.63,0,0,0,.65.84,2.27,2.27,0,0,0,.83.33,5,5,0,0,0,.94.07H405a4.24,4.24,0,0,0,3.81-2.2,11.15,11.15,0,0,0,1.35-5.84C410.19,163.22,408.25,160.34,404.34,160.34Zm56.67,5.1a9.49,9.49,0,0,0-8.46-5h-.33q-5.34,0-6.09,1a7.31,7.31,0,0,0-.83,4.08v25.16c0,2.82.2,4.33.58,4.54q1.38.84,7.11.84a9.12,9.12,0,0,0,8.18-4.67q2.9-4.67,2.89-13.93A22.68,22.68,0,0,0,461,165.44ZM201.93,222.11h-3.22v9.75h3.22c3,0,5-1.87,5-4.88S205,222.11,201.93,222.11ZM88.8,172.78a29.08,29.08,0,0,0-1.73-6.23,10.85,10.85,0,0,0-3.52-4.79A8.91,8.91,0,0,0,78,160a7,7,0,0,0-5.53,2.49,13.89,13.89,0,0,0-3.07,6.13,39,39,0,0,0-.25,14.81,33.28,33.28,0,0,0,1.84,6.29,12,12,0,0,0,3.55,5,8.23,8.23,0,0,0,5.42,1.91c3.14,0,5.5-1.65,7.07-4.92a28.09,28.09,0,0,0,2.35-12.13A40.88,40.88,0,0,0,88.8,172.78Zm272.38-3-4.91,11.61c0,.17,0,.25.12.25a45.92,45.92,0,0,0,4.65.21c1.69,0,3.18-.06,4.49-.14l.17-.32Zm43.16-9.47a5.39,5.39,0,0,0-2.89.52q-.69.52-.75,6.36v7a4.42,4.42,0,0,0,.21,1.55,1.63,1.63,0,0,0,.65.84,2.27,2.27,0,0,0,.83.33,5,5,0,0,0,.94.07H405a4.24,4.24,0,0,0,3.81-2.2,11.15,11.15,0,0,0,1.35-5.84C410.19,163.22,408.25,160.34,404.34,160.34Zm56.67,5.1a9.49,9.49,0,0,0-8.46-5h-.33q-5.34,0-6.09,1a7.31,7.31,0,0,0-.83,4.08v25.16c0,2.82.2,4.33.58,4.54q1.38.84,7.11.84a9.12,9.12,0,0,0,8.18-4.67q2.9-4.67,2.89-13.93A22.68,22.68,0,0,0,461,165.44ZM88.8,172.78a29.08,29.08,0,0,0-1.73-6.23,10.85,10.85,0,0,0-3.52-4.79A8.91,8.91,0,0,0,78,160a7,7,0,0,0-5.53,2.49,13.89,13.89,0,0,0-3.07,6.13,39,39,0,0,0-.25,14.81,33.28,33.28,0,0,0,1.84,6.29,12,12,0,0,0,3.55,5,8.23,8.23,0,0,0,5.42,1.91c3.14,0,5.5-1.65,7.07-4.92a28.09,28.09,0,0,0,2.35-12.13A40.88,40.88,0,0,0,88.8,172.78Zm113.13,49.33h-3.22v9.75h3.22c3,0,5-1.87,5-4.88S205,222.11,201.93,222.11Zm61.84,0h-2.89v5.46h2.89c2.15,0,3.24-1,3.24-2.72S265.92,222.09,263.77,222.09Zm97.41-52.28-4.91,11.61c0,.17,0,.25.12.25a45.92,45.92,0,0,0,4.65.21c1.69,0,3.18-.06,4.49-.14l.17-.32Zm43.16-9.47a5.39,5.39,0,0,0-2.89.52q-.69.52-.75,6.36v7a4.42,4.42,0,0,0,.21,1.55,1.63,1.63,0,0,0,.65.84,2.27,2.27,0,0,0,.83.33,5,5,0,0,0,.94.07H405a4.24,4.24,0,0,0,3.81-2.2,11.15,11.15,0,0,0,1.35-5.84C410.19,163.22,408.25,160.34,404.34,160.34Zm56.67,5.1a9.49,9.49,0,0,0-8.46-5h-.33q-5.34,0-6.09,1a7.31,7.31,0,0,0-.83,4.08v25.16c0,2.82.2,4.33.58,4.54q1.38.84,7.11.84a9.12,9.12,0,0,0,8.18-4.67q2.9-4.67,2.89-13.93A22.68,22.68,0,0,0,461,165.44ZM263.77,222.09h-2.89v5.46h2.89c2.15,0,3.24-1,3.24-2.72S265.92,222.09,263.77,222.09Zm-61.84,0h-3.22v9.75h3.22c3,0,5-1.87,5-4.88S205,222.11,201.93,222.11ZM88.8,172.78a29.08,29.08,0,0,0-1.73-6.23,10.85,10.85,0,0,0-3.52-4.79A8.91,8.91,0,0,0,78,160a7,7,0,0,0-5.53,2.49,13.89,13.89,0,0,0-3.07,6.13,39,39,0,0,0-.25,14.81,33.28,33.28,0,0,0,1.84,6.29,12,12,0,0,0,3.55,5,8.23,8.23,0,0,0,5.42,1.91c3.14,0,5.5-1.65,7.07-4.92a28.09,28.09,0,0,0,2.35-12.13A40.88,40.88,0,0,0,88.8,172.78Zm272.38-3-4.91,11.61c0,.17,0,.25.12.25a45.92,45.92,0,0,0,4.65.21c1.69,0,3.18-.06,4.49-.14l.17-.32Zm43.16-9.47a5.39,5.39,0,0,0-2.89.52q-.69.52-.75,6.36v7a4.42,4.42,0,0,0,.21,1.55,1.63,1.63,0,0,0,.65.84,2.27,2.27,0,0,0,.83.33,5,5,0,0,0,.94.07H405a4.24,4.24,0,0,0,3.81-2.2,11.15,11.15,0,0,0,1.35-5.84C410.19,163.22,408.25,160.34,404.34,160.34Zm56.67,5.1a9.49,9.49,0,0,0-8.46-5h-.33q-5.34,0-6.09,1a7.31,7.31,0,0,0-.83,4.08v25.16c0,2.82.2,4.33.58,4.54q1.38.84,7.11.84a9.12,9.12,0,0,0,8.18-4.67q2.9-4.67,2.89-13.93A22.68,22.68,0,0,0,461,165.44ZM88.8,172.78a29.08,29.08,0,0,0-1.73-6.23,10.85,10.85,0,0,0-3.52-4.79A8.91,8.91,0,0,0,78,160a7,7,0,0,0-5.53,2.49,13.89,13.89,0,0,0-3.07,6.13,39,39,0,0,0-.25,14.81,33.28,33.28,0,0,0,1.84,6.29,12,12,0,0,0,3.55,5,8.23,8.23,0,0,0,5.42,1.91c3.14,0,5.5-1.65,7.07-4.92a28.09,28.09,0,0,0,2.35-12.13A40.88,40.88,0,0,0,88.8,172.78Zm113.13,49.33h-3.22v9.75h3.22c3,0,5-1.87,5-4.88S205,222.11,201.93,222.11Zm61.84,0h-2.89v5.46h2.89c2.15,0,3.24-1,3.24-2.72S265.92,222.09,263.77,222.09Zm97.41-52.28-4.91,11.61c0,.17,0,.25.12.25a45.92,45.92,0,0,0,4.65.21c1.69,0,3.18-.06,4.49-.14l.17-.32Zm43.16-9.47a5.39,5.39,0,0,0-2.89.52q-.69.52-.75,6.36v7a4.42,4.42,0,0,0,.21,1.55,1.63,1.63,0,0,0,.65.84,2.27,2.27,0,0,0,.83.33,5,5,0,0,0,.94.07H405a4.24,4.24,0,0,0,3.81-2.2,11.15,11.15,0,0,0,1.35-5.84C410.19,163.22,408.25,160.34,404.34,160.34Zm56.67,5.1a9.49,9.49,0,0,0-8.46-5h-.33q-5.34,0-6.09,1a7.31,7.31,0,0,0-.83,4.08v25.16c0,2.82.2,4.33.58,4.54q1.38.84,7.11.84a9.12,9.12,0,0,0,8.18-4.67q2.9-4.67,2.89-13.93A22.68,22.68,0,0,0,461,165.44ZM263.77,222.09h-2.89v5.46h2.89c2.15,0,3.24-1,3.24-2.72S265.92,222.09,263.77,222.09Zm-61.84,0h-3.22v9.75h3.22c3,0,5-1.87,5-4.88S205,222.11,201.93,222.11ZM88.8,172.78a29.08,29.08,0,0,0-1.73-6.23,10.85,10.85,0,0,0-3.52-4.79A8.91,8.91,0,0,0,78,160a7,7,0,0,0-5.53,2.49,13.89,13.89,0,0,0-3.07,6.13,39,39,0,0,0-.25,14.81,33.28,33.28,0,0,0,1.84,6.29,12,12,0,0,0,3.55,5,8.23,8.23,0,0,0,5.42,1.91c3.14,0,5.5-1.65,7.07-4.92a28.09,28.09,0,0,0,2.35-12.13A40.88,40.88,0,0,0,88.8,172.78Zm272.38-3-4.91,11.61c0,.17,0,.25.12.25a45.92,45.92,0,0,0,4.65.21c1.69,0,3.18-.06,4.49-.14l.17-.32Zm43.16-9.47a5.39,5.39,0,0,0-2.89.52q-.69.52-.75,6.36v7a4.42,4.42,0,0,0,.21,1.55,1.63,1.63,0,0,0,.65.84,2.27,2.27,0,0,0,.83.33,5,5,0,0,0,.94.07H405a4.24,4.24,0,0,0,3.81-2.2,11.15,11.15,0,0,0,1.35-5.84C410.19,163.22,408.25,160.34,404.34,160.34Zm56.67,5.1a9.49,9.49,0,0,0-8.46-5h-.33q-5.34,0-6.09,1a7.31,7.31,0,0,0-.83,4.08v25.16c0,2.82.2,4.33.58,4.54q1.38.84,7.11.84a9.12,9.12,0,0,0,8.18-4.67q2.9-4.67,2.89-13.93A22.68,22.68,0,0,0,461,165.44ZM88.8,172.78a29.08,29.08,0,0,0-1.73-6.23,10.85,10.85,0,0,0-3.52-4.79A8.91,8.91,0,0,0,78,160a7,7,0,0,0-5.53,2.49,13.89,13.89,0,0,0-3.07,6.13,39,39,0,0,0-.25,14.81,33.28,33.28,0,0,0,1.84,6.29,12,12,0,0,0,3.55,5,8.23,8.23,0,0,0,5.42,1.91c3.14,0,5.5-1.65,7.07-4.92a28.09,28.09,0,0,0,2.35-12.13A40.88,40.88,0,0,0,88.8,172.78Zm113.13,49.33h-3.22v9.75h3.22c3,0,5-1.87,5-4.88S205,222.11,201.93,222.11Zm61.84,0h-2.89v5.46h2.89c2.15,0,3.24-1,3.24-2.72S265.92,222.09,263.77,222.09Zm92.81.62-2.41,6H359Zm4.6-52.9-4.91,11.61c0,.17,0,.25.12.25a45.92,45.92,0,0,0,4.65.21c1.69,0,3.18-.06,4.49-.14l.17-.32Zm43.16-9.47a5.39,5.39,0,0,0-2.89.52q-.69.52-.75,6.36v7a4.42,4.42,0,0,0,.21,1.55,1.63,1.63,0,0,0,.65.84,2.27,2.27,0,0,0,.83.33,5,5,0,0,0,.94.07H405a4.24,4.24,0,0,0,3.81-2.2,11.15,11.15,0,0,0,1.35-5.84C410.19,163.22,408.25,160.34,404.34,160.34Zm56.67,5.1a9.49,9.49,0,0,0-8.46-5h-.33q-5.34,0-6.09,1a7.31,7.31,0,0,0-.83,4.08v25.16c0,2.82.2,4.33.58,4.54q1.38.84,7.11.84a9.12,9.12,0,0,0,8.18-4.67q2.9-4.67,2.89-13.93A22.68,22.68,0,0,0,461,165.44ZM263.77,222.09h-2.89v5.46h2.89c2.15,0,3.24-1,3.24-2.72S265.92,222.09,263.77,222.09Zm-61.84,0h-3.22v9.75h3.22c3,0,5-1.87,5-4.88S205,222.11,201.93,222.11ZM88.8,172.78a29.08,29.08,0,0,0-1.73-6.23,10.85,10.85,0,0,0-3.52-4.79A8.91,8.91,0,0,0,78,160a7,7,0,0,0-5.53,2.49,13.89,13.89,0,0,0-3.07,6.13,39,39,0,0,0-.25,14.81,33.28,33.28,0,0,0,1.84,6.29,12,12,0,0,0,3.55,5,8.23,8.23,0,0,0,5.42,1.91c3.14,0,5.5-1.65,7.07-4.92a28.09,28.09,0,0,0,2.35-12.13A40.88,40.88,0,0,0,88.8,172.78Zm272.38-3-4.91,11.61c0,.17,0,.25.12.25a45.92,45.92,0,0,0,4.65.21c1.69,0,3.18-.06,4.49-.14l.17-.32Zm43.16-9.47a5.39,5.39,0,0,0-2.89.52q-.69.52-.75,6.36v7a4.42,4.42,0,0,0,.21,1.55,1.63,1.63,0,0,0,.65.84,2.27,2.27,0,0,0,.83.33,5,5,0,0,0,.94.07H405a4.24,4.24,0,0,0,3.81-2.2,11.15,11.15,0,0,0,1.35-5.84C410.19,163.22,408.25,160.34,404.34,160.34Zm56.67,5.1a9.49,9.49,0,0,0-8.46-5h-.33q-5.34,0-6.09,1a7.31,7.31,0,0,0-.83,4.08v25.16c0,2.82.2,4.33.58,4.54q1.38.84,7.11.84a9.12,9.12,0,0,0,8.18-4.67q2.9-4.67,2.89-13.93A22.68,22.68,0,0,0,461,165.44ZM356.58,222.71l-2.41,6H359ZM88.8,172.78a29.08,29.08,0,0,0-1.73-6.23,10.85,10.85,0,0,0-3.52-4.79A8.91,8.91,0,0,0,78,160a7,7,0,0,0-5.53,2.49,13.89,13.89,0,0,0-3.07,6.13,39,39,0,0,0-.25,14.81,33.28,33.28,0,0,0,1.84,6.29,12,12,0,0,0,3.55,5,8.23,8.23,0,0,0,5.42,1.91c3.14,0,5.5-1.65,7.07-4.92a28.09,28.09,0,0,0,2.35-12.13A40.88,40.88,0,0,0,88.8,172.78Zm113.13,49.33h-3.22v9.75h3.22c3,0,5-1.87,5-4.88S205,222.11,201.93,222.11Zm61.84,0h-2.89v5.46h2.89c2.15,0,3.24-1,3.24-2.72S265.92,222.09,263.77,222.09Zm92.81.62-2.41,6H359Zm4.6-52.9-4.91,11.61c0,.17,0,.25.12.25a45.92,45.92,0,0,0,4.65.21c1.69,0,3.18-.06,4.49-.14l.17-.32Zm19.69,52.28H378v5.48h2.87c2.15,0,3.24-1,3.24-2.74S383,222.09,380.87,222.09Zm23.47-61.75a5.39,5.39,0,0,0-2.89.52q-.69.52-.75,6.36v7a4.42,4.42,0,0,0,.21,1.55,1.63,1.63,0,0,0,.65.84,2.27,2.27,0,0,0,.83.33,5,5,0,0,0,.94.07H405a4.24,4.24,0,0,0,3.81-2.2,11.15,11.15,0,0,0,1.35-5.84C410.19,163.22,408.25,160.34,404.34,160.34Zm56.67,5.1a9.49,9.49,0,0,0-8.46-5h-.33q-5.34,0-6.09,1a7.31,7.31,0,0,0-.83,4.08v25.16c0,2.82.2,4.33.58,4.54q1.38.84,7.11.84a9.12,9.12,0,0,0,8.18-4.67q2.9-4.67,2.89-13.93A22.68,22.68,0,0,0,461,165.44ZM263.77,222.09h-2.89v5.46h2.89c2.15,0,3.24-1,3.24-2.72S265.92,222.09,263.77,222.09Zm-61.84,0h-3.22v9.75h3.22c3,0,5-1.87,5-4.88S205,222.11,201.93,222.11ZM88.8,172.78a29.08,29.08,0,0,0-1.73-6.23,10.85,10.85,0,0,0-3.52-4.79A8.91,8.91,0,0,0,78,160a7,7,0,0,0-5.53,2.49,13.89,13.89,0,0,0-3.07,6.13,39,39,0,0,0-.25,14.81,33.28,33.28,0,0,0,1.84,6.29,12,12,0,0,0,3.55,5,8.23,8.23,0,0,0,5.42,1.91c3.14,0,5.5-1.65,7.07-4.92a28.09,28.09,0,0,0,2.35-12.13A40.88,40.88,0,0,0,88.8,172.78Zm272.38-3-4.91,11.61c0,.17,0,.25.12.25a45.92,45.92,0,0,0,4.65.21c1.69,0,3.18-.06,4.49-.14l.17-.32Zm43.16-9.47a5.39,5.39,0,0,0-2.89.52q-.69.52-.75,6.36v7a4.42,4.42,0,0,0,.21,1.55,1.63,1.63,0,0,0,.65.84,2.27,2.27,0,0,0,.83.33,5,5,0,0,0,.94.07H405a4.24,4.24,0,0,0,3.81-2.2,11.15,11.15,0,0,0,1.35-5.84C410.19,163.22,408.25,160.34,404.34,160.34Zm56.67,5.1a9.49,9.49,0,0,0-8.46-5h-.33q-5.34,0-6.09,1a7.31,7.31,0,0,0-.83,4.08v25.16c0,2.82.2,4.33.58,4.54q1.38.84,7.11.84a9.12,9.12,0,0,0,8.18-4.67q2.9-4.67,2.89-13.93A22.68,22.68,0,0,0,461,165.44Zm-80.14,56.65H378v5.48h2.87c2.15,0,3.24-1,3.24-2.74S383,222.09,380.87,222.09Zm-24.29.62-2.41,6H359Zm247.65,20.84V145.32H312.07l19.32-23.89-9.83-7.68-11.48,31.57h-1.47l13.9-38.26L307,92.2l0,53.12h-1.67l0-53.12-15.52,14.86,13.91,38.26h-1.53L290.73,114l-9.83,7.66,19.16,23.68H7.77v98.23H300.6v0l-.42.44-4,4.31-3.79,4.06-6.4,6.9-2.4,2.57,8.78,5.94,3.56-8.51,2.88-6.9,1.7-4.06,1.8-4.31.19-.44v0h1.31v0l-.19.44-1.81,4.31-1.7,4.06-2.87,6.9L291.5,273l13.85,11.53,0-25.23V243.55h1.47v15.73l0,25.23L320.71,273,315,259.28l-2.9-6.9-1.68-4.06-1.8-4.31-.2-.44v0h1.36v0l.2.44,1.82,4.31,1.68,4.06,2.89,6.9,3.49,8.35,8.78-5.95-2.23-2.4-6.43-6.9-3.78-4.06-4-4.31-.42-.44v0Zm-270.78-8.43a10.7,10.7,0,0,1-6.2-1.82l1.2-2.74a8.82,8.82,0,0,0,5,1.63c2.11,0,2.95-.71,2.95-1.69,0-2.93-8.87-.92-8.87-6.74,0-2.68,2.09-4.9,6.44-4.9a10,10,0,0,1,5.29,1.39L338.19,223a8.54,8.54,0,0,0-4.24-1.22c-2.09,0-2.89.8-2.89,1.78,0,2.89,8.87.9,8.87,6.67C339.93,232.86,337.82,235.12,333.45,235.12Zm28-.27-1.35-3.37H353l-1.36,3.37h-3.62l6.81-15.73h3.48l6.82,15.73Zm22.74,0-2.95-4.38H378v4.38h-3.55V219.12h6.61c4.09,0,6.63,2.19,6.63,5.71a5.16,5.16,0,0,1-3.14,5l3.41,5Zm21.09-5.57v5.57h-3.52v-5.61l-5.91-10.12h3.76l4.06,7,4.08-7h3.47ZM564.8,187.13c1.3,0,2,.11,2,.38a12.46,12.46,0,0,0,3.16,6,7.68,7.68,0,0,0,5.84,3c4.16,0,6.23-2.36,6.23-7.05a4.69,4.69,0,0,0-.56-2.19,8.17,8.17,0,0,0-1.7-2.11c-.75-.69-1.44-1.24-2-1.68s-1.42-1-2.49-1.69-1.75-1.15-2-1.36-.52-.34-.94-.65c-1.38-.94-2.43-1.7-3.14-2.26a23.72,23.72,0,0,1-2.49-2.34,9,9,0,0,1-2-3.27,12.77,12.77,0,0,1-.59-4.07,10.44,10.44,0,0,1,4.18-8.29,14.24,14.24,0,0,1,9.21-3.43,20,20,0,0,1,2.74.19c1,.14,1.75.27,2.4.38s1.55.35,2.7.64,2.07.48,2.74.61a101,101,0,0,1,.69,10.77.92.92,0,0,1-.94.63c-1.21,0-1.86-.14-2-.44a12.77,12.77,0,0,0-2.7-6.21,6.86,6.86,0,0,0-5.59-2.95,5.06,5.06,0,0,0-3.62,1.38,6.37,6.37,0,0,0-.85,6.86,8.63,8.63,0,0,0,2.11,2.53,27.88,27.88,0,0,0,2.42,1.95c.63.42,1.64,1.13,3.08,2.07.38.27.67.46.88.59s1,.64,2.07,1.29,1.8,1.13,2.24,1.45a22.87,22.87,0,0,1,1.82,1.59,8.4,8.4,0,0,1,1.71,2.19,15.68,15.68,0,0,1,1,2.78,15.45,15.45,0,0,1,.45,3.79,10.69,10.69,0,0,1-4.16,8.6,14.72,14.72,0,0,1-9.56,3.39,51.87,51.87,0,0,1-12-1.68,51.76,51.76,0,0,1-1-5.67,42.2,42.2,0,0,1-.48-5.08C563.8,187.34,564.16,187.13,564.8,187.13Zm-49.7-30.48c.65,0,2,.13,4,.28s3.55.23,4.64.23a52.81,52.81,0,0,0,6.15-.51,45.34,45.34,0,0,0,4.2,6.38q3.1,4.18,8,10.34c3.26,4.12,5.87,7.49,7.8,10.12a16,16,0,0,0,.12-2.66V165.59c0-2.47-.27-4-.81-4.67a5.16,5.16,0,0,0-2.37-1.28,8.94,8.94,0,0,0-2.55-.6c-.16,0-.27-.34-.31-1.07a2.33,2.33,0,0,1,.14-1.32c3.85.34,6.62.51,8.29.51,1.06,0,2.49-.07,4.31-.23s3-.25,3.49-.28a2.56,2.56,0,0,1,.27,1.17c0,.82-.12,1.22-.33,1.22a6.32,6.32,0,0,0-5.21,2.15c-.59.73-.88,2.32-.88,4.73v24.64q0,2.33.25,9.08c-.17.17-.69.25-1.57.25-.52,0-1.17-.5-2-1.48l-25.61-32.82v24.83a13.23,13.23,0,0,0,.5,4.62,4.12,4.12,0,0,0,2.64,1.71,11.73,11.73,0,0,0,3,.61c.11,0,.19.38.21,1.11a3.54,3.54,0,0,1-.1,1.36c-.36,0-1.61-.1-3.7-.27s-3.69-.25-4.79-.25-2.47.08-4.15.23-2.9.25-3.64.29c-.14-.13-.19-.52-.19-1.17,0-.82,0-1.22.19-1.22a7.74,7.74,0,0,0,1.43-.14,6.66,6.66,0,0,0,2.09-.75A4,4,0,0,0,520.5,195c.42-.69.63-2.26.63-4.73V164.75c0-2.24-.32-3.77-.93-4.6a4,4,0,0,0-2.21-.78,19.35,19.35,0,0,0-2.78-.33c-.17,0-.26-.34-.3-1.07S514.93,156.82,515.1,156.65Zm-37.71-.14c3.36.23,6.44.33,9.26.33,1.84,0,5.09-.06,9.75-.16s8.18-.17,10.58-.17c0,.44.65,3.64,1.82,9.6a2.17,2.17,0,0,1-1.44.33c-.48,0-.77-.16-.88-.46a11,11,0,0,0-3.8-4.22,8.86,8.86,0,0,0-5-1.74h-2.39c-2.64,0-4,.29-4.1.84a28.62,28.62,0,0,0-.31,5.06v10c0,.27.9.4,2.7.4h3.34a16.55,16.55,0,0,0,4.29-.26,3.88,3.88,0,0,0,.5-1.88,11.18,11.18,0,0,1,.38-1.88c0-.31.35-.46.94-.46a2,2,0,0,1,1.38.33v12.26a2.13,2.13,0,0,1-1.32.25c-.54,0-.88-.18-1-.52-.17-.61-.32-1.13-.44-1.55a7.72,7.72,0,0,0-.33-1A2.52,2.52,0,0,0,501,181a2.89,2.89,0,0,0-.21-.33,1,1,0,0,0-.25-.17.75.75,0,0,1-.25-.16c-.56-.34-2.19-.51-4.91-.51-3,0-4.54.19-4.54.57v10a16.14,16.14,0,0,0,.5,4.62c.21.69,1.65,1,4.29,1h1.63a14.87,14.87,0,0,0,7.05-1.69,9.58,9.58,0,0,0,2.42-2.2,12.48,12.48,0,0,0,2.1-3.64c.06-.25.35-.39.88-.39a3,3,0,0,1,1.9.39c-2.05,6-3.2,9.69-3.39,11.15-2.15,0-5.56,0-10.21-.14s-8.43-.11-11.32-.11l-9.18.38a1.63,1.63,0,0,1-.25-1.09c0-.88.08-1.3.25-1.3a10.14,10.14,0,0,0,2.36-.46c1.07-.31,1.66-.64,1.78-1a26.5,26.5,0,0,0,.38-5.71v-24.5a22.13,22.13,0,0,0-.38-5.06c-.12-.35-.73-.73-1.84-1.17a8.29,8.29,0,0,0-2.38-.65c-.15,0-.25-.39-.25-1.15A2.5,2.5,0,0,1,477.39,156.51Zm-45.55,0c3.37.23,6.43.33,9.25.33h11q10.26,0,16,6.26a20.9,20.9,0,0,1,5.79,14.68A22.19,22.19,0,0,1,468,193.45q-5.86,6.33-16.06,6.32c-.78,0-2.43-.05-4.9-.17s-4.45-.15-5.92-.15l-9.18.38a1.63,1.63,0,0,1-.25-1.09c0-.88.08-1.3.25-1.3a10.14,10.14,0,0,0,2.36-.46c1.07-.31,1.66-.64,1.8-1a28.38,28.38,0,0,0,.36-5.71v-24.5a23.71,23.71,0,0,0-.36-5.06c-.14-.35-.75-.73-1.86-1.17a8.21,8.21,0,0,0-2.36-.65c-.17,0-.27-.39-.27-1.15A2.34,2.34,0,0,1,431.84,156.51Zm-44.61,0c3.85.23,6.94.33,9.24.33,1.15,0,2.58,0,4.31,0s3.26,0,4.5,0a18.1,18.1,0,0,1,4.46.56,21.31,21.31,0,0,1,4.66,1.7,10,10,0,0,1,3.85,3.41,9.19,9.19,0,0,1,1.51,5.21,12.19,12.19,0,0,1-2.45,7.59,11.62,11.62,0,0,1-5.29,4.21c-.34.14-.4.37-.19.73q1.38,2.38,2.36,4c.65,1,1.42,2.22,2.34,3.48s1.61,2.34,2.16,3.17a20.75,20.75,0,0,0,4.12,4.5,7.93,7.93,0,0,0,4.94,2.11,1.84,1.84,0,0,1,.25,1.16,3,3,0,0,1-.25,1.29,15,15,0,0,1-2.2.13,24.59,24.59,0,0,1-5.63-.61,18.63,18.63,0,0,1-4.1-1.4,12,12,0,0,1-3.09-2.34,24.78,24.78,0,0,1-2.28-2.58c-.51-.69-1.18-1.71-2-3.05-.4-.69-1-1.57-1.63-2.66s-1.2-1.94-1.6-2.55-.83-1.3-1.29-2a12.46,12.46,0,0,0-1.17-1.56,2.66,2.66,0,0,0-.78-.65,3.3,3.3,0,0,0-.69,0c-.39,0-.56.34-.56,1v8.81a27.1,27.1,0,0,0,.42,5.33c.14.52.83.92,2.09,1.23a13.73,13.73,0,0,0,2.84.46c.15,0,.25.4.25,1.22a3.53,3.53,0,0,1-.14,1.17c-5-.27-8.24-.38-9.62-.38l-9.19.38a1.63,1.63,0,0,1-.25-1.09c0-.88.08-1.3.25-1.3a9.64,9.64,0,0,0,2.35-.46c1.08-.31,1.67-.64,1.81-1a28.68,28.68,0,0,0,.38-5.71v-24.5a24,24,0,0,0-.38-5.06c-.14-.35-.75-.73-1.86-1.17a8.21,8.21,0,0,0-2.36-.65c-.17,0-.25-.39-.25-1.15A2.28,2.28,0,0,1,387.23,156.51Zm-46.32,41a8.7,8.7,0,0,0,2.53-.67,4.69,4.69,0,0,0,2.2-1.4,16.92,16.92,0,0,0,1-1.91l.85-1.84.32-.79L361.73,158a2.42,2.42,0,0,1,2.34-1.69,1.71,1.71,0,0,1,1.51.85L378.48,190c.8,2,1.49,3.76,2.09,5.31a2.92,2.92,0,0,0,2.07,1.59,9.55,9.55,0,0,0,2.58.56c.15,0,.25.36.25,1.09a3.83,3.83,0,0,1-.13,1.3c-.18,0-1.46-.1-3.87-.27s-4.16-.25-5.25-.25c-.29,0-3.47.18-9.51.52-.17-.17-.24-.61-.24-1.32s.07-1.07.24-1.07a7.33,7.33,0,0,0,2.84-.62c1-.42,1.44-1,1.44-1.66,0-.08-.52-1.54-1.57-4.33l-1.88-4.74a.74.74,0,0,0-.44-.26c-.81,0-2.82-.06-6.06-.06-2.76,0-4.88,0-6.34.06a.53.53,0,0,0-.44.32l-2.09,4.93a12.66,12.66,0,0,0-1.24,4,1.74,1.74,0,0,0,1.13,1.61,6.05,6.05,0,0,0,2,.69,14.66,14.66,0,0,0,1.48.1c.13,0,.19.38.19,1a5.29,5.29,0,0,1-.12,1.36c-.55,0-1.64-.13-3.31-.29s-3-.23-4.06-.23-2.3.08-3.78.23-2.6.25-3.39.29a1.41,1.41,0,0,1-.25-1C340.79,198,340.83,197.49,340.91,197.49Zm-37.55-34.56A19.94,19.94,0,0,1,318,156.32a59.94,59.94,0,0,1,14.41,1.88c.21,0,.5,1.68.88,4.9s.56,5.14.56,5.73c0,.35-.37.52-1.13.52a4.15,4.15,0,0,1-1.94-.33,12.45,12.45,0,0,0-1-2.53,17.49,17.49,0,0,0-2.07-2.91,10.08,10.08,0,0,0-3.85-2.62,14.51,14.51,0,0,0-5.54-1Q307,160,307,177.2a32,32,0,0,0,1.22,9.05,16.37,16.37,0,0,0,4.35,7.22,10.65,10.65,0,0,0,7.76,3.05,6.33,6.33,0,0,0,4-1,2.39,2.39,0,0,0,.69-1.93V189a21.43,21.43,0,0,0-.44-5c-.34-1.17-1.72-1.75-4.16-1.75-.17,0-.26-.36-.28-1.07a2,2,0,0,1,.23-1.32l3,.15,3.39.17c1,0,2,.06,3,.06q.95,0,8.48-.38a3.74,3.74,0,0,1,.2,1.28c0,.79-.08,1.17-.25,1.17a7.55,7.55,0,0,0-3.34,1c-.67.34-1,2-1,5.11v3.78a6.24,6.24,0,0,0,.19,1.74,3.35,3.35,0,0,1,.19.71,2.08,2.08,0,0,1-1.32,1.82c-1.55.82-2.76,1.42-3.62,1.78a26.86,26.86,0,0,1-4.58,1.23,36.45,36.45,0,0,1-7.4.69A18.17,18.17,0,0,1,306,196.38a23,23,0,0,1-2.84-2.6,21.66,21.66,0,0,1-5.86-15.08A22.53,22.53,0,0,1,303.36,162.93Zm-52.5-2.26a3.56,3.56,0,0,0-1.76-1.07A6.78,6.78,0,0,0,247,159c-.17,0-.25-.36-.25-1.09a3.36,3.36,0,0,1,.12-1.3c5.78.26,8.83.38,9.12.38.84,0,3.79-.12,8.81-.38a3.63,3.63,0,0,1,.19,1.17c0,.82-.07,1.22-.25,1.22a9.45,9.45,0,0,0-2.26.56c-1.13.36-1.74.71-1.84,1a23.85,23.85,0,0,0-.44,5.2v24.58a15.32,15.32,0,0,0,.52,4.67c.21.69,1.63,1,4.27,1h1.63a14.81,14.81,0,0,0,7.05-1.69,9.6,9.6,0,0,0,2.43-2.2,12.74,12.74,0,0,0,2.11-3.64c.08-.25.38-.39.88-.39a3,3,0,0,1,1.88.39,91.2,91.2,0,0,0-3.39,11.15c-2.4,0-6.13,0-11.21-.14s-8.51-.11-10.31-.11l-9.19.38a1.63,1.63,0,0,1-.25-1.09c0-.88.08-1.3.25-1.3a10,10,0,0,0,2.35-.46c1.08-.31,1.67-.64,1.81-1a28.68,28.68,0,0,0,.38-5.71V165.54C251.38,162.89,251.21,161.26,250.86,160.67Zm-37.63,0a3.56,3.56,0,0,0-1.76-1.07,6.78,6.78,0,0,0-2.13-.56c-.17,0-.25-.36-.25-1.09a3.36,3.36,0,0,1,.12-1.3c5.79.26,8.83.38,9.12.38.84,0,3.77-.12,8.81-.38a3.38,3.38,0,0,1,.19,1.17c0,.82-.07,1.22-.25,1.22a9.45,9.45,0,0,0-2.26.56c-1.15.36-1.74.71-1.84,1a23.85,23.85,0,0,0-.44,5.2v24.58a15.65,15.65,0,0,0,.52,4.67c.21.69,1.63,1,4.27,1H229a14.81,14.81,0,0,0,7-1.69,9.61,9.61,0,0,0,2.44-2.2,13,13,0,0,0,2.1-3.64c.08-.25.37-.39.88-.39a3,3,0,0,1,1.88.39,91.2,91.2,0,0,0-3.39,11.15c-2.39,0-6.13,0-11.21-.14s-8.5-.11-10.3-.11l-9.2.38a1.63,1.63,0,0,1-.25-1.09c0-.88.08-1.3.25-1.3a10.14,10.14,0,0,0,2.36-.46c1.07-.31,1.66-.64,1.8-1a27.92,27.92,0,0,0,.38-5.71V165.54C213.75,162.89,213.58,161.26,213.23,160.67Zm-41.71-4.16c3.36.23,6.44.33,9.26.33,1.84,0,5.09-.06,9.75-.16s8.18-.17,10.56-.17c0,.44.65,3.64,1.84,9.6a2.22,2.22,0,0,1-1.46.33.85.85,0,0,1-.88-.46,10.8,10.8,0,0,0-3.78-4.22,8.91,8.91,0,0,0-5-1.74H189.4c-2.64,0-4,.29-4.1.84a28.62,28.62,0,0,0-.31,5.06v10c0,.27.9.4,2.7.4H191a16.33,16.33,0,0,0,4.27-.26,3.65,3.65,0,0,0,.5-1.88,13.59,13.59,0,0,1,.38-1.88c0-.31.37-.46,1-.46a2,2,0,0,1,1.38.33v12.26a2.13,2.13,0,0,1-1.32.25c-.56,0-.88-.18-1-.52-.17-.61-.3-1.13-.44-1.55a8.41,8.41,0,0,0-.31-1c-.09-.21-.19-.4-.28-.57a2.89,2.89,0,0,0-.21-.33,1.16,1.16,0,0,0-.27-.17,1.08,1.08,0,0,1-.25-.16c-.54-.34-2.18-.51-4.91-.51-3,0-4.52.19-4.52.57v10a15.45,15.45,0,0,0,.5,4.62c.21.69,1.63,1,4.27,1h1.65a14.78,14.78,0,0,0,7-1.69,9.29,9.29,0,0,0,2.44-2.2,12.71,12.71,0,0,0,2.1-3.64c0-.25.33-.39.88-.39a3,3,0,0,1,1.88.39,91.2,91.2,0,0,0-3.39,11.15c-2.14,0-5.54,0-10.19-.14s-8.43-.11-11.32-.11l-9.2.38a1.76,1.76,0,0,1-.25-1.09c0-.88.1-1.3.25-1.3A10.07,10.07,0,0,0,174,197c1-.31,1.66-.64,1.78-1a27.92,27.92,0,0,0,.38-5.71v-24.5a23.37,23.37,0,0,0-.38-5.06c-.12-.35-.75-.73-1.86-1.17a8.21,8.21,0,0,0-2.36-.65c-.17,0-.25-.39-.25-1.15A2.28,2.28,0,0,1,171.52,156.51Zm-70.4.14c5.78.26,8.75.38,8.92.38.67,0,3.53-.12,8.57-.38a6.47,6.47,0,0,1,.15,1.36c0,.65,0,1-.15,1-1.94,0-2.91.75-2.91,2.2l.76,2L128,186.94c.21.46.54.36,1-.33l3.89-7.15L126,165.4a25.2,25.2,0,0,0-2.7-4.73A4.94,4.94,0,0,0,119.6,159c-.17,0-.25-.4-.25-1.22s0-1.08.14-1.17l8.74.38c.49,0,3.27-.12,8.31-.38a5.85,5.85,0,0,1,.15,1.36c0,.65,0,1-.15,1a4.16,4.16,0,0,0-1.95.5,1.65,1.65,0,0,0-1,1.59l.76,2,3.64,7.47,3-6.16a11.87,11.87,0,0,0,1.27-3.38q0-.83-1.11-1.32a7.16,7.16,0,0,0-2-.61,9.49,9.49,0,0,0-1.53-.14c-.17,0-.27-.34-.29-1a2.18,2.18,0,0,1,.21-1.3c4,.26,6.54.38,7.5.38.21,0,2.83-.12,7.87-.38a5.73,5.73,0,0,1,.15,1.32c0,.63,0,1-.15,1a6.82,6.82,0,0,0-2.45.62,5.76,5.76,0,0,0-2.15,1.32,25.59,25.59,0,0,0-3.52,5.57l-4.41,8.95,5.48,11.09c.21.45.48.35.82-.24l10.75-22a8.85,8.85,0,0,0,1.13-3.24c0-.72-.55-1.26-1.67-1.59a10.37,10.37,0,0,0-2.79-.48c-.18,0-.25-.34-.29-1a2,2,0,0,1,.23-1.3c4,.26,6.51.38,7.49.38.21,0,2.84-.12,7.86-.38a5,5,0,0,1,.19,1.63c0,.45-.06.7-.19.7a6.87,6.87,0,0,0-2.38.58A6.09,6.09,0,0,0,165,160.8a26,26,0,0,0-3.64,5.69l-15.56,31.85c-.67,1.38-1.37,2.08-2.12,2.08a.71.71,0,0,1-.69-.32l-7.74-15.63-7.57,13.87c-.75,1.38-1.46,2.08-2.13,2.08a.65.65,0,0,1-.57-.32l-17-34.7a31.45,31.45,0,0,0-2.89-5,3.31,3.31,0,0,0-1.73-1,7.31,7.31,0,0,0-2-.37c-.17,0-.25-.4-.25-1.22S101,156.74,101.12,156.65Zm-36.48,6.13a19,19,0,0,1,28.54,0,23.1,23.1,0,0,1,0,31,19.09,19.09,0,0,1-28.54,0,23.22,23.22,0,0,1,0-31ZM40.88,199.56c-5.08-.07-8.51-.11-10.31-.11l-9.19.38a1.58,1.58,0,0,1-.25-1.09c0-.88.07-1.3.25-1.3a10.08,10.08,0,0,0,2.35-.46c1.08-.31,1.67-.64,1.8-1a27.69,27.69,0,0,0,.39-5.71V165.54c0-2.65-.17-4.28-.52-4.87a3.61,3.61,0,0,0-1.76-1.07,6.78,6.78,0,0,0-2.13-.56c-.17,0-.25-.36-.25-1.09a3.36,3.36,0,0,1,.12-1.3c5.78.26,8.83.38,9.12.38.84,0,3.79-.12,8.81-.38a3.63,3.63,0,0,1,.19,1.17c0,.82-.08,1.22-.25,1.22a9.45,9.45,0,0,0-2.26.56c-1.13.36-1.74.71-1.84,1a23.23,23.23,0,0,0-.44,5.2v24.58a15.32,15.32,0,0,0,.52,4.67c.21.69,1.63,1,4.27,1h1.63a14.81,14.81,0,0,0,7-1.69,9.27,9.27,0,0,0,2.43-2.2,12.74,12.74,0,0,0,2.11-3.64c.08-.25.38-.39.88-.39a3,3,0,0,1,1.88.39,91.2,91.2,0,0,0-3.39,11.15C49.69,199.7,46,199.66,40.88,199.56ZM202.1,234.85h-6.91V219.12h6.91c5,0,8.41,3.11,8.41,7.86S207.1,234.85,202.1,234.85Zm22.32,0H220.9V219.12h3.52Zm16.34.27a10.66,10.66,0,0,1-6.2-1.82l1.18-2.74a8.83,8.83,0,0,0,5,1.63c2.09,0,2.93-.71,2.93-1.69,0-2.93-8.85-.92-8.85-6.74,0-2.68,2.09-4.9,6.42-4.9a10,10,0,0,1,5.29,1.39L245.48,223a8.47,8.47,0,0,0-4.22-1.22c-2.09,0-2.89.8-2.89,1.78,0,2.89,8.85.9,8.85,6.67C247.22,232.86,245.11,235.12,240.76,235.12ZM264,230.5h-3.09v4.35h-3.52V219.12H264c4.06,0,6.61,2.19,6.61,5.71S268,230.5,264,230.5Zm28.64,4.35h-11.8V219.12h11.51v2.93h-8v3.42h7.07v2.81h-7.07v3.64h8.3ZM55.48,211.75v-5.18H306v0H563.67v5.18H306v0Zm251.13,13.56v9.54h-3.48V219.12h2.93l7.57,9.54v-9.54h3.48v15.73h-2.89ZM453,196.13a9.12,9.12,0,0,0,8.18-4.67q2.9-4.67,2.89-13.93A22.68,22.68,0,0,0,461,165.44a9.49,9.49,0,0,0-8.46-5h-.33q-5.34,0-6.09,1a7.31,7.31,0,0,0-.83,4.08v25.16c0,2.82.2,4.33.58,4.54Q447.26,196.13,453,196.13Zm-51.43-19.52a2.27,2.27,0,0,0,.83.33,5,5,0,0,0,.94.07H405a4.24,4.24,0,0,0,3.81-2.2,11.15,11.15,0,0,0,1.35-5.84c0-5.75-1.94-8.63-5.85-8.63a5.39,5.39,0,0,0-2.89.52q-.69.52-.75,6.36v7a4.42,4.42,0,0,0,.21,1.55A1.63,1.63,0,0,0,401.56,176.61Zm-20.69,45.48H378v5.48h2.87c2.15,0,3.24-1,3.24-2.74S383,222.09,380.87,222.09Zm-24.48-40.42a45.92,45.92,0,0,0,4.65.21c1.69,0,3.18-.06,4.49-.14l.17-.32-4.52-11.61-4.91,11.61C356.27,181.59,356.31,181.67,356.39,181.67Zm-2.22,47.05H359l-2.41-6Zm-90.4-6.63h-2.89v5.46h2.89c2.15,0,3.24-1,3.24-2.72S265.92,222.09,263.77,222.09Zm-61.84,0h-3.22v9.75h3.22c3,0,5-1.87,5-4.88S205,222.11,201.93,222.11Zm-131-32.41a12,12,0,0,0,3.55,5,8.23,8.23,0,0,0,5.42,1.91c3.14,0,5.5-1.65,7.07-4.92a28.09,28.09,0,0,0,2.35-12.13,40.88,40.88,0,0,0-.53-6.78,29.08,29.08,0,0,0-1.73-6.23,10.85,10.85,0,0,0-3.52-4.79A8.91,8.91,0,0,0,78,160a7,7,0,0,0-5.53,2.49,13.89,13.89,0,0,0-3.07,6.13,39,39,0,0,0-.25,14.81A33.28,33.28,0,0,0,70.94,189.7Zm285.64,33-2.41,6H359Zm24.29-.62H378v5.48h2.87c2.15,0,3.24-1,3.24-2.74S383,222.09,380.87,222.09ZM461,165.44a9.49,9.49,0,0,0-8.46-5h-.33q-5.34,0-6.09,1a7.31,7.31,0,0,0-.83,4.08v25.16c0,2.82.2,4.33.58,4.54q1.38.84,7.11.84a9.12,9.12,0,0,0,8.18-4.67q2.9-4.67,2.89-13.93A22.68,22.68,0,0,0,461,165.44Zm-56.67-5.1a5.39,5.39,0,0,0-2.89.52q-.69.52-.75,6.36v7a4.42,4.42,0,0,0,.21,1.55,1.63,1.63,0,0,0,.65.84,2.27,2.27,0,0,0,.83.33,5,5,0,0,0,.94.07H405a4.24,4.24,0,0,0,3.81-2.2,11.15,11.15,0,0,0,1.35-5.84C410.19,163.22,408.25,160.34,404.34,160.34Zm-43.16,9.47-4.91,11.61c0,.17,0,.25.12.25a45.92,45.92,0,0,0,4.65.21c1.69,0,3.18-.06,4.49-.14l.17-.32Zm-272.38,3a29.08,29.08,0,0,0-1.73-6.23,10.85,10.85,0,0,0-3.52-4.79A8.91,8.91,0,0,0,78,160a7,7,0,0,0-5.53,2.49,13.89,13.89,0,0,0-3.07,6.13,39,39,0,0,0-.25,14.81,33.28,33.28,0,0,0,1.84,6.29,12,12,0,0,0,3.55,5,8.23,8.23,0,0,0,5.42,1.91c3.14,0,5.5-1.65,7.07-4.92a28.09,28.09,0,0,0,2.35-12.13A40.88,40.88,0,0,0,88.8,172.78Zm113.13,49.33h-3.22v9.75h3.22c3,0,5-1.87,5-4.88S205,222.11,201.93,222.11Zm61.84,0h-2.89v5.46h2.89c2.15,0,3.24-1,3.24-2.72S265.92,222.09,263.77,222.09ZM461,165.44a9.49,9.49,0,0,0-8.46-5h-.33q-5.34,0-6.09,1a7.31,7.31,0,0,0-.83,4.08v25.16c0,2.82.2,4.33.58,4.54q1.38.84,7.11.84a9.12,9.12,0,0,0,8.18-4.67q2.9-4.67,2.89-13.93A22.68,22.68,0,0,0,461,165.44Zm-56.67-5.1a5.39,5.39,0,0,0-2.89.52q-.69.52-.75,6.36v7a4.42,4.42,0,0,0,.21,1.55,1.63,1.63,0,0,0,.65.84,2.27,2.27,0,0,0,.83.33,5,5,0,0,0,.94.07H405a4.24,4.24,0,0,0,3.81-2.2,11.15,11.15,0,0,0,1.35-5.84C410.19,163.22,408.25,160.34,404.34,160.34Zm-23.47,61.75H378v5.48h2.87c2.15,0,3.24-1,3.24-2.74S383,222.09,380.87,222.09Zm-19.69-52.28-4.91,11.61c0,.17,0,.25.12.25a45.92,45.92,0,0,0,4.65.21c1.69,0,3.18-.06,4.49-.14l.17-.32Zm-4.6,52.9-2.41,6H359Zm-92.81-.62h-2.89v5.46h2.89c2.15,0,3.24-1,3.24-2.72S265.92,222.09,263.77,222.09Zm-61.84,0h-3.22v9.75h3.22c3,0,5-1.87,5-4.88S205,222.11,201.93,222.11ZM88.8,172.78a29.08,29.08,0,0,0-1.73-6.23,10.85,10.85,0,0,0-3.52-4.79A8.91,8.91,0,0,0,78,160a7,7,0,0,0-5.53,2.49,13.89,13.89,0,0,0-3.07,6.13,39,39,0,0,0-.25,14.81,33.28,33.28,0,0,0,1.84,6.29,12,12,0,0,0,3.55,5,8.23,8.23,0,0,0,5.42,1.91c3.14,0,5.5-1.65,7.07-4.92a28.09,28.09,0,0,0,2.35-12.13A40.88,40.88,0,0,0,88.8,172.78ZM461,165.44a9.49,9.49,0,0,0-8.46-5h-.33q-5.34,0-6.09,1a7.31,7.31,0,0,0-.83,4.08v25.16c0,2.82.2,4.33.58,4.54q1.38.84,7.11.84a9.12,9.12,0,0,0,8.18-4.67q2.9-4.67,2.89-13.93A22.68,22.68,0,0,0,461,165.44Zm-56.67-5.1a5.39,5.39,0,0,0-2.89.52q-.69.52-.75,6.36v7a4.42,4.42,0,0,0,.21,1.55,1.63,1.63,0,0,0,.65.84,2.27,2.27,0,0,0,.83.33,5,5,0,0,0,.94.07H405a4.24,4.24,0,0,0,3.81-2.2,11.15,11.15,0,0,0,1.35-5.84C410.19,163.22,408.25,160.34,404.34,160.34Zm-43.16,9.47-4.91,11.61c0,.17,0,.25.12.25a45.92,45.92,0,0,0,4.65.21c1.69,0,3.18-.06,4.49-.14l.17-.32Zm-272.38,3a29.08,29.08,0,0,0-1.73-6.23,10.85,10.85,0,0,0-3.52-4.79A8.91,8.91,0,0,0,78,160a7,7,0,0,0-5.53,2.49,13.89,13.89,0,0,0-3.07,6.13,39,39,0,0,0-.25,14.81,33.28,33.28,0,0,0,1.84,6.29,12,12,0,0,0,3.55,5,8.23,8.23,0,0,0,5.42,1.91c3.14,0,5.5-1.65,7.07-4.92a28.09,28.09,0,0,0,2.35-12.13A40.88,40.88,0,0,0,88.8,172.78Zm113.13,49.33h-3.22v9.75h3.22c3,0,5-1.87,5-4.88S205,222.11,201.93,222.11Zm61.84,0h-2.89v5.46h2.89c2.15,0,3.24-1,3.24-2.72S265.92,222.09,263.77,222.09ZM461,165.44a9.49,9.49,0,0,0-8.46-5h-.33q-5.34,0-6.09,1a7.31,7.31,0,0,0-.83,4.08v25.16c0,2.82.2,4.33.58,4.54q1.38.84,7.11.84a9.12,9.12,0,0,0,8.18-4.67q2.9-4.67,2.89-13.93A22.68,22.68,0,0,0,461,165.44Zm-56.67-5.1a5.39,5.39,0,0,0-2.89.52q-.69.52-.75,6.36v7a4.42,4.42,0,0,0,.21,1.55,1.63,1.63,0,0,0,.65.84,2.27,2.27,0,0,0,.83.33,5,5,0,0,0,.94.07H405a4.24,4.24,0,0,0,3.81-2.2,11.15,11.15,0,0,0,1.35-5.84C410.19,163.22,408.25,160.34,404.34,160.34Zm-43.16,9.47-4.91,11.61c0,.17,0,.25.12.25a45.92,45.92,0,0,0,4.65.21c1.69,0,3.18-.06,4.49-.14l.17-.32Zm-97.41,52.28h-2.89v5.46h2.89c2.15,0,3.24-1,3.24-2.72S265.92,222.09,263.77,222.09Zm-61.84,0h-3.22v9.75h3.22c3,0,5-1.87,5-4.88S205,222.11,201.93,222.11ZM88.8,172.78a29.08,29.08,0,0,0-1.73-6.23,10.85,10.85,0,0,0-3.52-4.79A8.91,8.91,0,0,0,78,160a7,7,0,0,0-5.53,2.49,13.89,13.89,0,0,0-3.07,6.13,39,39,0,0,0-.25,14.81,33.28,33.28,0,0,0,1.84,6.29,12,12,0,0,0,3.55,5,8.23,8.23,0,0,0,5.42,1.91c3.14,0,5.5-1.65,7.07-4.92a28.09,28.09,0,0,0,2.35-12.13A40.88,40.88,0,0,0,88.8,172.78ZM461,165.44a9.49,9.49,0,0,0-8.46-5h-.33q-5.34,0-6.09,1a7.31,7.31,0,0,0-.83,4.08v25.16c0,2.82.2,4.33.58,4.54q1.38.84,7.11.84a9.12,9.12,0,0,0,8.18-4.67q2.9-4.67,2.89-13.93A22.68,22.68,0,0,0,461,165.44Zm-56.67-5.1a5.39,5.39,0,0,0-2.89.52q-.69.52-.75,6.36v7a4.42,4.42,0,0,0,.21,1.55,1.63,1.63,0,0,0,.65.84,2.27,2.27,0,0,0,.83.33,5,5,0,0,0,.94.07H405a4.24,4.24,0,0,0,3.81-2.2,11.15,11.15,0,0,0,1.35-5.84C410.19,163.22,408.25,160.34,404.34,160.34Zm-43.16,9.47-4.91,11.61c0,.17,0,.25.12.25a45.92,45.92,0,0,0,4.65.21c1.69,0,3.18-.06,4.49-.14l.17-.32Zm-272.38,3a29.08,29.08,0,0,0-1.73-6.23,10.85,10.85,0,0,0-3.52-4.79A8.91,8.91,0,0,0,78,160a7,7,0,0,0-5.53,2.49,13.89,13.89,0,0,0-3.07,6.13,39,39,0,0,0-.25,14.81,33.28,33.28,0,0,0,1.84,6.29,12,12,0,0,0,3.55,5,8.23,8.23,0,0,0,5.42,1.91c3.14,0,5.5-1.65,7.07-4.92a28.09,28.09,0,0,0,2.35-12.13A40.88,40.88,0,0,0,88.8,172.78Zm113.13,49.33h-3.22v9.75h3.22c3,0,5-1.87,5-4.88S205,222.11,201.93,222.11Zm61.84,0h-2.89v5.46h2.89c2.15,0,3.24-1,3.24-2.72S265.92,222.09,263.77,222.09ZM461,165.44a9.49,9.49,0,0,0-8.46-5h-.33q-5.34,0-6.09,1a7.31,7.31,0,0,0-.83,4.08v25.16c0,2.82.2,4.33.58,4.54q1.38.84,7.11.84a9.12,9.12,0,0,0,8.18-4.67q2.9-4.67,2.89-13.93A22.68,22.68,0,0,0,461,165.44Zm-56.67-5.1a5.39,5.39,0,0,0-2.89.52q-.69.52-.75,6.36v7a4.42,4.42,0,0,0,.21,1.55,1.63,1.63,0,0,0,.65.84,2.27,2.27,0,0,0,.83.33,5,5,0,0,0,.94.07H405a4.24,4.24,0,0,0,3.81-2.2,11.15,11.15,0,0,0,1.35-5.84C410.19,163.22,408.25,160.34,404.34,160.34Zm-43.16,9.47-4.91,11.61c0,.17,0,.25.12.25a45.92,45.92,0,0,0,4.65.21c1.69,0,3.18-.06,4.49-.14l.17-.32Zm-97.41,52.28h-2.89v5.46h2.89c2.15,0,3.24-1,3.24-2.72S265.92,222.09,263.77,222.09Zm-61.84,0h-3.22v9.75h3.22c3,0,5-1.87,5-4.88S205,222.11,201.93,222.11ZM88.8,172.78a29.08,29.08,0,0,0-1.73-6.23,10.85,10.85,0,0,0-3.52-4.79A8.91,8.91,0,0,0,78,160a7,7,0,0,0-5.53,2.49,13.89,13.89,0,0,0-3.07,6.13,39,39,0,0,0-.25,14.81,33.28,33.28,0,0,0,1.84,6.29,12,12,0,0,0,3.55,5,8.23,8.23,0,0,0,5.42,1.91c3.14,0,5.5-1.65,7.07-4.92a28.09,28.09,0,0,0,2.35-12.13A40.88,40.88,0,0,0,88.8,172.78ZM461,165.44a9.49,9.49,0,0,0-8.46-5h-.33q-5.34,0-6.09,1a7.31,7.31,0,0,0-.83,4.08v25.16c0,2.82.2,4.33.58,4.54q1.38.84,7.11.84a9.12,9.12,0,0,0,8.18-4.67q2.9-4.67,2.89-13.93A22.68,22.68,0,0,0,461,165.44Zm-56.67-5.1a5.39,5.39,0,0,0-2.89.52q-.69.52-.75,6.36v7a4.42,4.42,0,0,0,.21,1.55,1.63,1.63,0,0,0,.65.84,2.27,2.27,0,0,0,.83.33,5,5,0,0,0,.94.07H405a4.24,4.24,0,0,0,3.81-2.2,11.15,11.15,0,0,0,1.35-5.84C410.19,163.22,408.25,160.34,404.34,160.34Zm-43.16,9.47-4.91,11.61c0,.17,0,.25.12.25a45.92,45.92,0,0,0,4.65.21c1.69,0,3.18-.06,4.49-.14l.17-.32Zm-272.38,3a29.08,29.08,0,0,0-1.73-6.23,10.85,10.85,0,0,0-3.52-4.79A8.91,8.91,0,0,0,78,160a7,7,0,0,0-5.53,2.49,13.89,13.89,0,0,0-3.07,6.13,39,39,0,0,0-.25,14.81,33.28,33.28,0,0,0,1.84,6.29,12,12,0,0,0,3.55,5,8.23,8.23,0,0,0,5.42,1.91c3.14,0,5.5-1.65,7.07-4.92a28.09,28.09,0,0,0,2.35-12.13A40.88,40.88,0,0,0,88.8,172.78Zm113.13,49.33h-3.22v9.75h3.22c3,0,5-1.87,5-4.88S205,222.11,201.93,222.11ZM461,165.44a9.49,9.49,0,0,0-8.46-5h-.33q-5.34,0-6.09,1a7.31,7.31,0,0,0-.83,4.08v25.16c0,2.82.2,4.33.58,4.54q1.38.84,7.11.84a9.12,9.12,0,0,0,8.18-4.67q2.9-4.67,2.89-13.93A22.68,22.68,0,0,0,461,165.44Zm-56.67-5.1a5.39,5.39,0,0,0-2.89.52q-.69.52-.75,6.36v7a4.42,4.42,0,0,0,.21,1.55,1.63,1.63,0,0,0,.65.84,2.27,2.27,0,0,0,.83.33,5,5,0,0,0,.94.07H405a4.24,4.24,0,0,0,3.81-2.2,11.15,11.15,0,0,0,1.35-5.84C410.19,163.22,408.25,160.34,404.34,160.34Zm-43.16,9.47-4.91,11.61c0,.17,0,.25.12.25a45.92,45.92,0,0,0,4.65.21c1.69,0,3.18-.06,4.49-.14l.17-.32Zm-159.25,52.3h-3.22v9.75h3.22c3,0,5-1.87,5-4.88S205,222.11,201.93,222.11ZM88.8,172.78a29.08,29.08,0,0,0-1.73-6.23,10.85,10.85,0,0,0-3.52-4.79A8.91,8.91,0,0,0,78,160a7,7,0,0,0-5.53,2.49,13.89,13.89,0,0,0-3.07,6.13,39,39,0,0,0-.25,14.81,33.28,33.28,0,0,0,1.84,6.29,12,12,0,0,0,3.55,5,8.23,8.23,0,0,0,5.42,1.91c3.14,0,5.5-1.65,7.07-4.92a28.09,28.09,0,0,0,2.35-12.13A40.88,40.88,0,0,0,88.8,172.78ZM461,165.44a9.49,9.49,0,0,0-8.46-5h-.33q-5.34,0-6.09,1a7.31,7.31,0,0,0-.83,4.08v25.16c0,2.82.2,4.33.58,4.54q1.38.84,7.11.84a9.12,9.12,0,0,0,8.18-4.67q2.9-4.67,2.89-13.93A22.68,22.68,0,0,0,461,165.44Zm-56.67-5.1a5.39,5.39,0,0,0-2.89.52q-.69.52-.75,6.36v7a4.42,4.42,0,0,0,.21,1.55,1.63,1.63,0,0,0,.65.84,2.27,2.27,0,0,0,.83.33,5,5,0,0,0,.94.07H405a4.24,4.24,0,0,0,3.81-2.2,11.15,11.15,0,0,0,1.35-5.84C410.19,163.22,408.25,160.34,404.34,160.34Zm-43.16,9.47-4.91,11.61c0,.17,0,.25.12.25a45.92,45.92,0,0,0,4.65.21c1.69,0,3.18-.06,4.49-.14l.17-.32Zm-272.38,3a29.08,29.08,0,0,0-1.73-6.23,10.85,10.85,0,0,0-3.52-4.79A8.91,8.91,0,0,0,78,160a7,7,0,0,0-5.53,2.49,13.89,13.89,0,0,0-3.07,6.13,39,39,0,0,0-.25,14.81,33.28,33.28,0,0,0,1.84,6.29,12,12,0,0,0,3.55,5,8.23,8.23,0,0,0,5.42,1.91c3.14,0,5.5-1.65,7.07-4.92a28.09,28.09,0,0,0,2.35-12.13A40.88,40.88,0,0,0,88.8,172.78Zm113.13,49.33h-3.22v9.75h3.22c3,0,5-1.87,5-4.88S205,222.11,201.93,222.11ZM461,165.44a9.49,9.49,0,0,0-8.46-5h-.33q-5.34,0-6.09,1a7.31,7.31,0,0,0-.83,4.08v25.16c0,2.82.2,4.33.58,4.54q1.38.84,7.11.84a9.12,9.12,0,0,0,8.18-4.67q2.9-4.67,2.89-13.93A22.68,22.68,0,0,0,461,165.44Zm-56.67-5.1a5.39,5.39,0,0,0-2.89.52q-.69.52-.75,6.36v7a4.42,4.42,0,0,0,.21,1.55,1.63,1.63,0,0,0,.65.84,2.27,2.27,0,0,0,.83.33,5,5,0,0,0,.94.07H405a4.24,4.24,0,0,0,3.81-2.2,11.15,11.15,0,0,0,1.35-5.84C410.19,163.22,408.25,160.34,404.34,160.34Zm-43.16,9.47-4.91,11.61c0,.17,0,.25.12.25a45.92,45.92,0,0,0,4.65.21c1.69,0,3.18-.06,4.49-.14l.17-.32Zm-159.25,52.3h-3.22v9.75h3.22c3,0,5-1.87,5-4.88S205,222.11,201.93,222.11ZM88.8,172.78a29.08,29.08,0,0,0-1.73-6.23,10.85,10.85,0,0,0-3.52-4.79A8.91,8.91,0,0,0,78,160a7,7,0,0,0-5.53,2.49,13.89,13.89,0,0,0-3.07,6.13,39,39,0,0,0-.25,14.81,33.28,33.28,0,0,0,1.84,6.29,12,12,0,0,0,3.55,5,8.23,8.23,0,0,0,5.42,1.91c3.14,0,5.5-1.65,7.07-4.92a28.09,28.09,0,0,0,2.35-12.13A40.88,40.88,0,0,0,88.8,172.78ZM461,165.44a9.49,9.49,0,0,0-8.46-5h-.33q-5.34,0-6.09,1a7.31,7.31,0,0,0-.83,4.08v25.16c0,2.82.2,4.33.58,4.54q1.38.84,7.11.84a9.12,9.12,0,0,0,8.18-4.67q2.9-4.67,2.89-13.93A22.68,22.68,0,0,0,461,165.44Zm-56.67-5.1a5.39,5.39,0,0,0-2.89.52q-.69.52-.75,6.36v7a4.42,4.42,0,0,0,.21,1.55,1.63,1.63,0,0,0,.65.84,2.27,2.27,0,0,0,.83.33,5,5,0,0,0,.94.07H405a4.24,4.24,0,0,0,3.81-2.2,11.15,11.15,0,0,0,1.35-5.84C410.19,163.22,408.25,160.34,404.34,160.34Zm-43.16,9.47-4.91,11.61c0,.17,0,.25.12.25a45.92,45.92,0,0,0,4.65.21c1.69,0,3.18-.06,4.49-.14l.17-.32Zm-272.38,3a29.08,29.08,0,0,0-1.73-6.23,10.85,10.85,0,0,0-3.52-4.79A8.91,8.91,0,0,0,78,160a7,7,0,0,0-5.53,2.49,13.89,13.89,0,0,0-3.07,6.13,39,39,0,0,0-.25,14.81,33.28,33.28,0,0,0,1.84,6.29,12,12,0,0,0,3.55,5,8.23,8.23,0,0,0,5.42,1.91c3.14,0,5.5-1.65,7.07-4.92a28.09,28.09,0,0,0,2.35-12.13A40.88,40.88,0,0,0,88.8,172.78ZM461,165.44a9.49,9.49,0,0,0-8.46-5h-.33q-5.34,0-6.09,1a7.31,7.31,0,0,0-.83,4.08v25.16c0,2.82.2,4.33.58,4.54q1.38.84,7.11.84a9.12,9.12,0,0,0,8.18-4.67q2.9-4.67,2.89-13.93A22.68,22.68,0,0,0,461,165.44Zm-56.67-5.1a5.39,5.39,0,0,0-2.89.52q-.69.52-.75,6.36v7a4.42,4.42,0,0,0,.21,1.55,1.63,1.63,0,0,0,.65.84,2.27,2.27,0,0,0,.83.33,5,5,0,0,0,.94.07H405a4.24,4.24,0,0,0,3.81-2.2,11.15,11.15,0,0,0,1.35-5.84C410.19,163.22,408.25,160.34,404.34,160.34Zm-43.16,9.47-4.91,11.61c0,.17,0,.25.12.25a45.92,45.92,0,0,0,4.65.21c1.69,0,3.18-.06,4.49-.14l.17-.32Zm-272.38,3a29.08,29.08,0,0,0-1.73-6.23,10.85,10.85,0,0,0-3.52-4.79A8.91,8.91,0,0,0,78,160a7,7,0,0,0-5.53,2.49,13.89,13.89,0,0,0-3.07,6.13,39,39,0,0,0-.25,14.81,33.28,33.28,0,0,0,1.84,6.29,12,12,0,0,0,3.55,5,8.23,8.23,0,0,0,5.42,1.91c3.14,0,5.5-1.65,7.07-4.92a28.09,28.09,0,0,0,2.35-12.13A40.88,40.88,0,0,0,88.8,172.78Zm315.54-12.44a5.39,5.39,0,0,0-2.89.52q-.69.52-.75,6.36v7a4.42,4.42,0,0,0,.21,1.55,1.63,1.63,0,0,0,.65.84,2.27,2.27,0,0,0,.83.33,5,5,0,0,0,.94.07H405a4.24,4.24,0,0,0,3.81-2.2,11.15,11.15,0,0,0,1.35-5.84C410.19,163.22,408.25,160.34,404.34,160.34Zm-43.16,9.47-4.91,11.61c0,.17,0,.25.12.25a45.92,45.92,0,0,0,4.65.21c1.69,0,3.18-.06,4.49-.14l.17-.32Zm-272.38,3a29.08,29.08,0,0,0-1.73-6.23,10.85,10.85,0,0,0-3.52-4.79A8.91,8.91,0,0,0,78,160a7,7,0,0,0-5.53,2.49,13.89,13.89,0,0,0-3.07,6.13,39,39,0,0,0-.25,14.81,33.28,33.28,0,0,0,1.84,6.29,12,12,0,0,0,3.55,5,8.23,8.23,0,0,0,5.42,1.91c3.14,0,5.5-1.65,7.07-4.92a28.09,28.09,0,0,0,2.35-12.13A40.88,40.88,0,0,0,88.8,172.78Zm315.54-12.44a5.39,5.39,0,0,0-2.89.52q-.69.52-.75,6.36v7a4.42,4.42,0,0,0,.21,1.55,1.63,1.63,0,0,0,.65.84,2.27,2.27,0,0,0,.83.33,5,5,0,0,0,.94.07H405a4.24,4.24,0,0,0,3.81-2.2,11.15,11.15,0,0,0,1.35-5.84C410.19,163.22,408.25,160.34,404.34,160.34Zm-43.16,9.47-4.91,11.61c0,.17,0,.25.12.25a45.92,45.92,0,0,0,4.65.21c1.69,0,3.18-.06,4.49-.14l.17-.32Zm-272.38,3a29.08,29.08,0,0,0-1.73-6.23,10.85,10.85,0,0,0-3.52-4.79A8.91,8.91,0,0,0,78,160a7,7,0,0,0-5.53,2.49,13.89,13.89,0,0,0-3.07,6.13,39,39,0,0,0-.25,14.81,33.28,33.28,0,0,0,1.84,6.29,12,12,0,0,0,3.55,5,8.23,8.23,0,0,0,5.42,1.91c3.14,0,5.5-1.65,7.07-4.92a28.09,28.09,0,0,0,2.35-12.13A40.88,40.88,0,0,0,88.8,172.78Zm0,0a29.08,29.08,0,0,0-1.73-6.23,10.85,10.85,0,0,0-3.52-4.79A8.91,8.91,0,0,0,78,160a7,7,0,0,0-5.53,2.49,13.89,13.89,0,0,0-3.07,6.13,39,39,0,0,0-.25,14.81,33.28,33.28,0,0,0,1.84,6.29,12,12,0,0,0,3.55,5,8.23,8.23,0,0,0,5.42,1.91c3.14,0,5.5-1.65,7.07-4.92a28.09,28.09,0,0,0,2.35-12.13A40.88,40.88,0,0,0,88.8,172.78Zm0,0a29.08,29.08,0,0,0-1.73-6.23,10.85,10.85,0,0,0-3.52-4.79A8.91,8.91,0,0,0,78,160a7,7,0,0,0-5.53,2.49,13.89,13.89,0,0,0-3.07,6.13,39,39,0,0,0-.25,14.81,33.28,33.28,0,0,0,1.84,6.29,12,12,0,0,0,3.55,5,8.23,8.23,0,0,0,5.42,1.91c3.14,0,5.5-1.65,7.07-4.92a28.09,28.09,0,0,0,2.35-12.13A40.88,40.88,0,0,0,88.8,172.78Zm0,0a29.08,29.08,0,0,0-1.73-6.23,10.85,10.85,0,0,0-3.52-4.79A8.91,8.91,0,0,0,78,160a7,7,0,0,0-5.53,2.49,13.89,13.89,0,0,0-3.07,6.13,39,39,0,0,0-.25,14.81,33.28,33.28,0,0,0,1.84,6.29,12,12,0,0,0,3.55,5,8.23,8.23,0,0,0,5.42,1.91c3.14,0,5.5-1.65,7.07-4.92a28.09,28.09,0,0,0,2.35-12.13A40.88,40.88,0,0,0,88.8,172.78Zm0,0a29.08,29.08,0,0,0-1.73-6.23,10.85,10.85,0,0,0-3.52-4.79A8.91,8.91,0,0,0,78,160a7,7,0,0,0-5.53,2.49,13.89,13.89,0,0,0-3.07,6.13,39,39,0,0,0-.25,14.81,33.28,33.28,0,0,0,1.84,6.29,12,12,0,0,0,3.55,5,8.23,8.23,0,0,0,5.42,1.91c3.14,0,5.5-1.65,7.07-4.92a28.09,28.09,0,0,0,2.35-12.13A40.88,40.88,0,0,0,88.8,172.78Zm0,0a29.08,29.08,0,0,0-1.73-6.23,10.85,10.85,0,0,0-3.52-4.79A8.91,8.91,0,0,0,78,160a7,7,0,0,0-5.53,2.49,13.89,13.89,0,0,0-3.07,6.13,39,39,0,0,0-.25,14.81,33.28,33.28,0,0,0,1.84,6.29,12,12,0,0,0,3.55,5,8.23,8.23,0,0,0,5.42,1.91c3.14,0,5.5-1.65,7.07-4.92a28.09,28.09,0,0,0,2.35-12.13A40.88,40.88,0,0,0,88.8,172.78Zm0,0a29.08,29.08,0,0,0-1.73-6.23,10.85,10.85,0,0,0-3.52-4.79A8.91,8.91,0,0,0,78,160a7,7,0,0,0-5.53,2.49,13.89,13.89,0,0,0-3.07,6.13,39,39,0,0,0-.25,14.81,33.28,33.28,0,0,0,1.84,6.29,12,12,0,0,0,3.55,5,8.23,8.23,0,0,0,5.42,1.91c3.14,0,5.5-1.65,7.07-4.92a28.09,28.09,0,0,0,2.35-12.13A40.88,40.88,0,0,0,88.8,172.78Zm0,0a29.08,29.08,0,0,0-1.73-6.23,10.85,10.85,0,0,0-3.52-4.79A8.91,8.91,0,0,0,78,160a7,7,0,0,0-5.53,2.49,13.89,13.89,0,0,0-3.07,6.13,39,39,0,0,0-.25,14.81,33.28,33.28,0,0,0,1.84,6.29,12,12,0,0,0,3.55,5,8.23,8.23,0,0,0,5.42,1.91c3.14,0,5.5-1.65,7.07-4.92a28.09,28.09,0,0,0,2.35-12.13A40.88,40.88,0,0,0,88.8,172.78Zm0,0a29.08,29.08,0,0,0-1.73-6.23,10.85,10.85,0,0,0-3.52-4.79A8.91,8.91,0,0,0,78,160a7,7,0,0,0-5.53,2.49,13.89,13.89,0,0,0-3.07,6.13,39,39,0,0,0-.25,14.81,33.28,33.28,0,0,0,1.84,6.29,12,12,0,0,0,3.55,5,8.23,8.23,0,0,0,5.42,1.91c3.14,0,5.5-1.65,7.07-4.92a28.09,28.09,0,0,0,2.35-12.13A40.88,40.88,0,0,0,88.8,172.78Z" transform="translate(-7.77 -92.2)"/></svg>