<?xml version="1.0" encoding="UTF-8"?><svg id="b" xmlns="http://www.w3.org/2000/svg" viewBox="0 0 156 85"><defs><style>.c{fill:#d9ab73;}.d{fill:#181818;}.e{fill:none;stroke:#d9ab73;stroke-miterlimit:10;}</style></defs><rect class="c" x="1.9605" y="34.2082" width="152.0789" height="26.0194"/><path class="d" d="m20.6548,44.4326c-.2935-.54-.7144-.9531-1.2622-1.2393-.5483-.2852-1.1929-.4282-1.9341-.4282-1.2817,0-2.3081.4204-3.0801,1.2622s-1.1577,1.9648-1.1577,3.3691c0,1.498.4053,2.668,1.2158,3.5088.8105.8418,1.9258,1.2627,3.3462,1.2627.9727,0,1.7949-.2471,2.4668-.7412.6714-.4941,1.1611-1.2041,1.4702-2.1309h-5.0254v-2.918h8.6152v3.6826c-.2935.9883-.7915,1.9062-1.4937,2.7559-.7026.8486-1.5947,1.5361-2.6748,2.0605-1.0811.5254-2.3008.7881-3.6592.7881-1.606,0-3.0381-.3516-4.2959-1.0537-1.2588-.7031-2.2388-1.6797-2.9414-2.9297-.7026-1.251-1.0537-2.6787-1.0537-4.2852,0-1.6055.3511-3.0371,1.0537-4.2959.7026-1.2578,1.6792-2.2383,2.9297-2.9409,1.2505-.7021,2.6782-1.0537,4.2842-1.0537,1.9453,0,3.5859.4712,4.9214,1.4126,1.3354.9424,2.2192,2.2466,2.6519,3.9141h-4.377Z"/><path class="d" d="m42.2617,52.6768h-6.0674l-.9727,2.8721h-4.1455l5.8823-16.2573h4.5854l5.8823,16.2573h-4.1919l-.9727-2.8721Zm-1.019-3.0566l-2.0146-5.9521-1.9917,5.9521h4.0063Z"/><path class="d" d="m62.1318,55.5488l-3.3809-6.1367h-.9497v6.1367h-3.96v-16.2573h6.6465c1.2812,0,2.3735.2236,3.2769.6714.9033.4482,1.5786,1.062,2.0264,1.8413.4478.7798.6719,1.6479.6719,2.605,0,1.0811-.3052,2.0459-.915,2.8945-.6099.8496-1.5093,1.4521-2.6978,1.8066l3.7515,6.4385h-4.4697Zm-4.3306-8.9395h2.4546c.7256,0,1.27-.1777,1.6328-.5332.3628-.3545.5444-.8564.5444-1.5049,0-.6172-.1816-1.1035-.5444-1.459-.3628-.3545-.9072-.5322-1.6328-.5322h-2.4546v4.0293Z"/><path class="d" d="m84.1553,40.3105c1.2812.6792,2.2734,1.6323,2.9766,2.8594.7012,1.2275,1.0527,2.6445,1.0527,4.25,0,1.5908-.3516,3.0029-1.0527,4.2383-.7031,1.2354-1.6992,2.1924-2.9883,2.8721-1.2891.6787-2.7832,1.0186-4.4805,1.0186h-6.0908v-16.2573h6.0908c1.7129,0,3.2109.3398,4.4922,1.019Zm-1.25,10.583c.834-.8174,1.25-1.9756,1.25-3.4736,0-1.4971-.416-2.6631-1.25-3.4971s-2-1.2505-3.498-1.2505h-1.875v9.4487h1.875c1.498,0,2.6641-.4082,3.498-1.2275Z"/><path class="d" d="m99,42.4644v3.2876h5.3037v3.0576h-5.3037v3.5664h5.999v3.1729h-9.959v-16.2573h9.959v3.1729h-5.999Z"/><path class="d" d="m126.7441,55.5488h-3.96l-6.624-10.0283v10.0283h-3.96v-16.2573h3.96l6.624,10.0737v-10.0737h3.96v16.2573Z"/><path class="d" d="m136.9336,55.1318c-.9414-.3857-1.6943-.957-2.2578-1.7139-.5635-.7559-.8604-1.667-.8916-2.7324h4.2148c.0615.6025.2695,1.0615.625,1.3779s.8184.4746,1.3896.4746c.5869,0,1.0498-.1348,1.3896-.4053.3398-.2695.5098-.6445.5098-1.123,0-.4014-.1357-.7334-.4053-.9961-.2705-.2617-.6025-.4785-.9961-.6484s-.9531-.3623-1.6787-.5791c-1.0508-.3242-1.9072-.6484-2.5713-.9727-.6631-.3242-1.2354-.8027-1.7129-1.4355-.4795-.6328-.7188-1.459-.7188-2.4785,0-1.5122.5479-2.6973,1.6445-3.5542s2.5244-1.2856,4.2842-1.2856c1.791,0,3.2344.4287,4.3311,1.2856,1.0957.8569,1.6826,2.0493,1.7598,3.5776h-4.2842c-.0312-.5244-.2236-.9375-.5791-1.2388-.3555-.3008-.8105-.4517-1.3662-.4517-.4785,0-.8652.1274-1.1582.3823s-.4395.6216-.4395,1.1001c0,.5244.2461.9336.7412,1.2266.4932.2939,1.2656.6104,2.3154.9502,1.0498.3555,1.9023.6943,2.5596,1.0186.6553.3242,1.2227.7959,1.7021,1.4131.4775.6182.7178,1.4131.7178,2.3857,0,.9258-.2354,1.7676-.707,2.5244-.4707.7559-1.1543,1.3584-2.0488,1.8057-.8955.4482-1.9531.6719-3.1729.6719-1.1895,0-2.2549-.1924-3.1963-.5791Z"/><path class="c" d="m47.3682,66.3955c.2827-.5117.6768-.9111,1.1821-1.1963.5059-.2861,1.0786-.4287,1.7192-.4287.7852,0,1.457.207,2.0161.6211.5591.415.9326.9805,1.1211,1.6963h-1.771c-.1318-.2764-.3188-.4863-.5605-.6318-.2417-.1436-.5166-.2158-.8242-.2158-.4961,0-.8984.1729-1.2061.5176-.3076.3457-.4614.8076-.4614,1.3848,0,.5781.1538,1.04.4614,1.3848.3076.3457.71.5186,1.2061.5186.3076,0,.5825-.0723.8242-.2168s.4287-.3545.5605-.6309h1.771c-.1885.7158-.562,1.2793-1.1211,1.6904-.5591.4121-1.231.6172-2.0161.6172-.6406,0-1.2134-.1426-1.7192-.4287-.5054-.2852-.8994-.6826-1.1821-1.1914s-.4238-1.0898-.4238-1.7432.1411-1.2354.4238-1.7471Z"/><path class="c" d="m60.3975,70.291h-2.4683l-.396,1.168h-1.686l2.3926-6.6133h1.8657l2.3926,6.6133h-1.7051l-.3955-1.168Zm-.4146-1.2441l-.8198-2.4209-.8101,2.4209h1.6299Z"/><path class="c" d="m71.0239,71.459h-1.6113l-2.6943-4.0791v4.0791h-1.6108v-6.6133h1.6108l2.6943,4.0977v-4.0977h1.6113v6.6133Z"/><path class="c" d="m79.9922,71.459h-1.6108l-2.6943-4.0791v4.0791h-1.6108v-6.6133h1.6108l2.6943,4.0977v-4.0977h1.6108v6.6133Z"/><path class="c" d="m87.1621,70.291h-2.4688l-.3955,1.168h-1.6865l2.3936-6.6133h1.8652l2.3926,6.6133h-1.7051l-.3955-1.168Zm-.415-1.2441l-.8193-2.4209-.8105,2.4209h1.6299Z"/><path class="c" d="m96.7988,68.6377c.2324.2979.3486.6387.3486,1.0215,0,.5527-.1924.9912-.5791,1.3145-.3857.3232-.9248.4854-1.6152.4854h-3.0811v-6.6133h2.9775c.6719,0,1.1973.1543,1.5771.4619s.5703.7246.5703,1.2529c0,.3887-.1025.7129-.3057.9697-.2051.2578-.4766.4365-.8154.5371.3828.082.6904.2715.9229.5703Zm-3.3154-1.1162h1.0547c.2637,0,.4668-.0586.6074-.1748.1416-.1162.2119-.2871.2119-.5137,0-.2256-.0703-.3984-.2119-.5176-.1406-.1191-.3438-.1797-.6074-.1797h-1.0547v1.3857Zm1.8135,2.4541c.1475-.123.2207-.2998.2207-.5322s-.0762-.415-.2305-.5469-.3662-.1982-.6357-.1982h-1.168v1.4609h1.1865c.2705,0,.4795-.0615.627-.1836Z"/><path class="c" d="m101.5752,64.8457v6.6133h-1.6113v-6.6133h1.6113Z"/><path class="c" d="m105.7207,71.2891c-.3828-.1562-.6895-.3887-.918-.6973-.2295-.3076-.3506-.6777-.3633-1.1113h1.7148c.0254.2451.1094.4316.2539.5605s.333.1934.5654.1934c.2393,0,.4268-.0547.5654-.165.1377-.1094.207-.2617.207-.457,0-.1631-.0547-.2979-.165-.4053-.1094-.1064-.2441-.1943-.4043-.2637-.1602-.0684-.3887-.1475-.6836-.2354-.4268-.1318-.7754-.2637-1.0459-.3955-.2695-.1318-.502-.3262-.6963-.584-.1953-.2578-.293-.5938-.293-1.0078,0-.6162.2236-1.0977.6689-1.4463.4463-.3486,1.0273-.5234,1.7432-.5234.7285,0,1.3154.1748,1.7617.5234s.6846.834.7158,1.4551h-1.7422c-.0127-.2129-.0918-.3809-.2363-.5039-.1445-.1221-.3291-.1836-.5557-.1836-.1943,0-.3516.0518-.4707.1553s-.1787.2529-.1787.4473c0,.2139.0996.3809.3008.5s.5156.248.9424.3857c.4268.1445.7744.2832,1.041.415s.498.3232.6924.5742.292.5752.292.9707c0,.377-.0957.7188-.2871,1.0264s-.4697.5527-.834.7354c-.3643.1816-.7949.2734-1.291.2734-.4834,0-.917-.0791-1.2998-.2363Z"/><line class="e" x1="34.9334" y1="68.1904" x2="41.2139" y2="68.1904"/><line class="e" x1="115.1756" y1="68.1904" x2="121.4562" y2="68.1904"/><path class="c" d="m43.793,14.6313v.5474l-2.792.2734v-.6021c0-1.314-.4927-1.916-1.5059-1.916-.8481,0-1.4507.4653-1.4507,1.5601v.4106c0,1.0679.5474,1.9438,2.4365,3.6685,2.5732,2.3813,3.4492,3.9419,3.4492,6.1592v.9307c0,2.8193-1.7793,4.2979-4.4351,4.2979-2.6826,0-4.4893-1.5605-4.4893-4.3799v-1.2593l2.7925-.2739v1.314c0,1.2866.6021,1.9165,1.6421,1.9165.876,0,1.5879-.4658,1.5879-1.8345v-.6021c0-1.2046-.5474-2.0806-2.4365-3.8052-2.5728-2.3813-3.4487-3.9419-3.4487-6.022v-.4658c0-2.8193,1.6421-4.2974,4.3247-4.2974s4.3252,1.5601,4.3252,4.3799Z"/><path class="c" d="m52.5225,13.2627v16.4243h-2.9014V13.2627h-3.0933v-2.7378h9.0879v2.7378h-3.0933Z"/><path class="c" d="m64.8662,29.687l-.6294-4.3525h-3.2031l-.6294,4.3525h-2.9019l3.3125-19.1621h3.6953l3.3125,19.1621h-2.9565Zm-3.4492-6.9805h2.4365l-1.1772-8.0752h-.082l-1.1772,8.0752Z"/><path class="c" d="m76.1133,10.5249c3.1211,0,4.8184,1.6973,4.8184,4.8452v9.4717c0,3.1479-1.6973,4.8452-4.8184,4.8452h-4.1606V10.5249h4.1606Zm-1.2593,16.4795h1.1499c1.396,0,2.0254-.7393,2.0254-2.354v-9.0884c0-1.6152-.6294-2.3545-2.0254-2.3545h-1.1499v13.7969Z"/><path class="c" d="m85.8008,29.687V10.5249h2.9014v19.1621h-2.9014Z"/><path class="c" d="m102.6885,25.3892c0,3.0112-1.7246,4.5718-4.5166,4.5718-2.7373,0-4.4619-1.5605-4.4619-4.5718v-14.8643h2.792v14.7822c0,1.396.6289,1.916,1.6426,1.916,1.0127,0,1.6426-.52,1.6426-1.916v-14.7822h2.9014v14.8643Z"/><path class="c" d="m117.084,29.687v-13.3037h-.0557l-2.4082,10.5664h-1.7246l-2.4092-10.5664h-.0547v13.3037h-2.7373V10.5249h3.8047l2.2725,10.293h.0547l2.2441-10.293h3.915v19.1621h-2.9014Z"/></svg>