<svg id="Layer_1" data-name="Layer 1" xmlns="http://www.w3.org/2000/svg" viewBox="0 0 235.64 117.41"><defs><style>.cls-1{fill:#d9ab73;}</style></defs><path class="cls-1" d="M167.16,19.09a7.74,7.74,0,0,1,5.48,2.26V19.11a5.41,5.41,0,0,0-5.45-5.33H68.48A5.41,5.41,0,0,0,63,19.11v2.24a7.75,7.75,0,0,1,5.46-2.26Z" transform="translate(0 -13.78)"/><path class="cls-1" d="M226.19,47.52h-51.4v2h18.28v3.32h33.12a11.7,11.7,0,0,1,9.45,4.76v-.83A9.36,9.36,0,0,0,226.19,47.52Z" transform="translate(0 -13.78)"/><path class="cls-1" d="M9.44,47.52A9.37,9.37,0,0,0,0,56.77v.83a11.71,11.71,0,0,1,9.44-4.76H41.69v-3.3H60.84v-2Z" transform="translate(0 -13.78)"/><rect class="cls-1" x="193.07" y="94.64" width="7.76" height="18.63"/><rect class="cls-1" x="34.82" y="94.64" width="6.87" height="18.63"/><polygon class="cls-1" points="149 101.89 146.98 106.61 151.04 106.61 149 101.89"/><path class="cls-1" d="M95.15,119.1a2.2,2.2,0,0,0,.07-3.11.46.46,0,0,1-.07-.07,3.09,3.09,0,0,0-2-.55H90.82v4.28h2.35A3,3,0,0,0,95.15,119.1Z" transform="translate(0 -13.78)"/><path class="cls-1" d="M165.64,119.11a2,2,0,0,0,.68-1.6,2,2,0,0,0-.68-1.59,3.15,3.15,0,0,0-2-.55H161.3v4.3h2.34A3,3,0,0,0,165.64,119.11Z" transform="translate(0 -13.78)"/><path class="cls-1" d="M60.32,121a4.14,4.14,0,0,0,0-3.9,3.28,3.28,0,0,0-1.38-1.28,4.71,4.71,0,0,0-2.09-.45H54.23v7.4h2.62a4.46,4.46,0,0,0,2.09-.46A3.17,3.17,0,0,0,60.32,121Z" transform="translate(0 -13.78)"/><path class="cls-1" d="M42.64,127.05v4.14H192.17V108.42H42.64Zm131.49-13.38,3.16,5.26,3.19-5.26h2l-4.22,7v3.8h-2V120.7l-4.24-7Zm-14.75,0h4.44a6.17,6.17,0,0,1,2.44.47,3.66,3.66,0,0,1,1.59,1.32,4,4,0,0,1,0,4.15,3.58,3.58,0,0,1-1.71,1.31l2.48,3.54h-2.15l-2.21-3.16h-2.85v3.14h-2Zm-11.3,0h2L155,124.46h-2.1L151.78,122h-5.4l-1.06,2.49h-2.07Zm-10.76,7.17a2.4,2.4,0,0,0-.84-.47c-.34-.12-.8-.24-1.39-.39a15.27,15.27,0,0,1-2-.58,3.1,3.1,0,0,1-1.31-.92,2.45,2.45,0,0,1-.55-1.69,2.89,2.89,0,0,1,.49-1.63,3.39,3.39,0,0,1,1.46-1.16,6.15,6.15,0,0,1,2.4-.43,7.94,7.94,0,0,1,1.94.25,5.16,5.16,0,0,1,1.65.71l-.63,1.55a6.47,6.47,0,0,0-1.48-.63,6.32,6.32,0,0,0-1.5-.22,3.1,3.1,0,0,0-1.76.41,1.21,1.21,0,0,0-.58,1.06.93.93,0,0,0,.33.75,2.19,2.19,0,0,0,.84.47c.34.11.8.24,1.39.38a17,17,0,0,1,2,.58,3.5,3.5,0,0,1,1.32.92,2.45,2.45,0,0,1,.55,1.66,2.89,2.89,0,0,1-.49,1.62,3.28,3.28,0,0,1-1.47,1.16,6,6,0,0,1-2.41.43,7.57,7.57,0,0,1-2.41-.36,4.67,4.67,0,0,1-1.84-.94l.69-1.55a5.08,5.08,0,0,0,1.63.85,5.76,5.76,0,0,0,1.93.33,3.41,3.41,0,0,0,1.8-.38,1.16,1.16,0,0,0,.59-1A1,1,0,0,0,137.32,120.84Zm-21-7.12H118l6,7.31v-7.31h2v10.79h-1.65l-6-7.3v7.3h-2Zm-13.41,0h7.88v1.68h-5.85v2.81h5.21v1.63h-5.21v3H111v1.68h-8.09Zm-14.12,0h4.44a6.17,6.17,0,0,1,2.44.47,3.56,3.56,0,0,1,1.6,1.32,4.09,4.09,0,0,1,0,4.09,3.49,3.49,0,0,1-1.6,1.34,5.67,5.67,0,0,1-2.44.46H90.82v3.11h-2Zm-7.35,7.12a2.4,2.4,0,0,0-.84-.47c-.34-.12-.8-.24-1.38-.39a13.87,13.87,0,0,1-2-.58,3.1,3.1,0,0,1-1.31-.92,2.45,2.45,0,0,1-.55-1.69,2.89,2.89,0,0,1,.49-1.63A3.39,3.39,0,0,1,77.31,114a6.15,6.15,0,0,1,2.4-.43,7.94,7.94,0,0,1,1.94.25,5.16,5.16,0,0,1,1.65.71l-.66,1.5a6.47,6.47,0,0,0-1.48-.63,6.32,6.32,0,0,0-1.5-.22,3.1,3.1,0,0,0-1.76.41,1.21,1.21,0,0,0-.58,1.06.93.93,0,0,0,.33.75,2.19,2.19,0,0,0,.84.47c.34.11.8.24,1.39.38a17,17,0,0,1,2,.58,3.39,3.39,0,0,1,1.32.92,2.45,2.45,0,0,1,.55,1.66,2.74,2.74,0,0,1-.49,1.62,3.28,3.28,0,0,1-1.47,1.16,6,6,0,0,1-2.41.43,7.57,7.57,0,0,1-2.41-.36,5,5,0,0,1-1.84-.94l.69-1.55a5.29,5.29,0,0,0,1.63.85,5.76,5.76,0,0,0,1.93.33,3.41,3.41,0,0,0,1.8-.38,1.14,1.14,0,0,0,.59-1A1,1,0,0,0,81.44,120.84ZM68,113.72h2v10.79H68Zm-15.82,0h4.72a7.08,7.08,0,0,1,3.07.67,5.15,5.15,0,0,1,2.08,1.9,5.76,5.76,0,0,1,0,5.66A4.93,4.93,0,0,1,60,123.84a6.55,6.55,0,0,1-3.07.67H52.22Z" transform="translate(0 -13.78)"/><rect class="cls-1" x="174.8" y="36.9" width="17.38" height="2.14"/><rect class="cls-1" x="42.59" y="36.9" width="18.26" height="2.14"/><rect class="cls-1" x="174.8" y="36.66" width="17.38" height="0.24"/><rect class="cls-1" x="42.59" y="36.66" width="18.26" height="0.24"/><path class="cls-1" d="M141,46.93a3.58,3.58,0,0,0,2.45.91,3.32,3.32,0,0,0,2.76-1.33,5.23,5.23,0,0,0,1-3.36A5.43,5.43,0,0,0,146,39.52a4,4,0,0,0-3.13-1.38,5.2,5.2,0,0,0-3.5,1.35c-.21.19-.4.4-.59.6v.63a10.85,10.85,0,0,0,.56,3.71A5.76,5.76,0,0,0,141,46.93Z" transform="translate(0 -13.78)"/><path class="cls-1" d="M226.19,55H172.64V26.6a5.41,5.41,0,0,0-5.45-5.33H68.48A5.41,5.41,0,0,0,63,26.6V55H9.44A9.37,9.37,0,0,0,0,64.25V97a9.35,9.35,0,0,0,9.44,9.25H226.19A9.36,9.36,0,0,0,235.64,97V64.25A9.36,9.36,0,0,0,226.19,55Zm-90.8-20.16a15.33,15.33,0,0,1,3-4.85,16.66,16.66,0,0,1,4.75-3.57,20.18,20.18,0,0,1,6.26-1.9l.62,2.07a18.31,18.31,0,0,0-6.2,2.8,11.51,11.51,0,0,0-3.75,4.66A14.67,14.67,0,0,0,139,37.94a9.32,9.32,0,0,1,2-1.81A6.28,6.28,0,0,1,144.51,35a7.13,7.13,0,0,1,3.56.92,6.81,6.81,0,0,1,3.44,6,7.7,7.7,0,0,1-1.11,4,8.12,8.12,0,0,1-2.48,2.57c-.18.12-.36.25-.55.36a7.45,7.45,0,0,1-1.42.62l-.24.08a8.58,8.58,0,0,1-2.61.37,9.06,9.06,0,0,1-2.69-.37l-.26-.08a7.08,7.08,0,0,1-1.63-.75l-.36-.23a8.17,8.17,0,0,1-2.71-3.09,10.53,10.53,0,0,1-1.1-4.93A15.83,15.83,0,0,1,135.39,34.84Zm-28.49-10c-.08.94-.14,2.11-.18,3.52s-.07,3.12-.07,5.14V44.3c0,.87.06,1.56.1,2.08s.08.82.1.93l3.4.62v.64l-.08,1v.08h-11v-.11l-.07-1V47.9l3.35-.62a10,10,0,0,0,.07-1.1c0-.57,0-1.29.06-2.18s0-1.85,0-2.9V34.28c0-.88,0-1.76-.06-2.63s-.09-1.6-.15-2.18l-3.65.79-.12-2ZM84.51,49.54l-.07-1V47.9l3.36-.62a10,10,0,0,0,.06-1.1c0-.57,0-1.29.06-2.18s0-1.85,0-2.9V34.28c0-.88,0-1.76-.06-2.63s-.09-1.6-.14-2.18l-3.65.79-.13-2,8.33-3.42c-.09.94-.15,2.11-.19,3.52S92,31.48,92,33.5V44.3c0,.87.06,1.56.1,2.08a6.84,6.84,0,0,0,.11.93l3.4.62v.64l-.07,1v.08h-11Zm32.33.08-.24-.06h0a5.26,5.26,0,0,1-1.88-1l-.22-.18a2.33,2.33,0,0,1-.77-1.7,1.77,1.77,0,0,1,.5-1.27,1.73,1.73,0,0,1,1.24-.52,3.08,3.08,0,0,1,1.23.25,7.39,7.39,0,0,1,1.3.91l2.09,1.8a5.77,5.77,0,0,0,2.14-.32,4.58,4.58,0,0,0,2.3-1.72,4.92,4.92,0,0,0,.85-2.91A4.38,4.38,0,0,0,124,39.5a5.54,5.54,0,0,0-3.79-1.24h-1.14a5.91,5.91,0,0,0-1.06.13l-.25-2.08a8.62,8.62,0,0,0,4.48-1.57,3.92,3.92,0,0,0,1.58-3.24A3,3,0,0,0,122.75,29a4.32,4.32,0,0,0-2.88-.89,6,6,0,0,0-2.7.62A6.21,6.21,0,0,0,115,30.59l-1.38-.91a7.81,7.81,0,0,1,3.09-3.49,8.89,8.89,0,0,1,4.66-1.28,7.26,7.26,0,0,1,4.83,1.55A4.91,4.91,0,0,1,128,30.34a5.23,5.23,0,0,1-1.74,4,10.37,10.37,0,0,1-3,1.94,8.46,8.46,0,0,1,4.35,1.63,5.39,5.39,0,0,1,2,4.41,6.24,6.24,0,0,1-1.29,3.76,8.7,8.7,0,0,1-2.85,2.48l-.67.36a9.15,9.15,0,0,1-1.68.62l-.29.08a12.24,12.24,0,0,1-3.13.37A10.06,10.06,0,0,1,116.84,49.62ZM51.5,64.12,42.64,78.07l-.45.71-.45.7-1.9,2.89v8.08c0,1,0,1.91.06,2.62A15.82,15.82,0,0,0,40,94.76a6.05,6.05,0,0,1,.1.83l1.52.28.45.08.45.09,2.22.41-.11,2.3v.55H28.38v-.55l-.11-2.3,4.44-.83h.2a5.45,5.45,0,0,1,.06-.83c.06-.42.09-1,.14-1.69s.07-1.58.1-2.62,0-2.26,0-3.67V83l-.53-.86-11-18-3.38-.93.14-2.78h14.9l.2,2.78-.86.2-3.18.73,3.18,5.21,1.06,1.74,1.07,1.74,3.43,5.62,3.45-5.81.45-.81.45-.76,4.14-7-4.09-.79-.45-.09h0v-.6l.15-2.18h12.3l.2,2.78ZM159.38,53.45v.89H76.26v-.89ZM99.64,64.19a7.54,7.54,0,0,0-.1,1.42c0,.82-.06,2-.1,3.61s-.07,3.62-.07,6.1v8.14a20.16,20.16,0,0,1-1.85,9.15,12.39,12.39,0,0,1-5.21,5.46,11.25,11.25,0,0,1-1.45.68A15.6,15.6,0,0,1,86,99.84H83a18.39,18.39,0,0,1-5.39-1.09,13.24,13.24,0,0,1-4.73-3q-4.17-4.11-4.17-11.66v-10c0-2.25,0-4.08-.07-5.5s-.08-2.47-.1-3.17a6,6,0,0,0-.1-1.26l-4.17-1,.2-2.78H79.69l.13,2.78-4.11,1a14.63,14.63,0,0,1-.07,1.49c-.07.73-.07,1.76-.1,3.11s0,3.13,0,5.33v9.08a15.49,15.49,0,0,0,1.23,6.69,8.05,8.05,0,0,0,3.48,3.81,10.8,10.8,0,0,0,5.29,1.22,9.7,9.7,0,0,0,5-1.22,7.83,7.83,0,0,0,3.26-3.83,18.12,18.12,0,0,0,1.12-7V75.32c0-2.12,0-4-.06-5.57s-.09-2.86-.14-3.81a7,7,0,0,0-.2-1.75l-4.63-1,.2-2.78h13.44l.2,2.78Zm68.1,34.56v.55H152.32v-.55l-.1-2.24,4-.92c0-.4.07-1,.1-1.69s0-1.77,0-3.12,0-3.1-.07-5.26l-.15-18.2L142.64,98.75l-.32.75h-2.85l-.34-.75-14-31,0,17.09v7.78c0,1.57.06,2.55.1,3l4.57.92-.16,2.24v.55H116.15v-.55L116,96.54l4.57-.92c0-.36.08-1,.1-1.82s.06-2,.1-3.32.07-2.9.07-4.67L121,73c0-2.21.06-4,0-5.53s0-2.57,0-3.28l-4.1-.93.2-2.78h12.19l13.15,29.4L155,60.41h11.72l.2,2.78-4.11.86c0,.58,0,1.65,0,3.22s0,3.43.1,5.59l.3,12c.09,2.07.15,3.85.2,5.33s.1,2.66.16,3.55.1,1.52.1,1.92l4.18.92Zm49.25,0v.55H202.16v-.55l-.11-2.24.92-.2,3.19-.72L203,87.71l-.17-.42h-2.57c-1.39,0-2.82-.07-4.27-.07h-4.21l-3.18.1-2.93,8.27,4.11.92-.11,2.24v.55H178v-.55l-.16-2.24,3.37-.92,11-27.51.45-1.12.45-1.13,1.55-4,4.44-2.58,1.7,4.21,1.06,2.63,1.07,2.63,10.87,26.9,3.32.92Z" transform="translate(0 -13.78)"/><path class="cls-1" d="M195.34,68.72l-2.27,6.22-.43,1.23-.45,1.23-2.29,6.24,1,.06h5c1.91,0,3.54,0,4.88-.1h.62l-.62-1.51Z" transform="translate(0 -13.78)"/></svg>