<svg id="Layer_1" data-name="Layer 1" xmlns="http://www.w3.org/2000/svg" viewBox="0 0 354.4 118.74"><defs><style>.cls-1{fill:#d9ab73;}</style></defs><rect class="cls-1" x="7.88" width="338.64" height="5.78"/><path class="cls-1" d="M49.12,91.75H11.84v13H65.9C58.16,100.73,52.45,96.35,49.12,91.75Z" transform="translate(-3.95 -3.17)"/><path class="cls-1" d="M295.13,104.71h55.34v-13H311.91C308.58,96.35,302.87,100.73,295.13,104.71Z" transform="translate(-3.95 -3.17)"/><polygon class="cls-1" points="12.7 85.26 12.7 9.09 7.88 9.09 6.37 9.09 4.86 9.09 0 9.09 0 85.26 4.86 85.26 6.37 85.26 7.88 85.26 12.7 85.26"/><polygon class="cls-1" points="349.55 9.09 348.03 9.09 346.52 9.09 340.42 9.09 340.42 85.26 346.52 85.26 348.03 85.26 349.55 85.26 354.4 85.26 354.4 9.09 349.55 9.09"/><path class="cls-1" d="M155.16,103.14a2.09,2.09,0,0,0,0-3,2.92,2.92,0,0,0-1.88-.52h-2.21v4h2.21A2.92,2.92,0,0,0,155.16,103.14Z" transform="translate(-3.95 -3.17)"/><path class="cls-1" d="M245.06,100.15a2.88,2.88,0,0,0-1.87-.52H241v4.05h2.21a2.88,2.88,0,0,0,1.87-.53,2.08,2.08,0,0,0,0-3Z" transform="translate(-3.95 -3.17)"/><polygon class="cls-1" points="218.81 101.19 222.63 101.19 220.72 96.74 218.81 101.19"/><path class="cls-1" d="M308.05,91.75c.48-.55.92-1.1,1.33-1.66.2-.27.39-.55.57-.83l.45-.68h31V12.12H19.68V88.58h31l.44.68c.19.28.38.56.58.83.4.56.85,1.11,1.33,1.66,4.13,4.73,10.94,9.1,19.85,13,1.18.51,2.41,1,3.66,1.51s2.66,1,4,1.52c24.49,8.74,60.63,14.17,100,14.17s75.5-5.43,100-14.17c1.38-.5,2.73-1,4-1.52s2.49-1,3.67-1.51C297.11,100.85,303.92,96.48,308.05,91.75ZM33,40.32a11.61,11.61,0,0,0-.29-2.78L29,36.66,29.18,34H44.89C49,34,52,34.66,54,36.05a7,7,0,0,1,3,6.18,6.7,6.7,0,0,1-2.73,5.42,11.24,11.24,0,0,1-4.91,2.21,13.26,13.26,0,0,1,6.4,2.3,7.32,7.32,0,0,1,3,6.19,8.38,8.38,0,0,1-4,7.35q-4,2.67-11.14,2.67H29.18L29,65.68l3.69-.94a14,14,0,0,0,.29-2.9c.08-1.66.12-3.67.12-6V46.57Q33.11,42.82,33,40.32ZM72.2,42.11c0-1.29-.09-2.32-.14-3.1a5.4,5.4,0,0,0-.21-1.41l-3.69-.94L68.33,34H86.68l2.46,0c1,0,1.94-.06,2.9-.12l2.55-.15,1.35,8.44-3,.41-2.11-5.1-1.35-.17a12.71,12.71,0,0,0-1.29-.06H83.05c-.75,0-1.44,0-2.09,0a14.55,14.55,0,0,0-1.67.14q0,.42,0,1.38c0,.65,0,1.46-.05,2.43s0,2.08,0,3.29v4.41h.32c.6,0,1.22,0,1.85,0h3.51c.74,0,1.4,0,2,0l1.26,0,.58-4H91.6V56.53H88.67l-.58-3.93-1.26-.11c-.57,0-1.23-.06-2-.06H81.35c-.63,0-1.25,0-1.85.06l-.32,0v5.37c0,1.09,0,2.09,0,3s0,1.67.05,2.31,0,1.13,0,1.44a15.27,15.27,0,0,0,2.06.23c.7,0,1.6.06,2.69.06H88c.9,0,1.61,0,2.14,0a10,10,0,0,0,1.2-.08l.82-.12,3.17-5.8,3,.58-2.58,9.26c-1.05-.11-2.25-.2-3.6-.26s-2.57-.09-3.66-.09H68.33l-.17-2.69,3.69-.94a6.64,6.64,0,0,0,.21-1.47c0-.78.1-1.8.14-3.08s.06-2.72.06-4.36V46.57C72.26,44.89,72.24,43.4,72.2,42.11Zm60,17.88a24.3,24.3,0,0,0,2.58,3.17,12,12,0,0,0,2.52,2,10.36,10.36,0,0,0,2.75,1.08L140,68.72a11.38,11.38,0,0,1-1.64.24c-.55,0-1.11.06-1.7.06a13.67,13.67,0,0,1-5.39-1,12.27,12.27,0,0,1-4.37-3.25,27.82,27.82,0,0,1-3.78-5.81l-3-6.27h-2.5v3.17q0,1.94,0,3.75c0,1.21.06,2.27.12,3.16s.11,1.55.15,1.94l3.34,1L121,68.37H107l-.17-2.69,3.69-1q0-.3,0-1.29c0-.66,0-1.43.06-2.29s0-1.73.06-2.63,0-1.78,0-2.64V46.57c0-1.72,0-3.22-.06-4.49s-.09-2.29-.15-3.07a6.16,6.16,0,0,0-.2-1.41l-3.7-.94.18-2.69H121.2q6.39,0,9.49,2.13t3.11,6.6a8.35,8.35,0,0,1-1.7,5.13,11.36,11.36,0,0,1-4.69,3.54c-.33.15-.67.27-1,.39Zm27.37-10.2,12.07-12.43-3.69-.7.17-2.69h12.55l.17,2.81-3.69.58L165,48.49l10.21,11.85,2,2.4a15.5,15.5,0,0,0,1.32,1.47,10.73,10.73,0,0,1,.85.88l3,.53v2.75H166l-.17-2.69,3.22-.59c-.27-.43-.55-.85-.82-1.26A19,19,0,0,0,167,62.22L159.18,53h-1.35v2.82q0,3.75.09,6.12c.05,1.59.1,2.51.14,2.79l3.17.94-.18,2.69h-14l-.17-2.69,3.69-.94a19.13,19.13,0,0,0,.17-2.79q.06-2.37.06-6.12V46.57c0-1.72,0-3.22-.06-4.49s-.07-2.29-.11-3.07a5.06,5.06,0,0,0-.18-1.41l-3.69-.94L147,34H161.7l.17,2.69-3.69.94A5.24,5.24,0,0,0,158,39c-.05.76-.09,1.78-.11,3.07s0,2.8,0,4.52v3.6Zm32.82-7.68c0-1.29-.09-2.32-.15-3.1a5.4,5.4,0,0,0-.21-1.41l-3.69-.94.18-2.69h18.34l2.47,0c1,0,1.94-.06,2.9-.12l2.55-.15,1.34,8.44-3,.41L211,37.42l-1.35-.17a12.71,12.71,0,0,0-1.29-.06h-5.1c-.74,0-1.44,0-2.08,0a14.36,14.36,0,0,0-1.67.14q0,.42,0,1.38t-.06,2.43c0,1,0,2.08,0,3.29v4.41h.32c.61,0,1.22,0,1.85,0h3.52c.74,0,1.39,0,2,0l1.26,0,.59-4h2.93V56.53h-2.93l-.59-3.93L207,52.49c-.57,0-1.22-.06-2-.06h-3.52c-.63,0-1.24,0-1.85.06l-.32,0v5.37c0,1.09,0,2.09,0,3s0,1.67.06,2.31,0,1.13,0,1.44a15.12,15.12,0,0,0,2.05.23q1,.06,2.7.06h3.92c.9,0,1.61,0,2.14,0a10,10,0,0,0,1.2-.08l.82-.12,3.17-5.8,3.05.58L216,68.72c-1.06-.11-2.26-.2-3.61-.26s-2.57-.09-3.66-.09H188.54l-.18-2.69,3.69-.94a6.64,6.64,0,0,0,.21-1.47c.06-.78.11-1.8.15-3.08s.05-2.72.05-4.36V46.57C192.46,44.89,192.44,43.4,192.41,42.11Zm38.47.12c0-1.25,0-2.29-.09-3.11a5.47,5.47,0,0,0-.17-1.46l-3.7-1L227.1,34H243l.17,2.81-4.86.88a9.53,9.53,0,0,0-.15,1.32c-.06.76-.11,1.78-.15,3s-.06,2.79-.06,4.55v9.26c0,2.19,0,4,.06,5.42s.08,2.37.12,2.84a15,15,0,0,0,2,.24q1,.06,2.49.06h2.76a19.59,19.59,0,0,0,2.37-.12c.65-.08,1.22-.16,1.73-.24l3.23-6.09,3.28.82-2.76,10c-.82-.08-1.75-.13-2.78-.17l-2.93-.12c-.92,0-1.69-.06-2.32-.06H227.1l-.18-2.69,3.7-.94a6.67,6.67,0,0,0,.17-1.53c0-.82.07-1.86.09-3.13s0-2.69,0-4.25V46.57C230.91,44.93,230.9,43.48,230.88,42.23ZM267,42.11c0-1.29-.09-2.32-.14-3.1a5.4,5.4,0,0,0-.21-1.41L263,36.66l.17-2.69h18.35l2.46,0c1,0,1.95-.06,2.9-.12l2.55-.15,1.35,8.44-3.05.41-2.11-5.1-1.34-.17q-.6-.06-1.29-.06h-5.1c-.75,0-1.44,0-2.08,0a14.55,14.55,0,0,0-1.68.14c0,.28,0,.74,0,1.38s0,1.46-.06,2.43,0,2.08,0,3.29v4.41h.32c.61,0,1.22,0,1.85,0h3.51c.74,0,1.4,0,2,0l1.26,0,.58-4h2.93V56.53h-2.93l-.58-3.93-1.26-.11c-.57,0-1.23-.06-2-.06h-3.51c-.63,0-1.24,0-1.85.06l-.32,0v5.37c0,1.09,0,2.09,0,3s0,1.67.06,2.31,0,1.13,0,1.44a15.27,15.27,0,0,0,2.06.23c.7,0,1.6.06,2.69.06h3.93c.9,0,1.61,0,2.14,0a10,10,0,0,0,1.2-.08l.82-.12,3.17-5.8,3,.58-2.57,9.26c-1.06-.11-2.26-.2-3.61-.26s-2.57-.09-3.66-.09H263.14L263,65.68l3.69-.94a6.64,6.64,0,0,0,.21-1.47c.05-.78.1-1.8.14-3.08s.06-2.72.06-4.36V46.57C267.07,44.89,267.05,43.4,267,42.11Zm49.58,7.54,7.16-12-4.11-.94.18-2.69h11.25l.18,2.69-3,.94-10,15.83v4q0,1.47,0,2.7c0,.82,0,1.55.05,2.19a14.46,14.46,0,0,0,.12,1.59,5.81,5.81,0,0,0,.15.79l4.1.88-.17,2.75H307l-.17-2.75,4.1-.88a4.54,4.54,0,0,0,.12-.79c0-.41.07-.94.11-1.59s.07-1.37.09-2.19,0-1.72,0-2.7V54.22l-10-16.62-3-.94.17-2.69H312.9l.18,2.69-3.69.94ZM63.34,89.84V88.69H297.69v1.15Zm41.73,18.36h-4.45V98h4.45a6.43,6.43,0,0,1,2.89.63,4.72,4.72,0,0,1,2,1.79,5.09,5.09,0,0,1,.69,2.66,5.52,5.52,0,0,1-.23,1.6,4.61,4.61,0,0,1-.46,1.07c-.1.15-.21.3-.32.44a4.59,4.59,0,0,1-1.64,1.34l-.41.18A6.56,6.56,0,0,1,105.07,108.2Zm17,0h-1.89V98h1.89V108.2Zm15.76-.27a5.69,5.69,0,0,1-2.27.41,7.84,7.84,0,0,1-2.27-.33c-.26-.08-.5-.18-.72-.27a3.94,3.94,0,0,1-1-.62l.4-.9.25-.57a4.2,4.2,0,0,0,.95.57,4.39,4.39,0,0,0,.58.24,5.53,5.53,0,0,0,1.82.31,3.21,3.21,0,0,0,1.7-.36,2.11,2.11,0,0,0,.23-.19,1.06,1.06,0,0,0,.32-.77.92.92,0,0,0-.31-.72l0,0a2.06,2.06,0,0,0-.76-.42c-.32-.11-.75-.23-1.31-.36a15.33,15.33,0,0,1-1.88-.56,3,3,0,0,1-1.23-.86,2.29,2.29,0,0,1-.52-1.59,2.75,2.75,0,0,1,.46-1.53,3.15,3.15,0,0,1,1.38-1.1,5.6,5.6,0,0,1,2.26-.41,7.07,7.07,0,0,1,1.83.24,4.87,4.87,0,0,1,1.55.66l-.59,1.47a5.71,5.71,0,0,0-1.4-.59,5,5,0,0,0-1.41-.21,3,3,0,0,0-1.66.38,1.17,1.17,0,0,0-.54,1,.89.89,0,0,0,.31.71,2.23,2.23,0,0,0,.79.44c.32.11.76.23,1.31.36a14.93,14.93,0,0,1,1.86.55,3.23,3.23,0,0,1,1.24.86,2,2,0,0,1,.45,1,2.93,2.93,0,0,1,.06.61,2.66,2.66,0,0,1-.15.9,2.37,2.37,0,0,1-.3.62,2.92,2.92,0,0,1-1,.9A3.54,3.54,0,0,1,137.87,107.93Zm13.2.27h-1.88V98h4.18a5.62,5.62,0,0,1,2.3.43,3.39,3.39,0,0,1,1.5,1.25,3.78,3.78,0,0,1,0,3.86,3.16,3.16,0,0,1-1.28,1.14l-.22.12a5.62,5.62,0,0,1-2.3.43h-2.3v2.94Zm23.74,0h-7.62V98h7.42v1.58h-5.54v2.65H174v1.55h-4.91v2.8h5.74v1.59Zm18.74,0H192l-.38-.46-1.23-1.52-1.23-1.51-2.77-3.4v6.89h-1.87V98h1.55l5.44,6.68.17.2V98h1.87V108.2Zm15.75-.27a5.69,5.69,0,0,1-2.27.41,7.84,7.84,0,0,1-2.27-.33c-.26-.08-.5-.18-.72-.27a4.19,4.19,0,0,1-1-.62l.4-.9.26-.57a4.2,4.2,0,0,0,.95.57,4.39,4.39,0,0,0,.58.24,5.48,5.48,0,0,0,1.82.31,3.15,3.15,0,0,0,1.69-.36,1.55,1.55,0,0,0,.24-.19,1.06,1.06,0,0,0,.32-.77.92.92,0,0,0-.31-.72l0,0a2.06,2.06,0,0,0-.76-.42c-.32-.11-.76-.23-1.31-.36a15.33,15.33,0,0,1-1.88-.56,3,3,0,0,1-1.23-.86,2.29,2.29,0,0,1-.52-1.59,2.67,2.67,0,0,1,.46-1.53,3,3,0,0,1,1.38-1.1,5.6,5.6,0,0,1,2.26-.41,7.07,7.07,0,0,1,1.83.24,4.87,4.87,0,0,1,1.55.66l-.59,1.47a5.71,5.71,0,0,0-1.4-.59,5,5,0,0,0-1.41-.21,3,3,0,0,0-1.66.38,1.17,1.17,0,0,0-.54,1,.89.89,0,0,0,.31.71,2.23,2.23,0,0,0,.79.44c.32.11.75.23,1.31.36a14.93,14.93,0,0,1,1.86.55,3.23,3.23,0,0,1,1.24.86,2,2,0,0,1,.45,1,2.93,2.93,0,0,1,.06.61,2.66,2.66,0,0,1-.15.9,2.4,2.4,0,0,1-.31.62,2.89,2.89,0,0,1-1,.9A3.54,3.54,0,0,1,209.3,107.93Zm18.93.27-.2-.46-.66-1.52-.16-.38h-5.08l-.16.38-.65,1.52-.2.46h-1.94l.21-.46.68-1.52.68-1.51,3-6.68h1.86l3,6.68.68,1.51.68,1.52.21.46Zm17.52,0-.32-.46-1.06-1.52-.7-1H241v3h-1.89V98h4.19a5.62,5.62,0,0,1,2.3.43,3.44,3.44,0,0,1,1.5,1.25,3.52,3.52,0,0,1,.52,1.94,3.45,3.45,0,0,1-.55,2,3.24,3.24,0,0,1-1.3,1.09l-.31.14,1,1.37,1.06,1.52.32.46Zm15.8-2v2h-1.89v-3.56l-4-6.61h2l3,5,3-5h1.86l-4,6.58v1.61Z" transform="translate(-3.95 -3.17)"/><path class="cls-1" d="M108.37,104.71a3.72,3.72,0,0,0,.34-1.6,3.53,3.53,0,0,0-.46-1.83,3,3,0,0,0-1.3-1.22,4.29,4.29,0,0,0-2-.43h-2.47v7H105a4.32,4.32,0,0,0,1.84-.38l.13,0a3.07,3.07,0,0,0,1.3-1.22C108.3,104.87,108.33,104.79,108.37,104.71Z" transform="translate(-3.95 -3.17)"/><path class="cls-1" d="M40.2,64.68a8.61,8.61,0,0,0,1.76.38,15.1,15.1,0,0,0,2,.15,8.33,8.33,0,0,0,5.48-1.59,5.52,5.52,0,0,0,1.91-4.51,6,6,0,0,0-2.05-5c-1.37-1.08-3.42-1.61-6.16-1.61H41c-.31,0-.64,0-1,0V58c0,1.64,0,3.07.06,4.28S40.16,64.29,40.2,64.68Z" transform="translate(-3.95 -3.17)"/><path class="cls-1" d="M42.78,49.15a7.17,7.17,0,0,0,5-1.62,5.88,5.88,0,0,0,1.76-4.6,5.69,5.69,0,0,0-1.67-4.33,7,7,0,0,0-5-1.59H40.14c0,.35-.06,1.2-.08,2.55s0,2.92,0,4.72v4.79l1,0C41.48,49.14,42.08,49.15,42.78,49.15Z" transform="translate(-3.95 -3.17)"/><path class="cls-1" d="M120.38,37h-2.64a3.91,3.91,0,0,0-.09.82c0,.43,0,1,0,1.79v9.94h2a6.84,6.84,0,0,0,5-1.82,6.51,6.51,0,0,0,1.84-4.87,5.75,5.75,0,0,0-1.55-4.36A6.29,6.29,0,0,0,120.38,37Z" transform="translate(-3.95 -3.17)"/></svg>