<svg id="Layer_1" data-name="Layer 1" xmlns="http://www.w3.org/2000/svg" viewBox="0 0 428.77 116.75"><defs><style>.cls-1{fill:#d9ab73;}</style></defs><polygon class="cls-1" points="336.34 22.59 336.34 28.36 375.43 28.36 336.34 22.59"/><polygon class="cls-1" points="93.03 22.59 53.94 28.36 93.03 28.36 93.03 22.59"/><polygon class="cls-1" points="169.14 28.36 260.22 28.36 260.22 8.27 268.43 9.11 268.43 0 161.66 0 161.66 9.04 169.14 8.27 169.14 28.36"/><polygon class="cls-1" points="261.94 10.17 261.94 28.36 268.43 28.36 269.29 28.36 270.14 28.36 326.45 28.36 327.3 28.36 328.16 28.36 334.63 28.36 334.63 22.34 334.63 21.48 334.63 20.61 334.63 17.64 270.14 11.01 269.29 10.92 268.43 10.84 261.94 10.17"/><polygon class="cls-1" points="102.06 28.36 102.92 28.36 159.94 28.36 160.8 28.36 161.66 28.36 167.43 28.36 167.43 10.17 161.66 10.76 160.8 10.85 159.94 10.94 94.74 17.64 94.74 20.61 94.74 21.48 94.74 22.34 94.74 28.36 101.2 28.36 102.06 28.36"/><path class="cls-1" d="M63.51,79.56H371v8.49h54V34.62H10.1V88.05H63.51ZM397,46.09l.13-2h8.54l.13,2-2.26.69L396,58.45v3c0,.72,0,1.38,0,2s0,1.15.05,1.63a8.42,8.42,0,0,0,.09,1.16,3.65,3.65,0,0,0,.11.59l3.11.65-.13,2H387.48l-.14-2,3.12-.65a5.56,5.56,0,0,0,.08-.59c0-.3.06-.69.09-1.16s.06-1,.07-1.63,0-1.26,0-2V59l-7.6-12.26-2.27-.69.13-2h10.94l.14,2-2.81.69,5.47,8.89,5.43-8.89Zm-59.53,2.3.56-4.51.3,0,.86.05h0l1.52.06,1.57.07,1.36,0h11.74l1.36,0,1.56-.07,1.53-.06h.31c.33,0,.64,0,.89-.06l1,7.48-2.53.22-1.74-5a7.27,7.27,0,0,0-1-.11c-.31,0-.63,0-.95,0h-2.54a4.65,4.65,0,0,0-.93.08c0,.21,0,.75,0,1.62s0,1.92-.05,3.12,0,2.38,0,3.56v4.63c0,1.64,0,3.13,0,4.45s.06,2.28.09,2.86l3.83.6-.14,2.08h-13L343,67.4l3.82-.6c0-.58.06-1.53.09-2.86s.05-2.81.05-4.45V54.86c0-1.18,0-2.37,0-3.56s0-2.24,0-3.12V47.6a9.67,9.67,0,0,0,0-1,4.51,4.51,0,0,0-.91-.08h-2.6c-.33,0-.66,0-1,0a6.39,6.39,0,0,0-1,.11l-1,2.77-.79,2.28-1.35-.13h0l-.81-.09-.37,0,.14-1.16ZM305.57,44.1h11.16l.14,2-2.8.69a3.58,3.58,0,0,0-.16,1c0,.56-.07,1.31-.09,2.24,0,.46,0,1,0,1.49v8.7c0,1.23,0,2.32,0,3.26s.05,1.69.09,2.25a4.37,4.37,0,0,0,.16,1.06l2.8.69-.14,2H305.57l-.13-2,2.8-.69a4.55,4.55,0,0,0,.13-1.08c0-.58.06-1.34.09-2.27s.05-2,.05-3.22V53.39c0-.67,0-1.29,0-1.86s0-1,0-1.44c0-.94-.06-1.7-.09-2.29a3.32,3.32,0,0,0-.13-1l-2.8-.69Zm-43.86,7.56a12.37,12.37,0,0,1,1.4-2.39,11.76,11.76,0,0,1,.86-1,11.1,11.1,0,0,1,.85-.83h0a14.3,14.3,0,0,1,4.84-2.74,16.61,16.61,0,0,1,1.65-.46c.28-.07.57-.12.86-.17s.56-.1.85-.14a20.71,20.71,0,0,1,2.89-.2,21.41,21.41,0,0,1,4,.39,15.91,15.91,0,0,1,3.51,1l.31,6.39v0l-2.53.17-.08-.22-1.39-4.23a6.25,6.25,0,0,0-2-.69,11.41,11.41,0,0,0-2.24-.22,10.72,10.72,0,0,0-2.49.28,7,7,0,0,0-.85.27,7.45,7.45,0,0,0-.86.38c-.19.1-.39.19-.56.3a7.64,7.64,0,0,0-2.83,3.44c-.06.15-.11.31-.17.47a13.1,13.1,0,0,0-.78,4.63,14.34,14.34,0,0,0,.76,4.84c.11.3.23.58.35.86a1.21,1.21,0,0,0,.09.2c.11.23.24.44.37.66a8.78,8.78,0,0,0,2.83,3.08,8.12,8.12,0,0,0,4.54,1.3,9.1,9.1,0,0,0,2.44-.35,5.68,5.68,0,0,0,2.05-1l1.69-3.94,2.71.26-1.29,5.67a16.43,16.43,0,0,1-3.71,1.47,17.57,17.57,0,0,1-4.78.65,17.82,17.82,0,0,1-7.43-1.47,11.74,11.74,0,0,1-5.12-4.33,11,11,0,0,1-.74-1.35,9.11,9.11,0,0,1-.35-.86c-.1-.28-.2-.56-.28-.86a14.44,14.44,0,0,1-.49-3.89A13.3,13.3,0,0,1,261.71,51.66Zm-36.18-6.48,3.38-1.86L236.45,61l.37.86.36.86,1.74,4.08,2.27.69-.13,2h-10.9l-.13-2,2.8-.69-1.74-4.08-.35-.82-1.58,0h-.29c-.78,0-1.63,0-2.58,0s-1.83,0-2.59,0h-.28l-1.78.06-.29.79-1.46,4.08,2.8.69-.14,2h-8.22l-.14-2,2.27-.69,1.71-4.08.36-.86.36-.86ZM167.9,44.1h6.72L188.9,60.38v-6c0-1.5,0-2.8,0-3.91s0-2-.09-2.62a4.34,4.34,0,0,0-.15-1.12l-3.11-.69.13-2h9.12l.13,2-2.8.69A9.38,9.38,0,0,0,192,47.9c-.05.64-.09,1.51-.11,2.62s0,2.41,0,3.91v8.86c0,1.24,0,2.37,0,3.38s0,2,0,3h-2.45l-5.94-7-.73-.86L182,61l-8.13-9.55v7.31c0,.8,0,1.55,0,2.24,0,.3,0,.58,0,.86s0,.58,0,.86v.16c0,1.17.07,2.07.11,2.71a4.15,4.15,0,0,0,.2,1.21l3.07.69-.13,2h-9.3l-.13-2,2.8-.69a6.14,6.14,0,0,0,.13-1.26q0-1,.09-2.76v-.06c0-.28,0-.57,0-.86s0-.56,0-.86c0-.7,0-1.45,0-2.24V52.44c0-.32,0-.61,0-.91h0c0-.63,0-1.23,0-1.79,0-.82-.06-1.49-.11-2a7.63,7.63,0,0,0-.11-.95l-.25-.06-2.55-.63Zm-48.55,0h6.71l6.52,7.43,7.76,8.85v-6c0-1.07,0-2,0-2.9,0-.35,0-.69,0-1,0-1.11,0-2-.09-2.62a4.64,4.64,0,0,0-.16-1.12L137,46.09l.13-2h9.12l.13,2-2.8.69a9.38,9.38,0,0,0-.11,1.12c-.05.64-.08,1.51-.11,2.62,0,.32,0,.66,0,1,0,.87,0,1.83,0,2.9v8.86c0,1.24,0,2.37,0,3.38s0,2,0,3h-2.45L125.42,51.53l-.07-.08v7.31c0,1.58,0,3,0,4.12s.07,2.07.12,2.71a3.82,3.82,0,0,0,.2,1.21l3.06.69-.13,2h-9.29l-.14-2,2.8-.69a5.88,5.88,0,0,0,.14-1.26q0-1,.09-2.76c0-1.19,0-2.53,0-4V52.44c0-.32,0-.61,0-.91,0-.63,0-1.23,0-1.79q0-1.23-.12-2a7.63,7.63,0,0,0-.11-.95l-2.8-.69ZM84.13,45.18l3.38-1.86,2,4.63,8,18.85,2.27.69-.14,2H88.76l-.14-2,2.8-.69-2.08-4.9-1.59,0c-.84,0-1.8,0-2.86,0s-2.06,0-2.87,0l-1.79.06L78.48,66.8l2.8.69-.13,2H72.92l-.13-2,2.27-.69,8.58-20.46ZM53,67.75a16.34,16.34,0,0,1-3.72,1.47,17.51,17.51,0,0,1-4.78.65,17.85,17.85,0,0,1-7.43-1.47A11.71,11.71,0,0,1,32,64.07a12.39,12.39,0,0,1-1.87-7,13.3,13.3,0,0,1,1.09-5.45,12,12,0,0,1,3.11-4.23,14.47,14.47,0,0,1,4.85-2.75,19.06,19.06,0,0,1,6.25-1,21.25,21.25,0,0,1,4,.39,15.85,15.85,0,0,1,3.52,1l.31,6.44-2.54.17L49.23,47.3a6.43,6.43,0,0,0-2-.69A11.59,11.59,0,0,0,45,46.39a8.5,8.5,0,0,0-4.76,1.23,7.69,7.69,0,0,0-2.82,3.44,12.68,12.68,0,0,0-1,5.1,13.26,13.26,0,0,0,1.2,5.9,9.1,9.1,0,0,0,3.2,3.74,8.14,8.14,0,0,0,4.54,1.3,9.18,9.18,0,0,0,2.45-.35,5.55,5.55,0,0,0,2-1l1.69-3.94,2.72.26Z" transform="translate(-2.89 -4.03)"/><path class="cls-1" d="M84.89,59.36c1.21,0,2.25,0,3.11-.06l.33,0L84.5,50.4l-3.33,8.87.58,0C82.57,59.34,83.61,59.36,84.89,59.36Z" transform="translate(-2.89 -4.03)"/><polygon class="cls-1" points="368.15 110.69 60.62 110.69 60.62 102.2 7.21 102.2 7.21 116.75 422.16 116.75 422.16 102.2 368.15 102.2 368.15 110.69"/><path class="cls-1" d="M226.29,59.36c1.22,0,2.25,0,3.11-.06l.34,0-3.83-8.88-3.33,8.87.57,0C224,59.34,225,59.36,226.29,59.36Z" transform="translate(-2.89 -4.03)"/><polygon class="cls-1" points="424.39 85.72 423.27 85.72 422.16 85.72 368.15 85.72 368.15 100.51 422.16 100.51 423.27 100.51 424.39 100.51 428.76 100.51 428.76 85.72 424.39 85.72"/><polygon class="cls-1" points="60.62 100.51 60.62 85.72 7.21 85.72 6.09 85.72 4.98 85.72 0 85.72 0 100.51 4.98 100.51 6.09 100.51 7.21 100.51 60.62 100.51"/><path class="cls-1" d="M90.14,101.69a4.92,4.92,0,0,0,2.11-1.92,6,6,0,0,0,0-5.77,4.92,4.92,0,0,0-2.11-1.92A7.15,7.15,0,0,0,87,91.41H83v11h4A7.15,7.15,0,0,0,90.14,101.69Z" transform="translate(-2.89 -4.03)"/><path class="cls-1" d="M321.16,91.41v6.37h3.57a4.72,4.72,0,0,0,3-.84,3.21,3.21,0,0,0,0-4.71,4.78,4.78,0,0,0-3-.82Z" transform="translate(-2.89 -4.03)"/><polygon class="cls-1" points="293.21 94.82 290.11 87.84 287.03 94.82 293.21 94.82"/><path class="cls-1" d="M166.85,91.41v6.34h3.57a4.78,4.78,0,0,0,3-.82,3.2,3.2,0,0,0,0-4.7,4.78,4.78,0,0,0-3-.82Z" transform="translate(-2.89 -4.03)"/><path class="cls-1" d="M65.52,88.9v23.8H369V81.58H65.52V88.9Zm14.39.84V88.9H87.1a10.79,10.79,0,0,1,4.31.84c.12.05.24.09.36.15a7.48,7.48,0,0,1,3.17,2.81,8.31,8.31,0,0,1,0,8.37,7.48,7.48,0,0,1-3.17,2.81,10.24,10.24,0,0,1-1.86.66,12,12,0,0,1-2.81.33H79.91V89.74Zm147.81,0,8.36,10V88.9h3v16h-2.52l-.28-.33-8.78-10.48v10.81h-3v-16H227Zm100.88-.16.31.16a5.36,5.36,0,0,1,2.12,1.8,5.44,5.44,0,0,1,.84,3,5.09,5.09,0,0,1-3.5,5l3.54,4.92.24.33h-3.28l-.25-.33-3.11-4.34-.64,0h-3.71v4.65h-3.05v-16h6.76A9.48,9.48,0,0,1,328.6,89.58Zm-33.68.16,6.87,14.8.15.33h-3.19l-.15-.33-1.49-3.36h-8.22l-1.47,3.36-.15.33h-3.15l.16-.33,6.85-14.8.39-.84h3ZM266.15,89a9.13,9.13,0,0,1,1.91.71c.21.11.41.22.6.34l-1,2.31a10.3,10.3,0,0,0-2.26-.94,8.76,8.76,0,0,0-2.28-.32,4.85,4.85,0,0,0-2.69.6,1.82,1.82,0,0,0-.88,1.57,1.4,1.4,0,0,0,.51,1.12,3.54,3.54,0,0,0,1.28.68c.52.17,1.22.36,2.11.58a23.75,23.75,0,0,1,3,.85,5.13,5.13,0,0,1,2,1.36,3.5,3.5,0,0,1,.84,2.46,4.13,4.13,0,0,1-.74,2.4,4.92,4.92,0,0,1-2.24,1.71l-.21.08a9.61,9.61,0,0,1-3.46.56,12.87,12.87,0,0,1-3.67-.52l-.12,0a7.79,7.79,0,0,1-2.69-1.36l1.06-2.3a8.37,8.37,0,0,0,2.48,1.27,9.39,9.39,0,0,0,2.94.49,5.23,5.23,0,0,0,2.74-.57,1.73,1.73,0,0,0,.9-1.51,1.46,1.46,0,0,0-.5-1.13,3.57,3.57,0,0,0-1.28-.7c-.52-.16-1.22-.35-2.11-.57a25.41,25.41,0,0,1-3.05-.86,5.06,5.06,0,0,1-2-1.36,3.58,3.58,0,0,1-.83-2.5,4.13,4.13,0,0,1,.74-2.41,4.48,4.48,0,0,1,1.4-1.29,5.37,5.37,0,0,1,.83-.43,6.86,6.86,0,0,1,1.35-.41,10.79,10.79,0,0,1,2.3-.23,12.19,12.19,0,0,1,2.33.23Zm-59.46.71v1.64h-8.95v4.16h7.94V98h-7.94v4.41H207v2.48H194.69v-16h12Zm-32.41-.16c.12,0,.21.11.32.16a5.26,5.26,0,0,1,2.11,1.8,5.36,5.36,0,0,1,.85,3,5.2,5.2,0,0,1-3.28,5,9.22,9.22,0,0,1-3.72.68h-3.71v4.61h-3v-16h6.76A9.39,9.39,0,0,1,174.28,89.58ZM143.5,89a9.22,9.22,0,0,1,1.92.71c.2.11.4.22.59.34l-1,2.31a10,10,0,0,0-2.25-.94,8.88,8.88,0,0,0-2.28-.32,4.83,4.83,0,0,0-2.69.6A1.8,1.8,0,0,0,137,93.3a1.42,1.42,0,0,0,.5,1.12,3.63,3.63,0,0,0,1.28.68c.52.17,1.22.36,2.12.58a23.08,23.08,0,0,1,3,.85,5.24,5.24,0,0,1,2,1.36,3.54,3.54,0,0,1,.83,2.46,4.06,4.06,0,0,1-.74,2.4,4.92,4.92,0,0,1-2.24,1.71l-.21.08a9.59,9.59,0,0,1-3.45.56,12.94,12.94,0,0,1-3.68-.52l-.12,0a7.64,7.64,0,0,1-2.68-1.36l1.05-2.3a8.5,8.5,0,0,0,2.48,1.27,9.45,9.45,0,0,0,3,.49,5.19,5.19,0,0,0,2.73-.57,1.72,1.72,0,0,0,.91-1.51,1.43,1.43,0,0,0-.51-1.13,3.49,3.49,0,0,0-1.28-.7c-.51-.16-1.22-.35-2.11-.57a25.18,25.18,0,0,1-3-.86,5.09,5.09,0,0,1-2-1.36,3.63,3.63,0,0,1-.83-2.5,4.21,4.21,0,0,1,.74-2.41,4.59,4.59,0,0,1,1.4-1.29,6.47,6.47,0,0,1,.83-.43,6.76,6.76,0,0,1,1.36-.41,10.76,10.76,0,0,1,2.29-.23,12,12,0,0,1,2.33.23Zm-27.06.71v15.13h-3.06v-16h3.06Zm245.68,0-5.91,9.5v5.63h-3V99.28l-5.93-9.54-.53-.84H350l.53.84,4.29,6.94,4.33-6.94.53-.84h3Z" transform="translate(-2.89 -4.03)"/></svg>