<svg id="Layer_1" data-name="Layer 1" xmlns="http://www.w3.org/2000/svg" viewBox="0 0 402.84 184.62"><defs><style>.cls-1{fill:#d9ab73;}</style></defs><path class="cls-1" d="M315.36,66.31l-.76-1c-5.06,2.48-10,5.13-14.93,7.79a63.57,63.57,0,0,0-46.56-23.74c-.75-5.54-1.5-11.1-2.47-16.65h-1.28c-1,5.55-1.72,11.11-2.47,16.65a63.55,63.55,0,0,0-44.41,21.19c-4.79-2.9-9.57-5.82-14.51-8.57l-.79,1c3.69,4.26,7.55,8.32,11.39,12.4a63.36,63.36,0,0,0-12.29,35.9c1.91-.12,3.82-.18,5.75-.21a57.61,57.61,0,0,1,10.58-31.49L205,82l6.16,6.08c2.06,2,4,4.23,5.91,6.36a31.54,31.54,0,0,0,6.66,5.47,51.11,51.11,0,0,0,7.86,4c.86.34,1.71.65,2.59.95a17.52,17.52,0,0,0-2,6.92h.42l2.4-.09a14.59,14.59,0,0,1,1.87-6,15.1,15.1,0,0,1,10.62-7.44,14.87,14.87,0,0,1,5,0,14.93,14.93,0,0,1,8.07,4.11,14.73,14.73,0,0,1,4,7.06l2.54,0h.33a17.37,17.37,0,0,0-1.21-3.65c.89-.24,1.77-.52,2.64-.8a50.74,50.74,0,0,0,8.05-3.55,31,31,0,0,0,6.93-5.11c2.08-2,4.09-4.15,6.26-6l6.45-5.77,2.48-2.32A57.61,57.61,0,0,1,308,113h5.74a63.38,63.38,0,0,0-10.4-34.9C307.39,74.24,311.44,70.37,315.36,66.31Zm-76.69,32.9c-.46-.81-.95-1.57-1.45-2.34a52.9,52.9,0,0,0-5.5-6.87A31.45,31.45,0,0,0,225,84.65c-2.48-1.49-5-2.88-7.44-4.48l-7.23-4.75-2.88-1.8a57.82,57.82,0,0,1,38.74-18.49l-.4,3.38-.87,8.61c-.25,2.86-.8,5.73-1.21,8.6a31,31,0,0,0-.06,8.61,49.74,49.74,0,0,0,1.87,8.6c.27.87.56,1.73.89,2.59A17.88,17.88,0,0,0,238.67,99.21ZM291.6,77.55l-7.47,4.36c-2.47,1.47-5.11,2.72-7.67,4.08a31.26,31.26,0,0,0-7,5,53.51,53.51,0,0,0-5.86,6.56c-.53.74-1.07,1.49-1.58,2.27a17.78,17.78,0,0,0-8.41-4.31c.33-.86.62-1.72.89-2.59a50.73,50.73,0,0,0,1.88-8.6,31.43,31.43,0,0,0-.07-8.61c-.41-2.87-.95-5.74-1.21-8.6l-.87-8.61-.4-3.38A57.76,57.76,0,0,1,294.57,75.9Z" transform="translate(-48.58 -32.69)"/><path class="cls-1" d="M260.91,109.48c-3,.13-6.19.37-9.46.71a3.08,3.08,0,0,0-1.45-.36,3.17,3.17,0,0,0-2.05.75h0c-3.08.37-6.15.65-9.29.85a11.46,11.46,0,0,1,20.55-5.27A11.15,11.15,0,0,1,260.91,109.48Z" transform="translate(-48.58 -32.69)"/><path class="cls-1" d="M318.85,118q-6.48.63-13,.62-2.16,0-4.32-.06c-5.81-.24-11.49-.77-17.16-.86l-4.78,0c-4.11,0-8.21.06-12.31.25-5.7.17-11.28.61-17,1.33a168.45,168.45,0,0,1-17.42,1.08c-5.81,0-11.6-.1-17.4-.64-2.91-.25-5.81-.57-8.67-1l-8.52-1.31c-5.65-.87-11.37-1.36-17.12-1.92q6.47-.63,13-.63c1.46,0,2.9,0,4.36.08,5.82.24,11.49.75,17.16.84,1.56,0,3.13,0,4.7,0,4.13,0,8.27-.07,12.39-.25,5.7-.19,11.28-.61,17-1.34a168.82,168.82,0,0,1,17.43-1.08c5.81,0,11.6.09,17.4.64,2.91.24,5.8.57,8.67,1s5.69.91,8.52,1.31C307.39,117,313.1,117.45,318.85,118Z" transform="translate(-48.58 -32.69)"/><path class="cls-1" d="M192.63,127.06a102.64,102.64,0,0,1,14.47-.5c4.86.22,9.58.7,14.3.77s9.49,0,14.22-.2a139.43,139.43,0,0,0,14.1-1.21,128.37,128.37,0,0,1,14.56-1c4.86,0,9.69.09,14.54.58,2.42.23,4.84.53,7.23.93s4.73.83,7.08,1.2c4.69.79,9.46,1.24,14.25,1.76a104.16,104.16,0,0,1-14.47.51c-4.86-.22-9.59-.7-14.3-.77s-9.49,0-14.22.2a133.87,133.87,0,0,0-14.1,1.21,128.52,128.52,0,0,1-14.56,1c-4.86,0-9.69-.09-14.54-.59-2.42-.22-4.84-.52-7.23-.92l-7.08-1.2C202.19,128,197.42,127.58,192.63,127.06Z" transform="translate(-48.58 -32.69)"/><path class="cls-1" d="M71.57,196.05c-13.63,0-23-8.05-23-21.51s10.5-21.62,22.53-21.62c5.08,0,9.47,1.26,12.78,3.88l1.43-3.94H90.4v16.83H84.75c-.63-7.3-5.36-11.63-11.92-11.63-8.22,0-13.41,6.16-13.41,16.48s4.85,16.37,13.41,16.37c7.13,0,11.92-3.7,11.92-11.58h6.16C91,190.17,82.92,196.05,71.57,196.05Z" transform="translate(-48.58 -32.69)"/><path class="cls-1" d="M94.94,194.91v-4.17c4.62-.17,5.3.17,9.13-9.35L115,154.18H124L134.87,182c2.85,7.36,3.54,8.55,8.67,8.78v4.17H120.72v-4.17c5.65-.34,5-1.37,2.91-7.7h-14c-2.28,6.33-2,7.36,3.71,7.7v4.17Zm27.21-16.43-5.08-15.8-5.82,15.8Z" transform="translate(-48.58 -32.69)"/><path class="cls-1" d="M148.69,194.91v-4.17c6.22-.17,6.39-.45,6.39-8.78v-16.2c0-3.88-.4-5.65-1.26-6.45s-2.45-1-5.13-1v-4.1h16L185.08,182V168.27c0-9.42-.17-9.87-6.39-10v-4.1h19.63v4.1c-6.22.12-7,.57-7,10v26.64h-8.73l-21.28-28.13V182c0,8.33.17,8.61,6.39,8.78v4.17Z" transform="translate(-48.58 -32.69)"/><path class="cls-1" d="M203.6,194.91v-4.17c6.22-.17,6.39-.45,6.39-8.78v-16.2c0-3.88-.39-5.65-1.25-6.45s-2.45-1-5.14-1v-4.1h16L240,182V168.27c0-9.42-.17-9.87-6.39-10v-4.1h19.62v4.1c-6.21.12-6.95.57-6.95,10v26.64h-8.73l-21.28-28.13V182c0,8.33.17,8.61,6.39,8.78v4.17Z" transform="translate(-48.58 -32.69)"/><path class="cls-1" d="M254.7,194.91v-4.17c4.62-.17,5.31.17,9.13-9.35l10.89-27.21h9.07L294.63,182c2.86,7.36,3.54,8.55,8.67,8.78v4.17H280.49v-4.17c5.64-.34,5-1.37,2.9-7.7h-14c-2.28,6.33-2,7.36,3.71,7.7v4.17Zm27.21-16.43-5.07-15.8L271,178.48Z" transform="translate(-48.58 -32.69)"/><path class="cls-1" d="M308.45,194.91v-4.17c6.22-.17,6.39-.45,6.39-8.78V168.27c0-9.42-.17-9.87-6.39-10v-4.1h22.08c11.41,0,17.91,2,17.91,9.87,0,4.67-2.68,9.29-10.72,9.64V174c8.1.23,13.29,3.36,13.29,9.52,0,8.39-6.73,11.36-18.43,11.36ZM325.22,172h4.23c5.47,0,8.32-2,8.32-6.67,0-4.51-2.85-6.39-8.32-6.39h-4.23Zm6.17,18.09h1.54c4.79,0,7.41-2.46,7.41-6.79s-2.79-6.51-8.9-6.51h-6.22V183C325.22,188.23,326.42,190.12,331.39,190.12Z" transform="translate(-48.58 -32.69)"/><path class="cls-1" d="M355.41,194.91v-4.17c4.62-.17,5.31.17,9.13-9.35l10.9-27.21h9.07L395.35,182c2.85,7.36,3.53,8.55,8.67,8.78v4.17H381.2v-4.17c5.65-.34,5-1.37,2.91-7.7h-14c-2.29,6.33-2,7.36,3.7,7.7v4.17Zm27.22-16.43-5.08-15.8-5.82,15.8Z" transform="translate(-48.58 -32.69)"/><path class="cls-1" d="M414.51,194.91v-4.17c6.79-.17,7-.45,7-8.78v-3.71l-7.64-11.47c-3.66-5.42-4.68-8.27-10.9-8.44v-4.16h22.25v4.16c-5.82.17-4.74,2-1.2,7.13l5,7.3,5.36-7c3.65-4.74,4.11-7.19-2.05-7.42v-4.16h19.11v4.16c-5.76.17-8.1,4.45-11.47,9l-8.1,11V182c-.11,8.33.17,8.61,7,8.78v4.17Z" transform="translate(-48.58 -32.69)"/><path class="cls-1" d="M168.19,216v1.21h-5.82v-7.77H168v1.21h-4.23v2h3.75v1.19h-3.75V216Z" transform="translate(-48.58 -32.69)"/><path class="cls-1" d="M174.89,217.05a3.68,3.68,0,0,1-1.33-.67l.5-1.12a4,4,0,0,0,1.17.61,4.24,4.24,0,0,0,1.39.24,2.33,2.33,0,0,0,1.29-.28.82.82,0,0,0,.43-.73.72.72,0,0,0-.24-.55,1.92,1.92,0,0,0-.6-.34c-.25-.08-.58-.17-1-.27a12.05,12.05,0,0,1-1.44-.42,2.59,2.59,0,0,1-.94-.66,1.81,1.81,0,0,1-.39-1.22,2,2,0,0,1,.35-1.17,2.37,2.37,0,0,1,1-.84,4.37,4.37,0,0,1,1.72-.31,5.49,5.49,0,0,1,1.4.18,3.92,3.92,0,0,1,1.19.51l-.46,1.12a4.28,4.28,0,0,0-1.06-.45,3.77,3.77,0,0,0-1.08-.16,2.27,2.27,0,0,0-1.27.29.9.9,0,0,0-.41.76.69.69,0,0,0,.24.55,1.64,1.64,0,0,0,.6.33c.24.08.58.17,1,.28a10.63,10.63,0,0,1,1.42.41,2.62,2.62,0,0,1,1,.66,1.77,1.77,0,0,1,.39,1.2,2,2,0,0,1-.35,1.17,2.39,2.39,0,0,1-1.06.83,4.25,4.25,0,0,1-1.73.31A5.84,5.84,0,0,1,174.89,217.05Z" transform="translate(-48.58 -32.69)"/><path class="cls-1" d="M187.27,210.65H184.7v-1.22h6.59v1.22h-2.57v6.55h-1.45Z" transform="translate(-48.58 -32.69)"/><path class="cls-1" d="M201.08,215.4H197.2l-.77,1.8H195l3.49-7.77h1.42l3.51,7.77h-1.51Zm-.48-1.13-1.46-3.4-1.45,3.4Z" transform="translate(-48.58 -32.69)"/><path class="cls-1" d="M215.27,213.86a2,2,0,0,1,.38,1.23,1.8,1.8,0,0,1-.78,1.56,3.85,3.85,0,0,1-2.26.55h-3.86v-7.77h3.64a3.57,3.57,0,0,1,2.12.54,1.74,1.74,0,0,1,.74,1.48,1.89,1.89,0,0,1-.27,1,1.74,1.74,0,0,1-.73.69A2.08,2.08,0,0,1,215.27,213.86Zm-5.08-3.3v2.15h2a2.07,2.07,0,0,0,1.16-.28.89.89,0,0,0,.41-.79.91.91,0,0,0-.41-.8,2.07,2.07,0,0,0-1.16-.28Zm4,4.39c0-.75-.56-1.12-1.68-1.12h-2.33v2.24h2.33C213.64,216.07,214.2,215.69,214.2,215Z" transform="translate(-48.58 -32.69)"/><path class="cls-1" d="M221.58,209.43H223V216h4.06v1.22h-5.5Z" transform="translate(-48.58 -32.69)"/><path class="cls-1" d="M232.55,209.43H234v7.77h-1.45Z" transform="translate(-48.58 -32.69)"/><path class="cls-1" d="M241.17,217.05a3.55,3.55,0,0,1-1.32-.67l.49-1.12a4,4,0,0,0,1.17.61,4.29,4.29,0,0,0,1.4.24,2.35,2.35,0,0,0,1.29-.28.82.82,0,0,0,.43-.73.72.72,0,0,0-.24-.55,1.87,1.87,0,0,0-.61-.34q-.36-.12-1-.27a11.52,11.52,0,0,1-1.44-.42,2.51,2.51,0,0,1-.94-.66,1.76,1.76,0,0,1-.4-1.22,2.09,2.09,0,0,1,.35-1.17,2.4,2.4,0,0,1,1.06-.84,4.34,4.34,0,0,1,1.72-.31,5.54,5.54,0,0,1,1.4.18,4,4,0,0,1,1.19.51l-.46,1.12a4.28,4.28,0,0,0-1.06-.45,3.77,3.77,0,0,0-1.08-.16,2.27,2.27,0,0,0-1.27.29.89.89,0,0,0-.42.76.69.69,0,0,0,.24.55,1.69,1.69,0,0,0,.61.33c.24.08.57.17,1,.28a10.63,10.63,0,0,1,1.42.41,2.54,2.54,0,0,1,1,.66,1.72,1.72,0,0,1,.4,1.2,2.09,2.09,0,0,1-.35,1.17,2.51,2.51,0,0,1-1.06.83,4.25,4.25,0,0,1-1.73.31A6,6,0,0,1,241.17,217.05Z" transform="translate(-48.58 -32.69)"/><path class="cls-1" d="M258.79,209.43v7.77h-1.45v-3.33h-4v3.33h-1.44v-7.77h1.44v3.21h4v-3.21Z" transform="translate(-48.58 -32.69)"/><path class="cls-1" d="M271,216v1.21h-5.83v-7.77h5.67v1.21h-4.23v2h3.75v1.19h-3.75V216Z" transform="translate(-48.58 -32.69)"/><path class="cls-1" d="M276.92,209.43h3.39a4.76,4.76,0,0,1,2.21.49,3.59,3.59,0,0,1,1.5,1.36,4.17,4.17,0,0,1,0,4.07,3.68,3.68,0,0,1-1.5,1.37,4.89,4.89,0,0,1-2.21.48h-3.39Zm3.33,6.55a3.28,3.28,0,0,0,1.5-.33,2.43,2.43,0,0,0,1-.93,2.77,2.77,0,0,0,.35-1.4,2.81,2.81,0,0,0-.35-1.41,2.43,2.43,0,0,0-1-.93,3.28,3.28,0,0,0-1.5-.33h-1.89V216Z" transform="translate(-48.58 -32.69)"/><path class="cls-1" d="M302.64,216v1.22h-5.72v-1L300,213.3a3.47,3.47,0,0,0,.71-.87,1.64,1.64,0,0,0,.18-.73,1,1,0,0,0-.37-.84,1.71,1.71,0,0,0-1.07-.28,2.17,2.17,0,0,0-1.82.81l-1-.78a3,3,0,0,1,1.23-1,4.13,4.13,0,0,1,1.72-.34,3.16,3.16,0,0,1,2,.6,2,2,0,0,1,.75,1.63,2.83,2.83,0,0,1-.26,1.19,4.67,4.67,0,0,1-1,1.26L299,216Z" transform="translate(-48.58 -32.69)"/><path class="cls-1" d="M309.49,216.84a3.22,3.22,0,0,1-1.15-1.38,5.57,5.57,0,0,1,0-4.29,3.22,3.22,0,0,1,1.15-1.38,3.18,3.18,0,0,1,3.33,0,3.17,3.17,0,0,1,1.16,1.38,5.69,5.69,0,0,1,0,4.29,3.17,3.17,0,0,1-1.16,1.38,3.18,3.18,0,0,1-3.33,0Zm3-1.47a3.59,3.59,0,0,0,.48-2.05,3.62,3.62,0,0,0-.48-2.06,1.6,1.6,0,0,0-2.62,0,3.62,3.62,0,0,0-.48,2.06,3.59,3.59,0,0,0,.48,2.05,1.59,1.59,0,0,0,2.62,0Z" transform="translate(-48.58 -32.69)"/><path class="cls-1" d="M325.32,216v1.22h-5.73v-1l3.09-2.93a3.18,3.18,0,0,0,.7-.87,1.53,1.53,0,0,0,.19-.73,1,1,0,0,0-.37-.84,1.72,1.72,0,0,0-1.08-.28,2.18,2.18,0,0,0-1.82.81l-1-.78a3,3,0,0,1,1.22-1,4.21,4.21,0,0,1,1.73-.34,3.17,3.17,0,0,1,2,.6,2,2,0,0,1,.75,1.63,2.69,2.69,0,0,1-.27,1.19,4.31,4.31,0,0,1-1,1.26l-2.07,2Z" transform="translate(-48.58 -32.69)"/><path class="cls-1" d="M332.17,216.84a3.24,3.24,0,0,1-1.16-1.38,5.69,5.69,0,0,1,0-4.29,3.24,3.24,0,0,1,1.16-1.38,3,3,0,0,1,1.66-.47,3.07,3.07,0,0,1,1.67.47,3.24,3.24,0,0,1,1.16,1.38,5.69,5.69,0,0,1,0,4.29,3.24,3.24,0,0,1-1.16,1.38,3.07,3.07,0,0,1-1.67.47A3,3,0,0,1,332.17,216.84Zm3-1.47a4.55,4.55,0,0,0,0-4.11,1.51,1.51,0,0,0-1.31-.68,1.49,1.49,0,0,0-1.3.68,4.55,4.55,0,0,0,0,4.11,1.5,1.5,0,0,0,1.3.69A1.52,1.52,0,0,0,335.14,215.37Z" transform="translate(-48.58 -32.69)"/><polygon class="cls-1" points="398.01 180.91 297.95 182.97 297.95 178.84 398.01 180.91"/><polygon class="cls-1" points="4.27 180.91 104.34 178.84 104.34 182.97 4.27 180.91"/></svg>