<svg id="Layer_1" data-name="Layer 1" xmlns="http://www.w3.org/2000/svg" viewBox="0 0 349.04 118.85"><defs><style>.cls-1{fill:#d9ab73;}.cls-2{fill:none;}</style></defs><path class="cls-1" d="M346.08,20.28H101.32a59.46,59.46,0,0,1,9.12,11.61H346.08Z" transform="translate(0 -3.12)"/><path class="cls-2" d="M347.56,31.89H110.34a59.45,59.45,0,1,0-.56,62.21H349V31.89Zm-1.48,59.25H108.13l-.44.71A56.46,56.46,0,1,1,59.42,6.08a56.73,56.73,0,0,1,48.8,28l.43.74H346.08Z" transform="translate(0 -3.12)"/><path class="cls-2" d="M59.42,21.54a41,41,0,1,0,41,41A41,41,0,0,0,59.42,21.54Zm0,81.12A40.12,40.12,0,1,1,99.54,62.54,40.11,40.11,0,0,1,59.42,102.66Z" transform="translate(0 -3.12)"/><path class="cls-2" d="M59.42,22.42A40.12,40.12,0,1,0,99.54,62.54,40.12,40.12,0,0,0,59.42,22.42Zm0,79.35A39.23,39.23,0,1,1,98.65,62.54,39.28,39.28,0,0,1,59.42,101.77Z" transform="translate(0 -3.12)"/><path class="cls-1" d="M151.06,56.48a4.83,4.83,0,0,0-1.32-3.67,5.49,5.49,0,0,0-3.89-1.25h-2.46a2.13,2.13,0,0,0-.07.52c0,.25,0,.64,0,1.16v8.69h1.9a6,6,0,0,0,4.31-1.47A5.2,5.2,0,0,0,151.06,56.48Z" transform="translate(0 -3.12)"/><path class="cls-1" d="M234.66,51.56h-2.14c0,.22,0,.65,0,1.3s0,1.46-.05,2.44,0,2.08,0,3.32l0,4.6c.34.09.67.17,1,.23a10.73,10.73,0,0,0,1.73.14,5.68,5.68,0,0,0,4.07-1.4A5.58,5.58,0,0,0,240.72,58q0-3.31-1.71-4.85A6.22,6.22,0,0,0,234.66,51.56Z" transform="translate(0 -3.12)"/><path class="cls-1" d="M91.17,39.54A39.23,39.23,0,1,0,89.32,87.9h247.5V39.54ZM71.83,75.29a17.47,17.47,0,0,1-3.89,1.56,17.7,17.7,0,0,1-4.88.66,18.11,18.11,0,0,1-7.67-1.58A12.65,12.65,0,0,1,50,71.19a14.1,14.1,0,0,1-2-7.74,15,15,0,0,1,1.09-5.78,13,13,0,0,1,3.17-4.62,14.89,14.89,0,0,1,5-3.08,18.66,18.66,0,0,1,6.63-1.11,22.85,22.85,0,0,1,4.17.4,17.57,17.57,0,0,1,3.79,1.11l.33,6.73-2.37.19-1.47-4.64a6.61,6.61,0,0,0-2.25-.85,12.68,12.68,0,0,0-2.63-.29A9.36,9.36,0,0,0,58,53a8.92,8.92,0,0,0-3.18,4,14.51,14.51,0,0,0-1,5.62,15,15,0,0,0,1.33,6.63,9.65,9.65,0,0,0,3.6,4.16,9.32,9.32,0,0,0,5.06,1.43,9.81,9.81,0,0,0,2.66-.36,8.84,8.84,0,0,0,2.32-1L70.69,69l2.51.28Zm29.67-4.36c0,1,0,1.81.09,2.39a5.05,5.05,0,0,0,.17,1.11l2.94.67-.15,2h-11l-.1-2,2.89-.67a5,5,0,0,0,.17-1.09c0-.56.07-1.35.09-2.36s0-2.23,0-3.65v-3l-1.91-.09c-1.06,0-2.44,0-4.15,0s-3.19,0-4.26,0l-1.94.09v3c0,1.42,0,2.64,0,3.65s0,1.8.1,2.36a4.63,4.63,0,0,0,.16,1.09l2.94.67-.14,2H76.52l-.1-2,2.94-.67a4.66,4.66,0,0,0,.14-1.13c0-.6,0-1.41.07-2.42s0-2.19,0-3.55V59.09c0-1.39,0-2.6,0-3.62s0-1.84-.07-2.44a4,4,0,0,0-.14-1.09l-2.94-.67.1-2H87.46l.14,2-2.94.67a3.79,3.79,0,0,0-.16,1c0,.57-.08,1.36-.1,2.37s0,2.26,0,3.74v2.26c.55,0,1.21.09,2,.11,1.13,0,2.54,0,4.21,0s3,0,4.15,0c.75,0,1.38-.06,1.91-.11V59.09c0-1.48,0-2.73,0-3.74s-.05-1.8-.09-2.37a4.06,4.06,0,0,0-.17-1l-2.89-.67.1-2h11l.15,2-2.94.67a4.2,4.2,0,0,0-.17,1.06c0,.59-.08,1.38-.09,2.39s0,2.25,0,3.7v8.24Q101.47,69.41,101.5,70.93Zm28.63,6.44a23.93,23.93,0,0,0-2.65-.24c-.89,0-1.71,0-2.47,0H108.72l-.14-2,2.94-.67a5.46,5.46,0,0,0,.16-1.13c0-.6.08-1.41.1-2.42s0-2.19,0-3.55V59.09c0-1.39,0-2.6,0-3.62s0-1.84-.1-2.44a4.57,4.57,0,0,0-.16-1.09l-2.94-.67.14-2h15.06l1.66,0c.63,0,1.28,0,1.94-.07s1.3-.08,1.9-.14l1,6.53-2.32.34-1.66-4c-.32-.06-.62-.11-.92-.14s-.64,0-1,0h-4.79l-1.63,0a13,13,0,0,0-1.35.12c0,.19,0,.56,0,1.12s0,1.21,0,2,0,1.58,0,2.43v4.07h5.21c.56,0,1,0,1.46,0l.9,0,.52-3.27h2.18v9.33h-2.18l-.52-3.22q-.28,0-.9-.09c-.41,0-.9,0-1.46,0h-3.23l-1.44,0-.54,0v5.06c0,.76,0,1.49,0,2.18s0,1.3,0,1.8,0,.87,0,1.09c.51.07,1,.11,1.54.14s1.14,0,1.87,0H124l1.73,0c.43,0,.76,0,1-.07l.64-.1,2.51-4.54,2.28.42Zm31,0a5.7,5.7,0,0,1-1.16.17l-1.16,0a9.66,9.66,0,0,1-4-.8,10.08,10.08,0,0,1-3.31-2.61,26.05,26.05,0,0,1-3.17-4.83l-2.64-5.07h-2.39v3.08c0,1.2,0,2.27,0,3.22s.05,1.75.09,2.39.09,1.12.12,1.4l2.75.76-.14,2H135.62l-.14-2,3-.76q0-.28,0-1c0-.49,0-1.06,0-1.73s0-1.36,0-2.1,0-1.47,0-2.16V59.09c0-1.42,0-2.64,0-3.65s0-1.81-.1-2.41a3.91,3.91,0,0,0-.17-1.09l-2.93-.67.14-2h11c3.19,0,5.59.57,7.22,1.72a6,6,0,0,1,2.44,5.24,6.78,6.78,0,0,1-1.35,4.14,8.85,8.85,0,0,1-3.69,2.84c-.33.14-.66.27-1,.38l4.53,6.61A22.23,22.23,0,0,0,156.89,73,9,9,0,0,0,159,74.67a9.1,9.1,0,0,0,2.23.85Zm27.66,0a5.7,5.7,0,0,1-1.16.17l-1.16,0a9.66,9.66,0,0,1-4-.8,10,10,0,0,1-3.31-2.61A26.55,26.55,0,0,1,176,69.32l-2.63-5.07H171v3.08c0,1.2,0,2.27,0,3.22s.05,1.75.09,2.39.09,1.12.12,1.4l2.75.76-.14,2H163.28l-.14-2,3-.76q0-.28,0-1c0-.49,0-1.06,0-1.73s0-1.36,0-2.1,0-1.47,0-2.16V59.09c0-1.42,0-2.64,0-3.65s0-1.81-.09-2.41a3.91,3.91,0,0,0-.17-1.09L163,51.27l.14-2h11c3.19,0,5.59.57,7.22,1.72a6,6,0,0,1,2.44,5.24,6.78,6.78,0,0,1-1.35,4.14,8.82,8.82,0,0,1-3.7,2.84,9.86,9.86,0,0,1-1,.38l4.53,6.61A22.23,22.23,0,0,0,184.55,73a8.4,8.4,0,0,0,4.31,2.48Zm22.07-25.43-8.34,13v3.16c0,1,0,1.88,0,2.62s0,1.37.05,1.87a8.71,8.71,0,0,0,.09,1.21,4.38,4.38,0,0,1,.07.59l3.32.62-.1,2H194.35l-.09-2,3.31-.62c0-.09,0-.29.05-.59s.06-.7.09-1.21.06-1.12.07-1.87,0-1.61,0-2.62V65.42l-8.24-13.48-2.42-.67.1-2H197.9l.14,2-2.88.67,6.24,10.23,6.07-10.23-3.32-.67.15-2h8.85l.15,2Zm33.58,10a9.11,9.11,0,0,1-3.77,3.1,12.57,12.57,0,0,1-5.42,1.12,18.21,18.21,0,0,1-1.87-.1q-.48,0-.93-.12v1.64c0,1.51,0,2.75,0,3.71s.07,1.69.1,2.16a7.43,7.43,0,0,0,.09.9l3.89.66-.14,2.09h-11.7l-.1-2,2.75-.67a3.23,3.23,0,0,0,.14-.94c0-.51.06-1.24.07-2.21s0-2.2,0-3.71l0-8.95c0-1.46,0-2.66,0-3.6s-.06-1.68-.08-2.18a2.43,2.43,0,0,0-.11-.9l-2.94-.67.09-2h10.71c3.38,0,6,.69,7.79,2.08a7.08,7.08,0,0,1,2.72,6A7.94,7.94,0,0,1,244.46,61.93ZM271,77.37a23.93,23.93,0,0,0-2.65-.24c-.89,0-1.71,0-2.47,0H249.62l-.14-2,2.94-.67a5.46,5.46,0,0,0,.16-1.13c0-.6.08-1.41.1-2.42s0-2.19,0-3.55V59.09c0-1.39,0-2.6,0-3.62s-.05-1.84-.1-2.44a4.57,4.57,0,0,0-.16-1.09l-2.94-.67.14-2h15.06l1.66,0c.63,0,1.28,0,1.94-.07s1.3-.08,1.9-.14l1,6.53-2.32.34-1.66-4c-.32-.06-.62-.11-.92-.14s-.64,0-1,0h-4.79l-1.63,0a13,13,0,0,0-1.35.12c0,.19,0,.56,0,1.12s0,1.21-.05,2,0,1.58,0,2.43v4.07h5.21c.56,0,1.05,0,1.46,0l.9,0,.53-3.27h2.17v9.33h-2.17L265,64.25q-.28,0-.9-.09c-.41,0-.9,0-1.46,0h-3.22l-1.45,0-.54,0v5.06c0,.76,0,1.49,0,2.18s0,1.3.05,1.8,0,.87,0,1.09c.51.07,1,.11,1.54.14s1.14,0,1.87,0h3.93l1.73,0c.43,0,.76,0,1-.07l.63-.1,2.51-4.54,2.28.42Zm31.12-.28H291.58l-.09-2,2.94-.67L292,68.51l-1.83,0c-1,0-2,0-3.06,0s-2,0-3,0l-2.27.07-2.06,5.89,2.94.67-.1,2H274.3l-.15-2,2.42-.67,9.66-24.15,3.18-1.85,10.51,26,2.37.67Zm29.26,0h-12l-.14-2,2.75-.48c-.26-.34-.51-.7-.76-1.06s-.59-.78-1-1.26l-6.82-7.91h-1.32v2.94c0,2,0,3.69.07,4.9s.09,2,.12,2.2l2.75.67-.15,2H304.37l-.14-2,2.94-.67a15.8,15.8,0,0,0,.14-2.2c0-1.21.05-2.85.05-4.9V59.09c0-1.39,0-2.6,0-3.62s0-1.84-.07-2.44a4,4,0,0,0-.14-1.09l-2.94-.67.1-2h10.94l.14,2-2.94.67a3.92,3.92,0,0,0-.16,1.06c-.05.59-.08,1.38-.1,2.39s0,2.25,0,3.7v3.26l1.7-.42,9.76-10.09-2.94-.57.15-2h9.61l.1,2.08-2.85.47-10.23,9.54,8.29,9.5c.6.67,1.11,1.24,1.52,1.73s.76.89,1.06,1.18.55.57.74.79l2.36.47Z" transform="translate(0 -3.12)"/><path class="cls-1" d="M286.71,55.23,282.8,65.9l.73,0c1,0,2.15.07,3.6.07s2.62,0,3.6-.07h.33Z" transform="translate(0 -3.12)"/><path class="cls-1" d="M178.72,56.48a4.83,4.83,0,0,0-1.32-3.67,5.49,5.49,0,0,0-3.89-1.25h-2.46a2.13,2.13,0,0,0-.07.52c0,.25,0,.64,0,1.16v8.69h1.9a6,6,0,0,0,4.31-1.47A5.2,5.2,0,0,0,178.72,56.48Z" transform="translate(0 -3.12)"/><path class="cls-1" d="M118.62,101.8h3.55a5.39,5.39,0,0,1,2.28.44,3.38,3.38,0,0,1,1.47,1.26,3.53,3.53,0,0,1,.51,1.92,5.19,5.19,0,0,1-.69,2.7,4.6,4.6,0,0,1-1.92,1.81,6.24,6.24,0,0,1-2.86.64h-4.09Zm2.39,7.39a4,4,0,0,0,2-.48,3.24,3.24,0,0,0,1.31-1.31,3.87,3.87,0,0,0,.45-1.88,2.16,2.16,0,0,0-.71-1.73,3.11,3.11,0,0,0-2.08-.62h-2l-1.2,6Z" transform="translate(0 -3.12)"/><path class="cls-1" d="M129,101.8h1.63l-1.76,8.77h-1.62Z" transform="translate(0 -3.12)"/><path class="cls-1" d="M132.14,110.4a3.86,3.86,0,0,1-1.45-.74l.69-1.27a4.23,4.23,0,0,0,1.3.69,4.89,4.89,0,0,0,1.55.26,3.06,3.06,0,0,0,1.54-.33,1,1,0,0,0,.57-.91.75.75,0,0,0-.23-.55,2,2,0,0,0-.58-.35,8.85,8.85,0,0,0-1-.32,9.75,9.75,0,0,1-1.38-.48,2.42,2.42,0,0,1-.9-.69,1.86,1.86,0,0,1-.38-1.21,2.36,2.36,0,0,1,.49-1.49,3.2,3.2,0,0,1,1.34-1,5.37,5.37,0,0,1,2-.35,7,7,0,0,1,1.61.19,4.68,4.68,0,0,1,1.32.55L138,103.7a3.94,3.94,0,0,0-1.1-.5,4.55,4.55,0,0,0-1.28-.18,2.89,2.89,0,0,0-1.55.36,1.08,1.08,0,0,0-.57,1,.74.74,0,0,0,.24.56,1.78,1.78,0,0,0,.58.36q.33.14,1,.33a12.2,12.2,0,0,1,1.35.46,2.36,2.36,0,0,1,.89.67,1.68,1.68,0,0,1,.37,1.14,2.42,2.42,0,0,1-.48,1.5,3.05,3.05,0,0,1-1.36,1,5.37,5.37,0,0,1-2,.35A6.29,6.29,0,0,1,132.14,110.4Z" transform="translate(0 -3.12)"/><path class="cls-1" d="M146.69,102.49a2.35,2.35,0,0,1,.87,2,3.52,3.52,0,0,1-.5,1.92,3.24,3.24,0,0,1-1.46,1.24,5.26,5.26,0,0,1-2.22.44h-2.14l-.52,2.53h-1.63l1.76-8.77h3.38A3.87,3.87,0,0,1,146.69,102.49Zm-1.41,3.64a1.89,1.89,0,0,0,.64-1.54,1.24,1.24,0,0,0-.48-1.06,2.27,2.27,0,0,0-1.38-.36H142.2l-.69,3.49h1.93A2.84,2.84,0,0,0,145.28,106.13Z" transform="translate(0 -3.12)"/><path class="cls-1" d="M151.16,103.16l-.45,2.28H155l-.27,1.34h-4.26L150,109.2h5l-.28,1.37h-6.57l1.75-8.77h6.4l-.27,1.36Z" transform="translate(0 -3.12)"/><path class="cls-1" d="M166,101.8l-1.76,8.77H162.9l-3.59-6.14-1.23,6.14h-1.62l1.76-8.77h1.34l3.6,6.14,1.22-6.14Z" transform="translate(0 -3.12)"/><path class="cls-1" d="M167.54,110.4a4,4,0,0,1-1.46-.74l.69-1.27a4.41,4.41,0,0,0,1.31.69,4.85,4.85,0,0,0,1.55.26,3.11,3.11,0,0,0,1.54-.33,1,1,0,0,0,.57-.91.72.72,0,0,0-.24-.55,1.78,1.78,0,0,0-.57-.35,8.85,8.85,0,0,0-1-.32,9.75,9.75,0,0,1-1.38-.48,2.42,2.42,0,0,1-.9-.69,1.86,1.86,0,0,1-.38-1.21,2.42,2.42,0,0,1,.48-1.49,3.3,3.3,0,0,1,1.35-1,5.35,5.35,0,0,1,2-.35,7,7,0,0,1,1.62.19,4.68,4.68,0,0,1,1.32.55l-.64,1.29a4,4,0,0,0-1.11-.5,4.48,4.48,0,0,0-1.27-.18,2.87,2.87,0,0,0-1.55.36,1.08,1.08,0,0,0-.57,1,.74.74,0,0,0,.24.56,1.85,1.85,0,0,0,.57.36q.34.14,1,.33a12.46,12.46,0,0,1,1.36.46,2.36,2.36,0,0,1,.89.67,1.68,1.68,0,0,1,.37,1.14,2.42,2.42,0,0,1-.48,1.5,3,3,0,0,1-1.37,1,5.32,5.32,0,0,1-2,.35A6.24,6.24,0,0,1,167.54,110.4Z" transform="translate(0 -3.12)"/><path class="cls-1" d="M180.67,108.54h-4.41l-1.27,2h-1.74l5.7-8.77h1.62l2.18,8.77h-1.62Zm-.3-1.28-.89-3.86-2.42,3.86Z" transform="translate(0 -3.12)"/><path class="cls-1" d="M191.7,106.58a3.59,3.59,0,0,1-1.9,1.21l1.57,2.78h-1.73L188.2,108H186l-.5,2.57h-1.64l1.75-8.77H189a3.87,3.87,0,0,1,2.46.69,2.35,2.35,0,0,1,.87,2A3.4,3.4,0,0,1,191.7,106.58Zm-1.62-.45a1.89,1.89,0,0,0,.65-1.54,1.24,1.24,0,0,0-.48-1.06,2.28,2.28,0,0,0-1.39-.36H187l-.7,3.49h1.94A2.88,2.88,0,0,0,190.08,106.13Z" transform="translate(0 -3.12)"/><path class="cls-1" d="M197.27,107.57l-.6,3h-1.62l.62-3.11-2.3-5.66H195l1.73,4.28,3.46-4.28h1.7Z" transform="translate(0 -3.12)"/><path class="cls-1" d="M286.71,55.23,282.8,65.9l.73,0c1,0,2.15.07,3.6.07s2.62,0,3.6-.07h.33Z" transform="translate(0 -3.12)"/><path class="cls-1" d="M151.06,56.48a4.83,4.83,0,0,0-1.32-3.67,5.49,5.49,0,0,0-3.89-1.25h-2.46a2.13,2.13,0,0,0-.07.52c0,.25,0,.64,0,1.16v8.69h1.9a6,6,0,0,0,4.31-1.47A5.2,5.2,0,0,0,151.06,56.48Z" transform="translate(0 -3.12)"/><path class="cls-1" d="M178.72,56.48a4.83,4.83,0,0,0-1.32-3.67,5.49,5.49,0,0,0-3.89-1.25h-2.46a2.13,2.13,0,0,0-.07.52c0,.25,0,.64,0,1.16v8.69h1.9a6,6,0,0,0,4.31-1.47A5.2,5.2,0,0,0,178.72,56.48Z" transform="translate(0 -3.12)"/><path class="cls-1" d="M234.66,51.56h-2.14c0,.22,0,.65,0,1.3s0,1.46-.05,2.44,0,2.08,0,3.32l0,4.6c.34.09.67.17,1,.23a10.73,10.73,0,0,0,1.73.14,5.68,5.68,0,0,0,4.07-1.4A5.58,5.58,0,0,0,240.72,58q0-3.31-1.71-4.85A6.22,6.22,0,0,0,234.66,51.56Z" transform="translate(0 -3.12)"/><path class="cls-1" d="M108.65,34.86l-.43-.74A56.47,56.47,0,1,0,59.42,119a56.1,56.1,0,0,0,48.27-27.15l.44-.71h238V34.86ZM101.5,70.93c0,1,0,1.81.09,2.39a5.05,5.05,0,0,0,.17,1.11l2.94.67-.15,2H97.76a41,41,0,1,1,.46-27.8h6.33l.15,2-2.94.67a4.2,4.2,0,0,0-.17,1.06c0,.59-.08,1.38-.09,2.39s0,2.25,0,3.7v8.24Q101.47,69.41,101.5,70.93Zm28.63,6.44a23.93,23.93,0,0,0-2.65-.24c-.89,0-1.71,0-2.47,0H108.72l-.14-2,2.94-.67a5.46,5.46,0,0,0,.16-1.13c0-.6.08-1.41.1-2.42s0-2.19,0-3.55V59.09c0-1.39,0-2.6,0-3.62s0-1.84-.1-2.44a4.57,4.57,0,0,0-.16-1.09l-2.94-.67.14-2h15.06l1.66,0c.63,0,1.28,0,1.94-.07s1.3-.08,1.9-.14l1,6.53-2.32.34-1.66-4c-.32-.06-.62-.11-.92-.14s-.64,0-1,0h-4.79l-1.63,0a13,13,0,0,0-1.35.12c0,.19,0,.56,0,1.12s0,1.21,0,2,0,1.58,0,2.43v4.07h5.21c.56,0,1,0,1.46,0l.9,0,.52-3.27h2.18v9.33h-2.18l-.52-3.22q-.28,0-.9-.09c-.41,0-.9,0-1.46,0h-3.23l-1.44,0-.54,0v5.06c0,.76,0,1.49,0,2.18s0,1.3,0,1.8,0,.87,0,1.09c.51.07,1,.11,1.54.14s1.14,0,1.87,0H124l1.73,0c.43,0,.76,0,1-.07l.64-.1,2.51-4.54,2.28.42Zm31,0a5.7,5.7,0,0,1-1.16.17l-1.16,0a9.66,9.66,0,0,1-4-.8,10.08,10.08,0,0,1-3.31-2.61,26.05,26.05,0,0,1-3.17-4.83l-2.64-5.07h-2.39v3.08c0,1.2,0,2.27,0,3.22s.05,1.75.09,2.39.09,1.12.12,1.4l2.75.76-.14,2H135.62l-.14-2,3-.76q0-.28,0-1c0-.49,0-1.06,0-1.73s0-1.36,0-2.1,0-1.47,0-2.16V59.09c0-1.42,0-2.64,0-3.65s0-1.81-.1-2.41a3.91,3.91,0,0,0-.17-1.09l-2.93-.67.14-2h11c3.19,0,5.59.57,7.22,1.72a6,6,0,0,1,2.44,5.24,6.78,6.78,0,0,1-1.35,4.14,8.85,8.85,0,0,1-3.69,2.84c-.33.14-.66.27-1,.38l4.53,6.61A22.23,22.23,0,0,0,156.89,73,9,9,0,0,0,159,74.67a9.1,9.1,0,0,0,2.23.85Zm27.66,0a5.7,5.7,0,0,1-1.16.17l-1.16,0a9.66,9.66,0,0,1-4-.8,10,10,0,0,1-3.31-2.61A26.55,26.55,0,0,1,176,69.32l-2.63-5.07H171v3.08c0,1.2,0,2.27,0,3.22s.05,1.75.09,2.39.09,1.12.12,1.4l2.75.76-.14,2H163.28l-.14-2,3-.76q0-.28,0-1c0-.49,0-1.06,0-1.73s0-1.36,0-2.1,0-1.47,0-2.16V59.09c0-1.42,0-2.64,0-3.65s0-1.81-.09-2.41a3.91,3.91,0,0,0-.17-1.09L163,51.27l.14-2h11c3.19,0,5.59.57,7.22,1.72a6,6,0,0,1,2.44,5.24,6.78,6.78,0,0,1-1.35,4.14,8.82,8.82,0,0,1-3.7,2.84,9.86,9.86,0,0,1-1,.38l4.53,6.61A22.23,22.23,0,0,0,184.55,73a8.4,8.4,0,0,0,4.31,2.48Zm22.07-25.43-8.34,13v3.16c0,1,0,1.88,0,2.62s0,1.37.05,1.87a8.71,8.71,0,0,0,.09,1.21,4.38,4.38,0,0,1,.07.59l3.32.62-.1,2H194.35l-.09-2,3.31-.62c0-.09,0-.29.05-.59s.06-.7.09-1.21.06-1.12.07-1.87,0-1.61,0-2.62V65.42l-8.24-13.48-2.42-.67.1-2H197.9l.14,2-2.88.67,6.24,10.23,6.07-10.23-3.32-.67.15-2h8.85l.15,2Zm33.58,10a9.11,9.11,0,0,1-3.77,3.1,12.57,12.57,0,0,1-5.42,1.12,18.21,18.21,0,0,1-1.87-.1q-.48,0-.93-.12v1.64c0,1.51,0,2.75,0,3.71s.07,1.69.1,2.16a7.43,7.43,0,0,0,.09.9l3.89.66-.14,2.09h-11.7l-.1-2,2.75-.67a3.23,3.23,0,0,0,.14-.94c0-.51.06-1.24.07-2.21s0-2.2,0-3.71l0-8.95c0-1.46,0-2.66,0-3.6s-.06-1.68-.08-2.18a2.43,2.43,0,0,0-.11-.9l-2.94-.67.09-2h10.71c3.38,0,6,.69,7.79,2.08a7.08,7.08,0,0,1,2.72,6A7.94,7.94,0,0,1,244.46,61.93ZM271,77.37a23.93,23.93,0,0,0-2.65-.24c-.89,0-1.71,0-2.47,0H249.62l-.14-2,2.94-.67a5.46,5.46,0,0,0,.16-1.13c0-.6.08-1.41.1-2.42s0-2.19,0-3.55V59.09c0-1.39,0-2.6,0-3.62s-.05-1.84-.1-2.44a4.57,4.57,0,0,0-.16-1.09l-2.94-.67.14-2h15.06l1.66,0c.63,0,1.28,0,1.94-.07s1.3-.08,1.9-.14l1,6.53-2.32.34-1.66-4c-.32-.06-.62-.11-.92-.14s-.64,0-1,0h-4.79l-1.63,0a13,13,0,0,0-1.35.12c0,.19,0,.56,0,1.12s0,1.21-.05,2,0,1.58,0,2.43v4.07h5.21c.56,0,1.05,0,1.46,0l.9,0,.53-3.27h2.17v9.33h-2.17L265,64.25q-.28,0-.9-.09c-.41,0-.9,0-1.46,0h-3.22l-1.45,0-.54,0v5.06c0,.76,0,1.49,0,2.18s0,1.3.05,1.8,0,.87,0,1.09c.51.07,1,.11,1.54.14s1.14,0,1.87,0h3.93l1.73,0c.43,0,.76,0,1-.07l.63-.1,2.51-4.54,2.28.42Zm31.12-.28H291.58l-.09-2,2.94-.67L292,68.51l-1.83,0c-1,0-2,0-3.06,0s-2,0-3,0l-2.27.07-2.06,5.89,2.94.67-.1,2H274.3l-.15-2,2.42-.67,9.66-24.15,3.18-1.85,10.51,26,2.37.67Zm29.26,0h-12l-.14-2,2.75-.48c-.26-.34-.51-.7-.76-1.06s-.59-.78-1-1.26l-6.82-7.91h-1.32v2.94c0,2,0,3.69.07,4.9s.09,2,.12,2.2l2.75.67-.15,2H304.37l-.14-2,2.94-.67a15.8,15.8,0,0,0,.14-2.2c0-1.21.05-2.85.05-4.9V59.09c0-1.39,0-2.6,0-3.62s0-1.84-.07-2.44a4,4,0,0,0-.14-1.09l-2.94-.67.1-2h10.94l.14,2-2.94.67a3.92,3.92,0,0,0-.16,1.06c-.05.59-.08,1.38-.1,2.39s0,2.25,0,3.7v3.26l1.7-.42,9.76-10.09-2.94-.57.15-2h9.61l.1,2.08-2.85.47-10.23,9.54,8.29,9.5c.6.67,1.11,1.24,1.52,1.73s.76.89,1.06,1.18.55.57.74.79l2.36.47Z" transform="translate(0 -3.12)"/></svg>