<svg id="Layer_1" data-name="Layer 1" xmlns="http://www.w3.org/2000/svg" viewBox="0 0 292.47 120.21"><defs><style>.cls-1{fill:#d9ab73;}</style></defs><polygon class="cls-1" points="14.84 93.75 5.38 93.75 5.38 112.45 7.31 112.45 14.84 93.75"/><polygon class="cls-1" points="41.77 26.84 5.38 26.84 5.38 34.38 38.74 34.38 41.77 26.84"/><polygon class="cls-1" points="240.32 101.27 238.86 104.67 241.78 104.67 240.32 101.27"/><path class="cls-1" d="M128.64,114.77h161V96.08H121.11Zm141.77-12.62,2.28,3.79,2.31-3.79h1.42l-3.05,5v2.75h-1.44v-2.72l-3.06-5.06Zm-15.37,0h3.2a4.35,4.35,0,0,1,1.76.33,2.49,2.49,0,0,1,1.15,1,2.9,2.9,0,0,1,0,3,2.48,2.48,0,0,1-1.22.94l1.79,2.56h-1.56l-1.59-2.28h-2.06v2.27H255Zm-12.89,0h1.42l3.52,7.78h-1.52l-.77-1.8h-3.9l-.76,1.8h-1.49Zm-12.46,5.13a1.57,1.57,0,0,0-.61-.34c-.24-.08-.57-.18-1-.28a12.05,12.05,0,0,1-1.44-.42,2.37,2.37,0,0,1-.94-.66,1.76,1.76,0,0,1-.4-1.22,2.09,2.09,0,0,1,.35-1.17,2.32,2.32,0,0,1,1.06-.84,4.24,4.24,0,0,1,1.73-.32,5.54,5.54,0,0,1,1.4.18,3.92,3.92,0,0,1,1.19.51l-.46,1.13a4.73,4.73,0,0,0-1.06-.46,4.13,4.13,0,0,0-1.08-.15,2.32,2.32,0,0,0-1.28.28.92.92,0,0,0-.41.77.71.71,0,0,0,.24.55,1.73,1.73,0,0,0,.6.33c.25.08.58.18,1,.28a9.37,9.37,0,0,1,1.43.42,2.33,2.33,0,0,1,1,.66,1.73,1.73,0,0,1,.39,1.2,2,2,0,0,1-.35,1.17,2.33,2.33,0,0,1-1.06.83,4.25,4.25,0,0,1-1.73.31,5.91,5.91,0,0,1-1.74-.25,3.6,3.6,0,0,1-1.33-.68l.5-1.13a3.82,3.82,0,0,0,1.17.62,4.25,4.25,0,0,0,1.4.24,2.35,2.35,0,0,0,1.29-.28.83.83,0,0,0,.43-.73A.71.71,0,0,0,229.69,107.28Zm-19.87-5.13H211l4.3,5.27v-5.27h1.43v7.78h-1.19l-4.29-5.27v5.27h-1.44Zm-14.41,0h5.69v1.21h-4.24v2h3.76v1.19h-3.76v2.15h4.39v1.21h-5.84Zm-14.92,0h3.21a4.35,4.35,0,0,1,1.76.33,2.54,2.54,0,0,1,1.15,1,2.61,2.61,0,0,1,.4,1.47,2.67,2.67,0,0,1-.4,1.48,2.54,2.54,0,0,1-1.15,1,4.35,4.35,0,0,1-1.76.33h-1.76v2.25h-1.45Zm-10.05,5.13a1.64,1.64,0,0,0-.61-.34c-.25-.08-.58-.18-1-.28a12.05,12.05,0,0,1-1.44-.42,2.4,2.4,0,0,1-.95-.66,1.81,1.81,0,0,1-.39-1.22,2,2,0,0,1,.35-1.17,2.24,2.24,0,0,1,1-.84,4.27,4.27,0,0,1,1.73-.32,5.56,5.56,0,0,1,1.41.18,4,4,0,0,1,1.19.51l-.46,1.13a4.8,4.8,0,0,0-1.07-.46,4.13,4.13,0,0,0-1.08-.15,2.28,2.28,0,0,0-1.27.28.9.9,0,0,0-.42.77.71.71,0,0,0,.24.55,1.69,1.69,0,0,0,.61.33c.24.08.58.18,1,.28a9.21,9.21,0,0,1,1.42.42,2.33,2.33,0,0,1,.95.66,1.69,1.69,0,0,1,.4,1.2,2.09,2.09,0,0,1-.35,1.17,2.44,2.44,0,0,1-1.06.83A4.33,4.33,0,0,1,169,110a6,6,0,0,1-1.74-.25,3.69,3.69,0,0,1-1.33-.68l.5-1.13a3.76,3.76,0,0,0,1.18.62,4.19,4.19,0,0,0,1.39.24,2.39,2.39,0,0,0,1.3-.28.84.84,0,0,0,.42-.73A.73.73,0,0,0,170.44,107.28ZM156,102.15h1.45v7.78H156Zm-16.14,0h3.4a4.89,4.89,0,0,1,2.21.48A3.5,3.5,0,0,1,147,104a4.12,4.12,0,0,1,0,4.08,3.56,3.56,0,0,1-1.5,1.37,4.89,4.89,0,0,1-2.21.48h-3.4Z" transform="translate(-2.53 -2.32)"/><path class="cls-1" d="M185.06,106.06a1.58,1.58,0,0,0,0-2.29,2.18,2.18,0,0,0-1.43-.4h-1.69v3.09h1.69A2.18,2.18,0,0,0,185.06,106.06Z" transform="translate(-2.53 -2.32)"/><path class="cls-1" d="M259.61,106.07a1.44,1.44,0,0,0,.49-1.16,1.42,1.42,0,0,0-.49-1.14,2.23,2.23,0,0,0-1.44-.4h-1.69v3.1h1.69A2.23,2.23,0,0,0,259.61,106.07Z" transform="translate(-2.53 -2.32)"/><path class="cls-1" d="M145.73,107.44a2.77,2.77,0,0,0,.35-1.4,2.81,2.81,0,0,0-.35-1.41,2.37,2.37,0,0,0-1-.93,3.29,3.29,0,0,0-1.51-.33h-1.89v5.34h1.89a3.29,3.29,0,0,0,1.51-.33A2.33,2.33,0,0,0,145.73,107.44Z" transform="translate(-2.53 -2.32)"/><polygon class="cls-1" points="287.09 34.38 287.09 26.84 91.64 26.84 94.67 34.38 287.09 34.38"/><polygon class="cls-1" points="37.8 93.75 17.48 93.75 9.95 112.45 9.4 113.82 8.85 115.19 6.83 120.21 27.15 120.21 29.17 115.19 29.72 113.82 30.27 112.45 37.8 93.75"/><polygon class="cls-1" points="61.7 34.38 64.74 26.84 65.29 25.47 65.38 25.23 64.93 24.1 55.23 0 45.52 24.1 44.97 25.47 44.42 26.84 41.38 34.38 61.7 34.38"/><polygon class="cls-1" points="124.01 113.82 123.46 112.45 115.93 93.75 95.61 93.75 94.29 93.75 92.97 93.75 40.44 93.75 32.91 112.45 32.36 113.82 31.81 115.19 29.79 120.21 103.62 120.21 104.94 120.21 106.27 120.21 126.58 120.21 124.56 115.19 124.01 113.82"/><polygon class="cls-1" points="69.06 34.38 70.39 34.38 71.71 34.38 92.03 34.38 88.99 26.84 88.44 25.47 87.89 24.1 78.19 0 68.48 24.1 68.03 25.23 67.93 25.47 67.38 26.84 67.37 26.88 66.71 28.52 64.35 34.38 69.06 34.38"/><path class="cls-1" d="M292.37,38.94H2.53V93.83H295V38.94ZM39.69,61.45,37.75,56a8.27,8.27,0,0,0-1-.12l-.53,0H32.86a7.86,7.86,0,0,0-1.29.1c0,.23,0,.82,0,1.78s0,2-.05,3.3v.1c0,1.1,0,2.18,0,3.25v6.5c0,2,0,3.72.05,5.21s.07,2.53.1,3.11l4.13.59-.09,2.14H22.38l-.15-2.14,1.82-.26,1.4-.2.92-.13c0-.47.05-1.25.07-2.33,0-.25,0-.5,0-.78,0-.81,0-1.69,0-2.64s0-1.66,0-2.57V65c0-1.27,0-2.55,0-3.87s0-2.45,0-3.4a15.84,15.84,0,0,0-.05-1.78,6.8,6.8,0,0,0-1.24-.1h-3c-.32,0-.65,0-1,0a8,8,0,0,0-1,.12l-2,5.59-2.43-.29,1-8.17,1.22.1,1.43.07,1.46,0c.47,0,.9,0,1.29,0H35.9l1,0h.3l1.14,0,1.41-.07,1.26-.1,1.12,8.12Zm43.25,3.41L75.93,82H73.64L66,62.93,58.18,82H55.94l-3.65-9.09-.66-1.65L51,69.64,45.53,56.05l-2.43-.68.09-2H53.6l.1,2-2.43.68,2.52,6.59.65,1.69L55.08,66l3.31,8.67,6-15.78-1.14-2.85-2.48-.68.15-2H71.7l.14,2-3,.68,7.18,18.66L81.22,60.6l.63-1.72.63-1.72.4-1.11L82,55.86l-1.44-.28-1-.21.14-2v0h9.25l.14,2-2.48.68L84.27,61.6l-.67,1.63Zm19.59,17H91.35l-.15-2,.37-.08,2.65-.6A5,5,0,0,0,94.36,78c0-.61.06-1.44.08-2.48s0-2.25,0-3.64V63.39c0-1.42,0-2.66,0-3.72s0-1.89-.08-2.5a4.23,4.23,0,0,0-.14-1.12l-3-.68.15-2h11.18l.15,2-.55.12-2.47.56a4.32,4.32,0,0,0-.17,1.07c0,.58-.08,1.39-.09,2.43s0,2.32,0,3.84v8.47c0,1.45,0,2.7,0,3.74s0,1.85.09,2.43a5.31,5.31,0,0,0,.17,1.12l3,.68Zm30.21-25.83q0,.2-.12,1.17c-.05.64-.09,1.57-.12,2.77s-.05,2.69-.05,4.47V75.31c0,1.17,0,2.31,0,3.43s0,2.24,0,3.38h-2.44l-16.87-21.6v9.93c0,1.88,0,3.43,0,4.66,0,.58,0,1.08.06,1.53s0,1,.07,1.3a12,12,0,0,0,.12,1.21l.89.18,2.46.5-.14,2H107l-.15-2,3-.68a5.84,5.84,0,0,0,.15-1.24c0-.63.06-1.53.09-2.69V75c0-.86,0-1.86.05-3V62.71c0-1.3,0-2.41-.05-3.35s-.06-1.69-.09-2.24a4.91,4.91,0,0,0-.15-1.07l-3-.68.15-2h7l15.52,19.4V64.46c0-1.78,0-3.27,0-4.47s-.05-2.13-.1-2.77a4.94,4.94,0,0,0-.17-1.17l-3.31-.68.15-2h9.58l.14,2ZM169.8,66.31a9.51,9.51,0,0,1-3.86,3.19,13.11,13.11,0,0,1-5.57,1.14,16.69,16.69,0,0,1-1.93-.1c-.33,0-.64-.08-.95-.12V72.1c0,1.56,0,2.83,0,3.82s.07,1.72.1,2.21a6.73,6.73,0,0,0,.1.92l4,.69-.15,2.14h-12l-.1-2,2.82-.68a3,3,0,0,0,.15-1c0-.52.05-1.27.07-2.26s0-2.26,0-3.82l0-9.19c0-1.5,0-2.73,0-3.7s-.06-1.72-.08-2.24a2.27,2.27,0,0,0-.12-.92l-3-.68.1-2h11c3.47,0,6.14.72,8,2.14a7.27,7.27,0,0,1,2.79,6.13A8.09,8.09,0,0,1,169.8,66.31Zm27.29,15.86c-.91-.13-1.82-.21-2.73-.25s-1.75,0-2.52,0H175.1l-.14-2,3-.68a5,5,0,0,0,.17-1.17c.05-.61.08-1.44.1-2.48s0-2.25,0-3.64V63.39q0-2.13,0-3.72c0-1.05-.05-1.89-.1-2.5a4.14,4.14,0,0,0-.17-1.12l-3-.68.14-2h15.47c.49,0,1.05,0,1.7,0l2-.07c.68,0,1.33-.08,1.94-.15l1.07,6.71-2.38.34L193.2,56c-.33-.07-.64-.11-.95-.15s-.66-.05-1.05-.05h-4.91c-.62,0-1.17,0-1.68,0a13.66,13.66,0,0,0-1.38.12q0,.3,0,1.14c0,.57,0,1.25,0,2s0,1.63,0,2.5v4.18h5.35c.58,0,1.09,0,1.51,0s.73,0,.92,0l.54-3.36h2.23V72h-2.23l-.54-3.31c-.19,0-.5-.06-.92-.09s-.93,0-1.51,0h-3.31l-1.48,0-.56,0v5.2c0,.78,0,1.53,0,2.24s0,1.33,0,1.85,0,.89,0,1.12c.52.06,1,.11,1.58.14s1.17,0,1.92,0h4l1.77,0a9.61,9.61,0,0,0,1-.08l.66-.09,2.58-4.67,2.33.43ZM229,81.88H218.2l-.1-2,3-.68-2.47-6.09c-.62,0-1.24,0-1.89,0-1,0-2.06,0-3.13,0s-2.1,0-3.09,0l-2.34.08-2.11,6.05,3,.68-.09,2h-8.57l-.14-2,2.48-.68,9.92-24.8,3.26-1.9,10.8,26.7,2.43.68Zm30.06,0H246.8l-.15-2,2.82-.48-.78-1.1a15.18,15.18,0,0,0-1-1.29l-7-8.12h-1.36v3c0,2.1,0,3.78.07,5s.09,2,.12,2.26l2.82.68-.14,2H231.33l-.15-2,3-.68a16,16,0,0,0,.15-2.26c0-1.25,0-2.93,0-5V63.39c0-1.42,0-2.66,0-3.72s0-1.89-.07-2.5a3.68,3.68,0,0,0-.15-1.12l-3-.68.09-2h11.24l.14,2-3,.68a4,4,0,0,0-.17,1.09c-.05.6-.08,1.42-.1,2.46s0,2.3,0,3.79v3.35l1.75-.43,10-10.36-3-.58.15-2h9.87l.1,2.14-2.92.49-10.51,9.79,8.52,9.76c.61.68,1.13,1.28,1.55,1.78s.79.91,1.1,1.22a10,10,0,0,1,.75.8l2.43.48Zm19.8-3.58A9.38,9.38,0,0,1,275,81.24a14.3,14.3,0,0,1-5.74,1.07,20.24,20.24,0,0,1-4.43-.53A14.19,14.19,0,0,1,261,80.37l-.29-6.62,2.43-.19,1.46,4.57a9.74,9.74,0,0,0,2.55,1.12,10.54,10.54,0,0,0,2.85.39,5.75,5.75,0,0,0,3.67-1.07A3.56,3.56,0,0,0,275,75.65a4,4,0,0,0-1-2.85,9,9,0,0,0-2.63-1.89c-1.07-.54-2.21-1.06-3.43-1.58a22.46,22.46,0,0,1-3.43-1.83,8.83,8.83,0,0,1-2.62-2.58,6.75,6.75,0,0,1-1-3.86,7.14,7.14,0,0,1,1.37-4.31A8.88,8.88,0,0,1,266,53.83a14.52,14.52,0,0,1,5.67-1,19.81,19.81,0,0,1,2.43.15,17.9,17.9,0,0,1,2.31.41,11.65,11.65,0,0,1,2,.66l.44,6.42-2.43.19L275,56.29a7.48,7.48,0,0,0-3.84-.92,5.79,5.79,0,0,0-3.75,1.14,3.72,3.72,0,0,0-1.41,3,4.15,4.15,0,0,0,1,2.85,9.39,9.39,0,0,0,2.65,2c1.09.57,2.25,1.11,3.48,1.63a24.82,24.82,0,0,1,3.48,1.8,8.94,8.94,0,0,1,2.65,2.5,6.42,6.42,0,0,1,1,3.72A6.9,6.9,0,0,1,278.9,78.3Z" transform="translate(-2.53 -2.32)"/><path class="cls-1" d="M159.73,55.66h-2.19c0,.23,0,.67,0,1.34s0,1.5-.05,2.5,0,2.14,0,3.41l0,4.73c.35.09.69.17,1,.23a11.36,11.36,0,0,0,1.78.14,5.84,5.84,0,0,0,4.18-1.43A5.73,5.73,0,0,0,166,62.23c0-2.27-.58-3.94-1.75-5A6.45,6.45,0,0,0,159.73,55.66Z" transform="translate(-2.53 -2.32)"/><path class="cls-1" d="M209.18,70.38l.75,0c1,0,2.2.07,3.7.07s2.69,0,3.69-.07l.34,0-4.47-11Z" transform="translate(-2.53 -2.32)"/></svg>